ISO-10303-21;
HEADER;
FILE_DESCRIPTION(('FreeCAD Model'),'2;1');
FILE_NAME('Open CASCADE Shape Model','2026-08-23T10:49:16',(''),(''),
  'Open CASCADE STEP processor 7.8','FreeCAD','Unknown');
FILE_SCHEMA(('AUTOMOTIVE_DESIGN { 1 0 10303 214 1 1 1 1 }'));
ENDSEC;
DATA;
#1 = APPLICATION_PROTOCOL_DEFINITION('international standard',
  'automotive_design',2000,#2);
#2 = APPLICATION_CONTEXT(
  'core data for automotive mechanical design processes');
#3 = SHAPE_DEFINITION_REPRESENTATION(#4,#10);
#4 = PRODUCT_DEFINITION_SHAPE('','',#5);
#5 = PRODUCT_DEFINITION('design','',#6,#9);
#6 = PRODUCT_DEFINITION_FORMATION('','',#7);
#7 = PRODUCT('Stand','Stand','',(#8));
#8 = PRODUCT_CONTEXT('',#2,'mechanical');
#9 = PRODUCT_DEFINITION_CONTEXT('part definition',#2,'design');
#10 = ADVANCED_BREP_SHAPE_REPRESENTATION('',(#11,#15),#1283);
#11 = AXIS2_PLACEMENT_3D('',#12,#13,#14);
#12 = CARTESIAN_POINT('',(0.,0.,0.));
#13 = DIRECTION('',(0.,0.,1.));
#14 = DIRECTION('',(1.,0.,-0.));
#15 = MANIFOLD_SOLID_BREP('',#16);
#16 = CLOSED_SHELL('',(#17,#78,#103,#505,#530,#555,#580,#605,#713,#737,
    #856,#881,#999,#1024,#1136,#1154,#1179,#1204,#1229,#1258));
#17 = ADVANCED_FACE('',(#18,#29,#40,#51,#62),#73,.T.);
#18 = FACE_BOUND('',#19,.T.);
#19 = EDGE_LOOP('',(#20));
#20 = ORIENTED_EDGE('',*,*,#21,.F.);
#21 = EDGE_CURVE('',#22,#22,#24,.T.);
#22 = VERTEX_POINT('',#23);
#23 = CARTESIAN_POINT('',(-21.46,0.,0.));
#24 = CIRCLE('',#25,3.54);
#25 = AXIS2_PLACEMENT_3D('',#26,#27,#28);
#26 = CARTESIAN_POINT('',(-25.,0.,0.));
#27 = DIRECTION('',(0.,0.,1.));
#28 = DIRECTION('',(1.,0.,-0.));
#29 = FACE_BOUND('',#30,.T.);
#30 = EDGE_LOOP('',(#31));
#31 = ORIENTED_EDGE('',*,*,#32,.T.);
#32 = EDGE_CURVE('',#33,#33,#35,.T.);
#33 = VERTEX_POINT('',#34);
#34 = CARTESIAN_POINT('',(37.5,0.,0.));
#35 = CIRCLE('',#36,37.5);
#36 = AXIS2_PLACEMENT_3D('',#37,#38,#39);
#37 = CARTESIAN_POINT('',(0.,0.,0.));
#38 = DIRECTION('',(0.,0.,1.));
#39 = DIRECTION('',(1.,0.,0.));
#40 = FACE_BOUND('',#41,.T.);
#41 = EDGE_LOOP('',(#42));
#42 = ORIENTED_EDGE('',*,*,#43,.F.);
#43 = EDGE_CURVE('',#44,#44,#46,.T.);
#44 = VERTEX_POINT('',#45);
#45 = CARTESIAN_POINT('',(3.54,-25.,0.));
#46 = CIRCLE('',#47,3.54);
#47 = AXIS2_PLACEMENT_3D('',#48,#49,#50);
#48 = CARTESIAN_POINT('',(0.,-25.,0.));
#49 = DIRECTION('',(0.,0.,1.));
#50 = DIRECTION('',(1.,0.,-0.));
#51 = FACE_BOUND('',#52,.T.);
#52 = EDGE_LOOP('',(#53));
#53 = ORIENTED_EDGE('',*,*,#54,.F.);
#54 = EDGE_CURVE('',#55,#55,#57,.T.);
#55 = VERTEX_POINT('',#56);
#56 = CARTESIAN_POINT('',(28.564054,-0.381754,0.));
#57 = CIRCLE('',#58,3.54);
#58 = AXIS2_PLACEMENT_3D('',#59,#60,#61);
#59 = CARTESIAN_POINT('',(25.024054,-0.381754,0.));
#60 = DIRECTION('',(0.,0.,1.));
#61 = DIRECTION('',(1.,0.,-0.));
#62 = FACE_BOUND('',#63,.T.);
#63 = EDGE_LOOP('',(#64));
#64 = ORIENTED_EDGE('',*,*,#65,.F.);
#65 = EDGE_CURVE('',#66,#66,#68,.T.);
#66 = VERTEX_POINT('',#67);
#67 = CARTESIAN_POINT('',(3.54,25.,0.));
#68 = CIRCLE('',#69,3.54);
#69 = AXIS2_PLACEMENT_3D('',#70,#71,#72);
#70 = CARTESIAN_POINT('',(0.,25.,0.));
#71 = DIRECTION('',(0.,0.,1.));
#72 = DIRECTION('',(1.,0.,-0.));
#73 = PLANE('',#74);
#74 = AXIS2_PLACEMENT_3D('',#75,#76,#77);
#75 = CARTESIAN_POINT('',(-3.5E-15,8.E-16,0.));
#76 = DIRECTION('',(0.,0.,1.));
#77 = DIRECTION('',(1.,0.,0.));
#78 = ADVANCED_FACE('',(#79),#98,.F.);
#79 = FACE_BOUND('',#80,.T.);
#80 = EDGE_LOOP('',(#81,#89,#90,#91));
#81 = ORIENTED_EDGE('',*,*,#82,.F.);
#82 = EDGE_CURVE('',#22,#83,#85,.T.);
#83 = VERTEX_POINT('',#84);
#84 = CARTESIAN_POINT('',(-22.46,0.,-1.));
#85 = LINE('',#86,#87);
#86 = CARTESIAN_POINT('',(-22.46,0.,-1.));
#87 = VECTOR('',#88,1.);
#88 = DIRECTION('',(-0.707106781187,-0.,-0.707106781187));
#89 = ORIENTED_EDGE('',*,*,#21,.T.);
#90 = ORIENTED_EDGE('',*,*,#82,.T.);
#91 = ORIENTED_EDGE('',*,*,#92,.F.);
#92 = EDGE_CURVE('',#83,#83,#93,.T.);
#93 = CIRCLE('',#94,2.54);
#94 = AXIS2_PLACEMENT_3D('',#95,#96,#97);
#95 = CARTESIAN_POINT('',(-25.,0.,-1.));
#96 = DIRECTION('',(0.,0.,1.));
#97 = DIRECTION('',(1.,0.,-0.));
#98 = CONICAL_SURFACE('',#99,2.54,0.785398163397);
#99 = AXIS2_PLACEMENT_3D('',#100,#101,#102);
#100 = CARTESIAN_POINT('',(-25.,0.,-1.));
#101 = DIRECTION('',(0.,0.,1.));
#102 = DIRECTION('',(1.,0.,0.));
#103 = ADVANCED_FACE('',(#104),#500,.T.);
#104 = FACE_BOUND('',#105,.T.);
#105 = EDGE_LOOP('',(#106,#114,#115,#116,#158,#167,#254,#263,#355,#364,
    #451,#460));
#106 = ORIENTED_EDGE('',*,*,#107,.F.);
#107 = EDGE_CURVE('',#33,#108,#110,.T.);
#108 = VERTEX_POINT('',#109);
#109 = CARTESIAN_POINT('',(37.5,0.,-6.));
#110 = LINE('',#111,#112);
#111 = CARTESIAN_POINT('',(37.5,0.,0.));
#112 = VECTOR('',#113,1.);
#113 = DIRECTION('',(-0.,-0.,-1.));
#114 = ORIENTED_EDGE('',*,*,#32,.F.);
#115 = ORIENTED_EDGE('',*,*,#107,.T.);
#116 = ORIENTED_EDGE('',*,*,#117,.F.);
#117 = EDGE_CURVE('',#118,#108,#120,.T.);
#118 = VERTEX_POINT('',#119);
#119 = CARTESIAN_POINT('',(28.814059068448,24.,-30.));
#120 = B_SPLINE_CURVE_WITH_KNOTS('',6,(#121,#122,#123,#124,#125,#126,
    #127,#128,#129,#130,#131,#132,#133,#134,#135,#136,#137,#138,#139,
    #140,#141,#142,#143,#144,#145,#146,#147,#148,#149,#150,#151,#152,
    #153,#154,#155,#156,#157),.UNSPECIFIED.,.F.,.F.,(7,5,5,5,5,5,5,7),(
    0.,0.204043464648,0.41140669689,0.616055949327,0.690446723172,
    0.790084058778,0.87112968714,1.),.UNSPECIFIED.);
#121 = CARTESIAN_POINT('',(28.814059068448,24.,-30.));
#122 = CARTESIAN_POINT('',(28.814059068448,24.,-28.84823357341));
#123 = CARTESIAN_POINT('',(28.869305173386,23.933672227618,
    -27.69783832751));
#124 = CARTESIAN_POINT('',(28.979554105075,23.801309305698,
    -26.55315103572));
#125 = CARTESIAN_POINT('',(29.142367602121,23.603508317588,
    -25.41865884571));
#126 = CARTESIAN_POINT('',(29.353105628644,23.341254244458,
    -24.29930317722));
#127 = CARTESIAN_POINT('',(29.86179525025,22.686949702992,
    -22.08435411645));
#128 = CARTESIAN_POINT('',(30.161228186491,22.292704742739,
    -20.98892638711));
#129 = CARTESIAN_POINT('',(30.498128504481,21.834856339269,
    -19.91592102484));
#130 = CARTESIAN_POINT('',(30.866406157113,21.313560973635,
    -18.86727807079));
#131 = CARTESIAN_POINT('',(31.259671941167,20.728574831689,
    -17.84553628815));
#132 = CARTESIAN_POINT('',(32.077488118554,19.438628914519,
    -15.87527072862));
#133 = CARTESIAN_POINT('',(32.501706820323,18.735110949165,
    -14.92561513799));
#134 = CARTESIAN_POINT('',(32.938400063688,17.966863208602,
    -14.00604799358));
#135 = CARTESIAN_POINT('',(33.381950884442,17.1309054333,-13.11891783255
    ));
#136 = CARTESIAN_POINT('',(33.826044649721,16.223597654863,
    -12.26831314711));
#137 = CARTESIAN_POINT('',(34.421977527576,14.883892847789,
    -11.1669570462));
#138 = CARTESIAN_POINT('',(34.579949267955,14.51672885134,
    -10.87895248784));
#139 = CARTESIAN_POINT('',(34.736668227931,14.139337368159,
    -10.59684464511));
#140 = CARTESIAN_POINT('',(34.891753939523,13.751499217378,
    -10.32097135172));
#141 = CARTESIAN_POINT('',(35.044795498687,13.352998333987,
    -10.05172277392));
#142 = CARTESIAN_POINT('',(35.396999352227,12.39531134513,
    -9.438380060748));
#143 = CARTESIAN_POINT('',(35.594232204533,11.82736797222,
    -9.099817581325));
#144 = CARTESIAN_POINT('',(35.78591735024,11.239433240345,
    -8.775037856468));
#145 = CARTESIAN_POINT('',(35.970822100035,10.631212926983,
    -8.465375596295));
#146 = CARTESIAN_POINT('',(36.147616245449,10.002477454755,
    -8.172317903266));
#147 = CARTESIAN_POINT('',(36.450926144264,8.82482454898,-7.673973164033
    ));
#148 = CARTESIAN_POINT('',(36.580693123975,8.28280688539,-7.462471140011
    ));
#149 = CARTESIAN_POINT('',(36.703278822638,7.727405574564,
    -7.264102390672));
#150 = CARTESIAN_POINT('',(36.817798557208,7.159065067881,
    -7.079938068828));
#151 = CARTESIAN_POINT('',(36.923389856804,6.578278463034,-6.91102354223
    ));
#152 = CARTESIAN_POINT('',(37.171602294812,5.043152474475,
    -6.515671044721));
#153 = CARTESIAN_POINT('',(37.299584771375,4.068896958163,
    -6.313663411088));
#154 = CARTESIAN_POINT('',(37.398823110252,3.06994102307,-6.158088983195
    ));
#155 = CARTESIAN_POINT('',(37.466192994811,2.053716777778,
    -6.052823420896));
#156 = CARTESIAN_POINT('',(37.5,1.027845044795,-6.));
#157 = CARTESIAN_POINT('',(37.5,3.67E-15,-6.));
#158 = ORIENTED_EDGE('',*,*,#159,.T.);
#159 = EDGE_CURVE('',#118,#160,#162,.T.);
#160 = VERTEX_POINT('',#161);
#161 = CARTESIAN_POINT('',(24.,28.814059068448,-30.));
#162 = CIRCLE('',#163,37.5);
#163 = AXIS2_PLACEMENT_3D('',#164,#165,#166);
#164 = CARTESIAN_POINT('',(0.,0.,-30.));
#165 = DIRECTION('',(0.,0.,1.));
#166 = DIRECTION('',(1.,0.,0.));
#167 = ORIENTED_EDGE('',*,*,#168,.T.);
#168 = EDGE_CURVE('',#160,#169,#171,.T.);
#169 = VERTEX_POINT('',#170);
#170 = CARTESIAN_POINT('',(-24.,28.814059068448,-30.));
#171 = B_SPLINE_CURVE_WITH_KNOTS('',6,(#172,#173,#174,#175,#176,#177,
    #178,#179,#180,#181,#182,#183,#184,#185,#186,#187,#188,#189,#190,
    #191,#192,#193,#194,#195,#196,#197,#198,#199,#200,#201,#202,#203,
    #204,#205,#206,#207,#208,#209,#210,#211,#212,#213,#214,#215,#216,
    #217,#218,#219,#220,#221,#222,#223,#224,#225,#226,#227,#228,#229,
    #230,#231,#232,#233,#234,#235,#236,#237,#238,#239,#240,#241,#242,
    #243,#244,#245,#246,#247,#248,#249,#250,#251,#252,#253),
  .UNSPECIFIED.,.F.,.F.,(7,5,5,5,5,5,5,5,5,5,5,5,5,5,5,5,7),(0.,
    0.102008719928,0.205677111742,0.307988686262,0.345768363663,
    0.395741662078,0.435508518838,0.45710829061,0.500026314129,
    0.543133029795,0.564416821774,0.604104029039,0.654497640722,
    0.692422341366,0.79402881651,0.898609186264,1.),.UNSPECIFIED.);
#172 = CARTESIAN_POINT('',(24.,28.814059068448,-30.));
#173 = CARTESIAN_POINT('',(24.,28.814059068448,-28.84823358745));
#174 = CARTESIAN_POINT('',(23.933672229235,28.869305172039,
    -27.69783835551));
#175 = CARTESIAN_POINT('',(23.801309310529,28.979554101051,
    -26.55315107748));
#176 = CARTESIAN_POINT('',(23.603508327205,29.142367594205,
    -25.41865890087));
#177 = CARTESIAN_POINT('',(23.341254260398,29.353105615835,
    -24.29930324527));
#178 = CARTESIAN_POINT('',(22.68694973522,29.861795225618,
    -22.08435421122));
#179 = CARTESIAN_POINT('',(22.292704785248,30.161228154725,
    -20.98892649567));
#180 = CARTESIAN_POINT('',(21.834856393789,30.498128464915,
    -19.91592114637));
#181 = CARTESIAN_POINT('',(21.313561041941,30.866406109338,
    -18.86727820448));
#182 = CARTESIAN_POINT('',(20.728574915617,31.25967188504,
    -17.84553643305));
#183 = CARTESIAN_POINT('',(19.438629036332,32.077488044204,
    -15.87527089819));
#184 = CARTESIAN_POINT('',(18.735111093761,32.501706735941,
    -14.92561532075));
#185 = CARTESIAN_POINT('',(17.966863378667,32.938399969528,
    -14.00604818814));
#186 = CARTESIAN_POINT('',(17.13090563183,33.381950781076,-13.1189180373
    ));
#187 = CARTESIAN_POINT('',(16.223597885162,33.826044538153,
    -12.26831336003));
#188 = CARTESIAN_POINT('',(14.878236350624,34.424493676754,
    -11.16230689543));
#189 = CARTESIAN_POINT('',(14.5050961362,34.584952924141,-10.86983111287
    ));
#190 = CARTESIAN_POINT('',(14.121398156897,34.744113689326,
    -10.58344490158));
#191 = CARTESIAN_POINT('',(13.726912735711,34.90157664071,
    -10.30350330671));
#192 = CARTESIAN_POINT('',(13.321413621126,35.056909971986,
    -10.0304171581));
#193 = CARTESIAN_POINT('',(12.353437727798,35.411682533826,
    -9.413110395682));
#194 = CARTESIAN_POINT('',(11.782409665566,35.609222592052,
    -9.074297087921));
#195 = CARTESIAN_POINT('',(11.191239132264,35.801119343264,
    -8.749419148589));
#196 = CARTESIAN_POINT('',(10.579637385093,35.986121930824,
    -8.439833995347));
#197 = CARTESIAN_POINT('',(9.947382077456,36.162881469031,
    -8.147052147426));
#198 = CARTESIAN_POINT('',(8.774634385735,36.462906335705,
    -7.654452078453));
#199 = CARTESIAN_POINT('',(8.241677287491,36.589748688802,
    -7.447819713461));
#200 = CARTESIAN_POINT('',(7.69583654886,36.709628719112,-7.253891685994
    ));
#201 = CARTESIAN_POINT('',(7.137547137572,36.821707044885,-7.07368585801
    ));
#202 = CARTESIAN_POINT('',(6.567289299189,36.925166662884,
    -6.908193448522));
#203 = CARTESIAN_POINT('',(5.669632111469,37.07030766159,-6.677013024227
    ));
#204 = CARTESIAN_POINT('',(5.350351058442,37.118611295288,
    -6.600282397888));
#205 = CARTESIAN_POINT('',(5.027933983637,37.163990770236,-6.52837041801
    ));
#206 = CARTESIAN_POINT('',(4.702572904481,37.206315475467,
    -6.461441985844));
#207 = CARTESIAN_POINT('',(4.374463409579,37.245465380809,
    -6.399648312885));
#208 = CARTESIAN_POINT('',(3.386796788653,37.352594895016,
    -6.230820806832));
#209 = CARTESIAN_POINT('',(2.719434357537,37.41092442547,-6.139280998894
    ));
#210 = CARTESIAN_POINT('',(2.04420193538,37.455339618785,-6.069780390393
    ));
#211 = CARTESIAN_POINT('',(1.363609832936,37.48516966103,-6.02317307166)
  );
#212 = CARTESIAN_POINT('',(0.680193573408,37.500063404416,
    -5.999900930599));
#213 = CARTESIAN_POINT('',(-0.690172693828,37.499935991932,
    -6.000100012607));
#214 = CARTESIAN_POINT('',(-1.376568748996,37.484783078641,
    -6.02377712278));
#215 = CARTESIAN_POINT('',(-2.060084234811,37.454564587747,
    -6.07099186467));
#216 = CARTESIAN_POINT('',(-2.738153875068,37.409639471248,
    -6.141292607106));
#217 = CARTESIAN_POINT('',(-3.408238243696,37.350691373239,
    -6.233809020797));
#218 = CARTESIAN_POINT('',(-4.393492673921,37.243181185999,
    -6.403254059511));
#219 = CARTESIAN_POINT('',(-4.716675405882,37.204460926567,
    -6.464375290052));
#220 = CARTESIAN_POINT('',(-5.037182464667,37.162662179065,
    -6.530476929839));
#221 = CARTESIAN_POINT('',(-5.354827208587,37.117899974151,
    -6.601414075791));
#222 = CARTESIAN_POINT('',(-5.669426410037,37.070299275498,
    -6.677028975789));
#223 = CARTESIAN_POINT('',(-6.561409122303,36.926194165912,
    -6.906552062224));
#224 = CARTESIAN_POINT('',(-7.13062635483,36.823021264789,
    -7.071578618045));
#225 = CARTESIAN_POINT('',(-7.687927802185,36.711258000861,
    -7.251267267733));
#226 = CARTESIAN_POINT('',(-8.232834369155,36.591716560715,
    -7.444632495588));
#227 = CARTESIAN_POINT('',(-8.76491189077,36.465231545751,
    -7.650662068024));
#228 = CARTESIAN_POINT('',(-9.942602570335,36.164306344679,
    -8.144678194812));
#229 = CARTESIAN_POINT('',(-10.58027219132,35.98609600326,
    -8.439842896445));
#230 = CARTESIAN_POINT('',(-11.19693910436,35.799500858525,
    -8.752097092238));
#231 = CARTESIAN_POINT('',(-11.79283189284,35.605903863002,
    -9.079892260674));
#232 = CARTESIAN_POINT('',(-12.36824769136,35.406586547317,
    -9.421838303057));
#233 = CARTESIAN_POINT('',(-13.34145607382,35.049304300457,
    -10.04376000766));
#234 = CARTESIAN_POINT('',(-13.74804436478,34.893282783066,
    -10.31818212261));
#235 = CARTESIAN_POINT('',(-14.1435422423,34.735130512304,
    -10.59949754001));
#236 = CARTESIAN_POINT('',(-14.52817874362,34.575283342458,
    -10.88729224031));
#237 = CARTESIAN_POINT('',(-14.90218625564,34.41414423674,
    -11.18120877089));
#238 = CARTESIAN_POINT('',(-16.23998366172,33.817901738388,
    -12.28399457073));
#239 = CARTESIAN_POINT('',(-17.14003197845,33.376906101933,
    -13.12921331155));
#240 = CARTESIAN_POINT('',(-17.96975044862,32.936502934688,
    -14.01042289198));
#241 = CARTESIAN_POINT('',(-18.73269832427,32.502874551975,
    -14.92362747769));
#242 = CARTESIAN_POINT('',(-19.43179251767,32.081526248054,
    -15.86652216423));
#243 = CARTESIAN_POINT('',(-20.72472930704,31.262409864911,
    -17.83794758397));
#244 = CARTESIAN_POINT('',(-21.31515153031,30.865528569927,
    -18.8685714499));
#245 = CARTESIAN_POINT('',(-21.8407585961,30.494066091307,
    -19.92657337498));
#246 = CARTESIAN_POINT('',(-22.30179833026,30.154584260453,
    -21.00934124764));
#247 = CARTESIAN_POINT('',(-22.69810682191,29.853333426871,
    -22.11488264426));
#248 = CARTESIAN_POINT('',(-23.34941039446,29.346551045276,
    -24.33419705399));
#249 = CARTESIAN_POINT('',(-23.60847538494,29.138280383129,
    -25.44713123954));
#250 = CARTESIAN_POINT('',(-23.80385088305,28.977437955457,
    -26.57494526787));
#251 = CARTESIAN_POINT('',(-23.93456958613,28.868557742493,
    -27.71277927695));
#252 = CARTESIAN_POINT('',(-24.0000467448,28.814020133449,-28.8562152196
    ));
#253 = CARTESIAN_POINT('',(-23.99999997997,28.814059085128,
    -30.00098042459));
#254 = ORIENTED_EDGE('',*,*,#255,.T.);
#255 = EDGE_CURVE('',#169,#256,#258,.T.);
#256 = VERTEX_POINT('',#257);
#257 = CARTESIAN_POINT('',(-28.81405906844,24.,-30.));
#258 = CIRCLE('',#259,37.5);
#259 = AXIS2_PLACEMENT_3D('',#260,#261,#262);
#260 = CARTESIAN_POINT('',(0.,0.,-30.));
#261 = DIRECTION('',(0.,0.,1.));
#262 = DIRECTION('',(1.,0.,0.));
#263 = ORIENTED_EDGE('',*,*,#264,.T.);
#264 = EDGE_CURVE('',#256,#265,#267,.T.);
#265 = VERTEX_POINT('',#266);
#266 = CARTESIAN_POINT('',(-28.81405906844,-24.,-30.));
#267 = B_SPLINE_CURVE_WITH_KNOTS('',6,(#268,#269,#270,#271,#272,#273,
    #274,#275,#276,#277,#278,#279,#280,#281,#282,#283,#284,#285,#286,
    #287,#288,#289,#290,#291,#292,#293,#294,#295,#296,#297,#298,#299,
    #300,#301,#302,#303,#304,#305,#306,#307,#308,#309,#310,#311,#312,
    #313,#314,#315,#316,#317,#318,#319,#320,#321,#322,#323,#324,#325,
    #326,#327,#328,#329,#330,#331,#332,#333,#334,#335,#336,#337,#338,
    #339,#340,#341,#342,#343,#344,#345,#346,#347,#348,#349,#350,#351,
    #352,#353,#354),.UNSPECIFIED.,.F.,.F.,(7,5,5,5,5,5,5,5,5,5,5,5,5,5,5
    ,5,5,7),(0.,0.102007116781,0.205673879566,0.307983846849,
    0.345173905194,0.394985436018,0.435502444937,0.457101598903,
    0.499981907529,0.543086475117,0.564381483776,0.604837313492,
    0.655065658133,0.692399176386,0.794005959951,0.898585610793,
    0.986579669411,1.),.UNSPECIFIED.);
#268 = CARTESIAN_POINT('',(-28.81405906844,24.,-30.));
#269 = CARTESIAN_POINT('',(-28.81405906844,24.,-28.84823357341));
#270 = CARTESIAN_POINT('',(-28.86930517338,23.933672227618,
    -27.69783832751));
#271 = CARTESIAN_POINT('',(-28.97955410507,23.801309305699,
    -26.55315103572));
#272 = CARTESIAN_POINT('',(-29.14236760212,23.603508317587,
    -25.41865884571));
#273 = CARTESIAN_POINT('',(-29.35310562864,23.341254244458,
    -24.29930317722));
#274 = CARTESIAN_POINT('',(-29.86179525025,22.686949702992,
    -22.08435411645));
#275 = CARTESIAN_POINT('',(-30.16122818649,22.292704742739,
    -20.98892638711));
#276 = CARTESIAN_POINT('',(-30.49812850448,21.834856339269,
    -19.91592102484));
#277 = CARTESIAN_POINT('',(-30.86640615711,21.313560973635,
    -18.86727807079));
#278 = CARTESIAN_POINT('',(-31.25967194116,20.728574831689,
    -17.84553628815));
#279 = CARTESIAN_POINT('',(-32.07748811855,19.438628914518,
    -15.87527072862));
#280 = CARTESIAN_POINT('',(-32.50170682032,18.735110949165,
    -14.92561513799));
#281 = CARTESIAN_POINT('',(-32.93840006368,17.966863208601,
    -14.00604799358));
#282 = CARTESIAN_POINT('',(-33.38195088444,17.130905433302,
    -13.11891783255));
#283 = CARTESIAN_POINT('',(-33.82604464972,16.223597654863,
    -12.26831314711));
#284 = CARTESIAN_POINT('',(-34.42197752757,14.88389284779,-11.1669570462
    ));
#285 = CARTESIAN_POINT('',(-34.57994926795,14.51672885134,
    -10.87895248784));
#286 = CARTESIAN_POINT('',(-34.73666822793,14.139337368159,
    -10.59684464511));
#287 = CARTESIAN_POINT('',(-34.89175393952,13.751499217378,
    -10.32097135172));
#288 = CARTESIAN_POINT('',(-35.04479549868,13.352998333987,
    -10.05172277392));
#289 = CARTESIAN_POINT('',(-35.39699935222,12.395311345131,
    -9.438380060748));
#290 = CARTESIAN_POINT('',(-35.59423220453,11.827367972221,
    -9.099817581326));
#291 = CARTESIAN_POINT('',(-35.78591735024,11.239433240345,
    -8.775037856468));
#292 = CARTESIAN_POINT('',(-35.97082210003,10.631212926982,
    -8.465375596295));
#293 = CARTESIAN_POINT('',(-36.14761624544,10.002477454755,
    -8.172317903266));
#294 = CARTESIAN_POINT('',(-36.45092614426,8.82482454898,-7.673973164033
    ));
#295 = CARTESIAN_POINT('',(-36.58069312397,8.28280688539,-7.462471140011
    ));
#296 = CARTESIAN_POINT('',(-36.70327882263,7.727405574564,
    -7.264102390672));
#297 = CARTESIAN_POINT('',(-36.8177985572,7.159065067881,-7.079938068827
    ));
#298 = CARTESIAN_POINT('',(-36.9233898568,6.578278463034,-6.91102354223)
  );
#299 = CARTESIAN_POINT('',(-37.07030783955,5.669630954028,
    -6.677012741346));
#300 = CARTESIAN_POINT('',(-37.11861147202,5.350349844743,
    -6.600282117509));
#301 = CARTESIAN_POINT('',(-37.16399094549,5.027932698516,
    -6.528370140517));
#302 = CARTESIAN_POINT('',(-37.20631565225,4.702571511045,
    -6.461441706436));
#303 = CARTESIAN_POINT('',(-37.24546555925,4.374461895034,
    -6.399648031287));
#304 = CARTESIAN_POINT('',(-37.35253446423,3.387353663123,
    -6.230916041653));
#305 = CARTESIAN_POINT('',(-37.41082531397,2.720567804206,
    -6.139436538762));
#306 = CARTESIAN_POINT('',(-37.45522632485,2.045923410174,
    -6.069957674158));
#307 = CARTESIAN_POINT('',(-37.48506815765,1.365924057589,
    -6.023331666707));
#308 = CARTESIAN_POINT('',(-37.5,0.683098470817,-6.));
#309 = CARTESIAN_POINT('',(-37.5,-0.686670995344,-6.));
#310 = CARTESIAN_POINT('',(-37.48491156795,-1.373062226738,
    -6.023576358032));
#311 = CARTESIAN_POINT('',(-37.45475722374,-2.056582521199,
    -6.070690608781));
#312 = CARTESIAN_POINT('',(-37.40989503826,-2.734665951149,
    -6.140892231908));
#313 = CARTESIAN_POINT('',(-37.35100787947,-3.404772394107,
    -6.233311876013));
#314 = CARTESIAN_POINT('',(-37.24356428309,-4.390258940693,
    -6.402649435435));
#315 = CARTESIAN_POINT('',(-37.20484803193,-4.713642941708,
    -6.463763386016));
#316 = CARTESIAN_POINT('',(-37.16304911738,-5.034349653638,
    -6.529864236072));
#317 = CARTESIAN_POINT('',(-37.1182827228,-5.352192011795,
    -6.600806887558));
#318 = CARTESIAN_POINT('',(-37.07067400242,-5.666986328584,
    -6.676433342661));
#319 = CARTESIAN_POINT('',(-36.92476890523,-6.570459055517,
    -6.908819852399));
#320 = CARTESIAN_POINT('',(-36.81944238011,-7.150505382285,
    -7.07730088043));
#321 = CARTESIAN_POINT('',(-36.7052060735,-7.718149765391,
    -7.260995892085));
#322 = CARTESIAN_POINT('',(-36.58291861874,-8.272899208235,
    -7.458864020839));
#323 = CARTESIAN_POINT('',(-36.45346099644,-8.814309084312,
    -7.669838414076));
#324 = CARTESIAN_POINT('',(-36.14920691257,-9.997121877926,
    -8.16966777329));
#325 = CARTESIAN_POINT('',(-35.97097519517,-10.63123210882,
    -8.465085750568));
#326 = CARTESIAN_POINT('',(-35.78449314401,-11.24448200393,
    -8.77739076421));
#327 = CARTESIAN_POINT('',(-35.59112446935,-11.83710738816,
    -9.105058367682));
#328 = CARTESIAN_POINT('',(-35.39213201728,-12.40941082967,
    -9.446721755164));
#329 = CARTESIAN_POINT('',(-35.03744799273,-13.37230935242,
    -10.06462190414));
#330 = CARTESIAN_POINT('',(-34.88372934368,-13.7719042035,
    -10.33518211276));
#331 = CARTESIAN_POINT('',(-34.72796496855,-14.16076137422,
    -10.61240440762));
#332 = CARTESIAN_POINT('',(-34.57056968261,-14.53909958239,
    -10.89589551742));
#333 = CARTESIAN_POINT('',(-34.41192747105,-14.90714059386,
    -11.18531524158));
#334 = CARTESIAN_POINT('',(-33.81820480682,-16.23935652577,
    -12.28341654738));
#335 = CARTESIAN_POINT('',(-33.37720046001,-17.13946387549,
    -13.12863159319));
#336 = CARTESIAN_POINT('',(-32.93678577561,-17.96923670459,
    -14.00984081353));
#337 = CARTESIAN_POINT('',(-32.50314366235,-18.73223482146,
    -14.92304762464));
#338 = CARTESIAN_POINT('',(-32.08177979788,-19.43137568907,
    -15.86594669268));
#339 = CARTESIAN_POINT('',(-31.26263286695,-20.72439439704,
    -17.83737510787));
#340 = CARTESIAN_POINT('',(-30.86573616498,-21.31485292133,
    -18.86799698862));
#341 = CARTESIAN_POINT('',(-30.49425647684,-21.84049469019,
    -19.92599824036));
#342 = CARTESIAN_POINT('',(-30.15475577952,-22.30156782594,
    -21.0087667814));
#343 = CARTESIAN_POINT('',(-29.8534846589,-22.6979086129,-22.11431027348
    ));
#344 = CARTESIAN_POINT('',(-29.37962355587,-23.30690969886,
    -24.18928945909));
#345 = CARTESIAN_POINT('',(-29.19419625729,-23.53874067491,
    -25.15253572295));
#346 = CARTESIAN_POINT('',(-29.04385925067,-23.72283681172,
    -26.12742438479));
#347 = CARTESIAN_POINT('',(-28.93168042004,-23.85850528518,
    -27.11087921011));
#348 = CARTESIAN_POINT('',(-28.85958979857,-23.94528059601,
    -28.1000951722));
#349 = CARTESIAN_POINT('',(-28.82358456835,-23.98856035976,
    -29.24375327546));
#350 = CARTESIAN_POINT('',(-28.8197707788,-23.99314191299,
    -29.39514703592));
#351 = CARTESIAN_POINT('',(-28.81691016685,-23.99657701425,
    -29.54657959336));
#352 = CARTESIAN_POINT('',(-28.81500429062,-23.99886518048,
    -29.69803804783));
#353 = CARTESIAN_POINT('',(-28.8140539297,-24.0000061695,-29.84950943133
    ));
#354 = CARTESIAN_POINT('',(-28.81405908513,-23.99999997996,
    -30.0009807079));
#355 = ORIENTED_EDGE('',*,*,#356,.T.);
#356 = EDGE_CURVE('',#265,#357,#359,.T.);
#357 = VERTEX_POINT('',#358);
#358 = CARTESIAN_POINT('',(-24.,-28.81405906844,-30.));
#359 = CIRCLE('',#360,37.5);
#360 = AXIS2_PLACEMENT_3D('',#361,#362,#363);
#361 = CARTESIAN_POINT('',(0.,0.,-30.));
#362 = DIRECTION('',(0.,0.,1.));
#363 = DIRECTION('',(1.,0.,0.));
#364 = ORIENTED_EDGE('',*,*,#365,.F.);
#365 = EDGE_CURVE('',#366,#357,#368,.T.);
#366 = VERTEX_POINT('',#367);
#367 = CARTESIAN_POINT('',(24.,-28.81405906844,-30.));
#368 = B_SPLINE_CURVE_WITH_KNOTS('',6,(#369,#370,#371,#372,#373,#374,
    #375,#376,#377,#378,#379,#380,#381,#382,#383,#384,#385,#386,#387,
    #388,#389,#390,#391,#392,#393,#394,#395,#396,#397,#398,#399,#400,
    #401,#402,#403,#404,#405,#406,#407,#408,#409,#410,#411,#412,#413,
    #414,#415,#416,#417,#418,#419,#420,#421,#422,#423,#424,#425,#426,
    #427,#428,#429,#430,#431,#432,#433,#434,#435,#436,#437,#438,#439,
    #440,#441,#442,#443,#444,#445,#446,#447,#448,#449,#450),
  .UNSPECIFIED.,.F.,.F.,(7,5,5,5,5,5,5,5,5,5,5,5,5,5,5,5,7),(0.,
    0.102008719931,0.205677111747,0.307988686271,0.345768363672,
    0.395741662085,0.435508518841,0.45710829061,0.500026314123,
    0.543133029785,0.564416821761,0.604104029023,0.654497640705,
    0.692422341351,0.7940288165,0.898609186259,1.),.UNSPECIFIED.);
#369 = CARTESIAN_POINT('',(24.,-28.81405906844,-30.));
#370 = CARTESIAN_POINT('',(24.,-28.81405906844,-28.84823358745));
#371 = CARTESIAN_POINT('',(23.933672229235,-28.86930517203,
    -27.69783835551));
#372 = CARTESIAN_POINT('',(23.801309310529,-28.97955410105,
    -26.55315107748));
#373 = CARTESIAN_POINT('',(23.603508327205,-29.1423675942,
    -25.41865890087));
#374 = CARTESIAN_POINT('',(23.341254260398,-29.35310561583,
    -24.29930324527));
#375 = CARTESIAN_POINT('',(22.686949735219,-29.86179522561,
    -22.08435421122));
#376 = CARTESIAN_POINT('',(22.292704785249,-30.16122815472,
    -20.98892649567));
#377 = CARTESIAN_POINT('',(21.834856393787,-30.49812846491,
    -19.91592114637));
#378 = CARTESIAN_POINT('',(21.313561041942,-30.86640610933,
    -18.86727820448));
#379 = CARTESIAN_POINT('',(20.728574915616,-31.25967188504,
    -17.84553643305));
#380 = CARTESIAN_POINT('',(19.438629036334,-32.0774880442,
    -15.87527089819));
#381 = CARTESIAN_POINT('',(18.735111093759,-32.50170673594,
    -14.92561532075));
#382 = CARTESIAN_POINT('',(17.966863378668,-32.93839996952,
    -14.00604818814));
#383 = CARTESIAN_POINT('',(17.130905631828,-33.38195078107,
    -13.1189180373));
#384 = CARTESIAN_POINT('',(16.223597885164,-33.82604453815,
    -12.26831336003));
#385 = CARTESIAN_POINT('',(14.878236350625,-34.42449367675,
    -11.16230689543));
#386 = CARTESIAN_POINT('',(14.505096136199,-34.58495292414,
    -10.86983111287));
#387 = CARTESIAN_POINT('',(14.121398156897,-34.74411368932,
    -10.58344490158));
#388 = CARTESIAN_POINT('',(13.726912735712,-34.90157664071,
    -10.30350330672));
#389 = CARTESIAN_POINT('',(13.321413621125,-35.05690997198,
    -10.0304171581));
#390 = CARTESIAN_POINT('',(12.35343772783,-35.41168253381,
    -9.413110395702));
#391 = CARTESIAN_POINT('',(11.782409665559,-35.60922259205,
    -9.074297087913));
#392 = CARTESIAN_POINT('',(11.191239132227,-35.80111934327,
    -8.74941914857));
#393 = CARTESIAN_POINT('',(10.57963738508,-35.98612193082,
    -8.439833995344));
#394 = CARTESIAN_POINT('',(9.947382077499,-36.16288146902,
    -8.147052147444));
#395 = CARTESIAN_POINT('',(8.774634385749,-36.4629063357,-7.654452078459
    ));
#396 = CARTESIAN_POINT('',(8.241677287487,-36.5897486888,-7.447819713459
    ));
#397 = CARTESIAN_POINT('',(7.695836548846,-36.70962871911,
    -7.253891685989));
#398 = CARTESIAN_POINT('',(7.137547137567,-36.82170704488,-7.07368585801
    ));
#399 = CARTESIAN_POINT('',(6.567289299204,-36.92516666288,
    -6.908193448525));
#400 = CARTESIAN_POINT('',(5.669632111466,-37.07030766159,
    -6.677013024227));
#401 = CARTESIAN_POINT('',(5.350351058444,-37.11861129528,
    -6.600282397888));
#402 = CARTESIAN_POINT('',(5.027933983642,-37.16399077023,
    -6.528370418011));
#403 = CARTESIAN_POINT('',(4.702572904482,-37.20631547546,
    -6.461441985844));
#404 = CARTESIAN_POINT('',(4.374463409574,-37.24546538081,
    -6.399648312884));
#405 = CARTESIAN_POINT('',(3.386796788653,-37.35259489501,
    -6.230820806832));
#406 = CARTESIAN_POINT('',(2.719434357537,-37.41092442547,
    -6.139280998894));
#407 = CARTESIAN_POINT('',(2.04420193538,-37.45533961878,-6.069780390393
    ));
#408 = CARTESIAN_POINT('',(1.363609832936,-37.48516966103,-6.02317307166
    ));
#409 = CARTESIAN_POINT('',(0.680193573407,-37.50006340441,
    -5.999900930599));
#410 = CARTESIAN_POINT('',(-0.69017269384,-37.49993599193,
    -6.000100012607));
#411 = CARTESIAN_POINT('',(-1.376568748993,-37.48478307864,
    -6.023777122781));
#412 = CARTESIAN_POINT('',(-2.060084234799,-37.45456458774,
    -6.070991864668));
#413 = CARTESIAN_POINT('',(-2.738153875065,-37.40963947124,
    -6.141292607105));
#414 = CARTESIAN_POINT('',(-3.408238243708,-37.35069137323,
    -6.233809020799));
#415 = CARTESIAN_POINT('',(-4.39349267392,-37.24318118599,
    -6.403254059511));
#416 = CARTESIAN_POINT('',(-4.716675405881,-37.20446092656,
    -6.464375290051));
#417 = CARTESIAN_POINT('',(-5.037182464667,-37.16266217906,
    -6.530476929839));
#418 = CARTESIAN_POINT('',(-5.354827208587,-37.11789997415,
    -6.601414075791));
#419 = CARTESIAN_POINT('',(-5.669426410038,-37.07029927549,
    -6.677028975789));
#420 = CARTESIAN_POINT('',(-6.561409122303,-36.92619416591,
    -6.906552062224));
#421 = CARTESIAN_POINT('',(-7.13062635483,-36.82302126478,
    -7.071578618045));
#422 = CARTESIAN_POINT('',(-7.687927802185,-36.71125800086,
    -7.251267267734));
#423 = CARTESIAN_POINT('',(-8.232834369155,-36.59171656071,
    -7.444632495589));
#424 = CARTESIAN_POINT('',(-8.764911890769,-36.46523154575,
    -7.650662068023));
#425 = CARTESIAN_POINT('',(-9.942602570381,-36.16430634466,
    -8.144678194831));
#426 = CARTESIAN_POINT('',(-10.58027219131,-35.98609600326,
    -8.439842896443));
#427 = CARTESIAN_POINT('',(-11.19693910432,-35.79950085853,
    -8.752097092217));
#428 = CARTESIAN_POINT('',(-11.79283189284,-35.605903863,-9.079892260665
    ));
#429 = CARTESIAN_POINT('',(-12.36824769139,-35.4065865473,
    -9.421838303079));
#430 = CARTESIAN_POINT('',(-13.34145607382,-35.04930430045,
    -10.04376000766));
#431 = CARTESIAN_POINT('',(-13.74804436478,-34.89328278306,
    -10.31818212261));
#432 = CARTESIAN_POINT('',(-14.1435422423,-34.7351305123,-10.59949754001
    ));
#433 = CARTESIAN_POINT('',(-14.52817874362,-34.57528334245,
    -10.88729224031));
#434 = CARTESIAN_POINT('',(-14.90218625564,-34.41414423674,
    -11.18120877089));
#435 = CARTESIAN_POINT('',(-16.23998366172,-33.81790173838,
    -12.28399457073));
#436 = CARTESIAN_POINT('',(-17.14003197845,-33.37690610193,
    -13.12921331155));
#437 = CARTESIAN_POINT('',(-17.96975044862,-32.93650293468,
    -14.01042289199));
#438 = CARTESIAN_POINT('',(-18.73269832427,-32.50287455197,
    -14.92362747769));
#439 = CARTESIAN_POINT('',(-19.43179251767,-32.08152624805,
    -15.86652216424));
#440 = CARTESIAN_POINT('',(-20.72472930704,-31.26240986491,
    -17.83794758397));
#441 = CARTESIAN_POINT('',(-21.31515153031,-30.86552856992,
    -18.86857144989));
#442 = CARTESIAN_POINT('',(-21.8407585961,-30.4940660913,-19.92657337498
    ));
#443 = CARTESIAN_POINT('',(-22.30179833026,-30.15458426045,
    -21.00934124764));
#444 = CARTESIAN_POINT('',(-22.69810682192,-29.85333342687,
    -22.11488264426));
#445 = CARTESIAN_POINT('',(-23.34941039446,-29.34655104527,
    -24.33419705399));
#446 = CARTESIAN_POINT('',(-23.60847538494,-29.13828038312,
    -25.44713123954));
#447 = CARTESIAN_POINT('',(-23.80385088305,-28.97743795545,
    -26.57494526787));
#448 = CARTESIAN_POINT('',(-23.93456958613,-28.86855774249,
    -27.71277927695));
#449 = CARTESIAN_POINT('',(-24.0000467448,-28.81402013344,-28.8562152196
    ));
#450 = CARTESIAN_POINT('',(-23.99999997997,-28.81405908512,
    -30.00098042459));
#451 = ORIENTED_EDGE('',*,*,#452,.T.);
#452 = EDGE_CURVE('',#366,#453,#455,.T.);
#453 = VERTEX_POINT('',#454);
#454 = CARTESIAN_POINT('',(28.814059068448,-24.,-30.));
#455 = CIRCLE('',#456,37.5);
#456 = AXIS2_PLACEMENT_3D('',#457,#458,#459);
#457 = CARTESIAN_POINT('',(0.,0.,-30.));
#458 = DIRECTION('',(0.,0.,1.));
#459 = DIRECTION('',(1.,0.,0.));
#460 = ORIENTED_EDGE('',*,*,#461,.F.);
#461 = EDGE_CURVE('',#108,#453,#462,.T.);
#462 = B_SPLINE_CURVE_WITH_KNOTS('',6,(#463,#464,#465,#466,#467,#468,
    #469,#470,#471,#472,#473,#474,#475,#476,#477,#478,#479,#480,#481,
    #482,#483,#484,#485,#486,#487,#488,#489,#490,#491,#492,#493,#494,
    #495,#496,#497,#498,#499),.UNSPECIFIED.,.F.,.F.,(7,5,5,5,5,5,5,7),(
    0.,0.12870540927,0.209625492961,0.310092641461,0.384767452048,
    0.58800217709,0.797183255734,1.),.UNSPECIFIED.);
#463 = CARTESIAN_POINT('',(37.5,0.,-6.));
#464 = CARTESIAN_POINT('',(37.5,-1.026557348456,-6.));
#465 = CARTESIAN_POINT('',(37.466277650643,-2.05116054281,
    -6.052691146655));
#466 = CARTESIAN_POINT('',(37.399074403784,-3.066156133234,
    -6.157696335442));
#467 = CARTESIAN_POINT('',(37.300076555725,-4.063943571472,
    -6.312892425958));
#468 = CARTESIAN_POINT('',(37.172395047686,-5.037109840918,
    -6.514419820645));
#469 = CARTESIAN_POINT('',(36.924768905239,-6.570459055517,
    -6.908819852399));
#470 = CARTESIAN_POINT('',(36.819442380112,-7.150505382284,
    -7.07730088043));
#471 = CARTESIAN_POINT('',(36.705206073503,-7.718149765391,
    -7.260995892085));
#472 = CARTESIAN_POINT('',(36.582918618743,-8.272899208235,
    -7.458864020839));
#473 = CARTESIAN_POINT('',(36.453460996441,-8.814309084313,
    -7.669838414076));
#474 = CARTESIAN_POINT('',(36.149206912584,-9.997121877884,
    -8.169667773273));
#475 = CARTESIAN_POINT('',(35.970975195175,-10.63123210883,
    -8.46508575057));
#476 = CARTESIAN_POINT('',(35.784493144005,-11.24448200397,
    -8.777390764229));
#477 = CARTESIAN_POINT('',(35.59112446935,-11.83710738816,-9.10505836769
    ));
#478 = CARTESIAN_POINT('',(35.392132017292,-12.40941082964,
    -9.446721755143));
#479 = CARTESIAN_POINT('',(35.03744799273,-13.37230935242,
    -10.06462190414));
#480 = CARTESIAN_POINT('',(34.883729343679,-13.7719042035,
    -10.33518211276));
#481 = CARTESIAN_POINT('',(34.72796496855,-14.16076137422,
    -10.61240440762));
#482 = CARTESIAN_POINT('',(34.570569682615,-14.53909958239,
    -10.89589551741));
#483 = CARTESIAN_POINT('',(34.411927471052,-14.90714059386,
    -11.18531524157));
#484 = CARTESIAN_POINT('',(33.818204806826,-16.23935652577,
    -12.28341654738));
#485 = CARTESIAN_POINT('',(33.377200460019,-17.13946387548,
    -13.12863159319));
#486 = CARTESIAN_POINT('',(32.936785775617,-17.96923670459,
    -14.00984081353));
#487 = CARTESIAN_POINT('',(32.503143662352,-18.73223482146,
    -14.92304762464));
#488 = CARTESIAN_POINT('',(32.081779797882,-19.43137568907,
    -15.86594669268));
#489 = CARTESIAN_POINT('',(31.262632866952,-20.72439439705,
    -17.83737510787));
#490 = CARTESIAN_POINT('',(30.86573616498,-21.31485292133,
    -18.86799698862));
#491 = CARTESIAN_POINT('',(30.494256476844,-21.84049469019,
    -19.92599824036));
#492 = CARTESIAN_POINT('',(30.154755779529,-22.30156782594,
    -21.0087667814));
#493 = CARTESIAN_POINT('',(29.853484658905,-22.6979086129,
    -22.11431027348));
#494 = CARTESIAN_POINT('',(29.346641282384,-23.34929815457,
    -24.33371475704));
#495 = CARTESIAN_POINT('',(29.13833611136,-23.60840769002,-25.4467404316
    ));
#496 = CARTESIAN_POINT('',(28.977466261926,-23.80381689942,
    -26.57464954915));
#497 = CARTESIAN_POINT('',(28.868567201017,-23.93455823031,
    -27.71258108388));
#498 = CARTESIAN_POINT('',(28.814020118817,-24.00004676237,
    -28.85611599987));
#499 = CARTESIAN_POINT('',(28.814059085137,-23.99999997996,
    -30.0009807079));
#500 = CYLINDRICAL_SURFACE('',#501,37.5);
#501 = AXIS2_PLACEMENT_3D('',#502,#503,#504);
#502 = CARTESIAN_POINT('',(0.,0.,0.));
#503 = DIRECTION('',(0.,0.,1.));
#504 = DIRECTION('',(1.,0.,0.));
#505 = ADVANCED_FACE('',(#506),#525,.F.);
#506 = FACE_BOUND('',#507,.T.);
#507 = EDGE_LOOP('',(#508,#516,#517,#518));
#508 = ORIENTED_EDGE('',*,*,#509,.F.);
#509 = EDGE_CURVE('',#44,#510,#512,.T.);
#510 = VERTEX_POINT('',#511);
#511 = CARTESIAN_POINT('',(2.54,-25.,-1.));
#512 = LINE('',#513,#514);
#513 = CARTESIAN_POINT('',(2.54,-25.,-1.));
#514 = VECTOR('',#515,1.);
#515 = DIRECTION('',(-0.707106781187,-0.,-0.707106781187));
#516 = ORIENTED_EDGE('',*,*,#43,.T.);
#517 = ORIENTED_EDGE('',*,*,#509,.T.);
#518 = ORIENTED_EDGE('',*,*,#519,.F.);
#519 = EDGE_CURVE('',#510,#510,#520,.T.);
#520 = CIRCLE('',#521,2.54);
#521 = AXIS2_PLACEMENT_3D('',#522,#523,#524);
#522 = CARTESIAN_POINT('',(0.,-25.,-1.));
#523 = DIRECTION('',(0.,0.,1.));
#524 = DIRECTION('',(1.,0.,-0.));
#525 = CONICAL_SURFACE('',#526,2.54,0.785398163397);
#526 = AXIS2_PLACEMENT_3D('',#527,#528,#529);
#527 = CARTESIAN_POINT('',(0.,-25.,-1.));
#528 = DIRECTION('',(0.,0.,1.));
#529 = DIRECTION('',(1.,0.,0.));
#530 = ADVANCED_FACE('',(#531),#550,.F.);
#531 = FACE_BOUND('',#532,.T.);
#532 = EDGE_LOOP('',(#533,#541,#542,#543));
#533 = ORIENTED_EDGE('',*,*,#534,.F.);
#534 = EDGE_CURVE('',#55,#535,#537,.T.);
#535 = VERTEX_POINT('',#536);
#536 = CARTESIAN_POINT('',(27.564054,-0.381754,-1.));
#537 = LINE('',#538,#539);
#538 = CARTESIAN_POINT('',(27.564054,-0.381754,-1.));
#539 = VECTOR('',#540,1.);
#540 = DIRECTION('',(-0.707106781187,-0.,-0.707106781187));
#541 = ORIENTED_EDGE('',*,*,#54,.T.);
#542 = ORIENTED_EDGE('',*,*,#534,.T.);
#543 = ORIENTED_EDGE('',*,*,#544,.F.);
#544 = EDGE_CURVE('',#535,#535,#545,.T.);
#545 = CIRCLE('',#546,2.54);
#546 = AXIS2_PLACEMENT_3D('',#547,#548,#549);
#547 = CARTESIAN_POINT('',(25.024054,-0.381754,-1.));
#548 = DIRECTION('',(0.,0.,1.));
#549 = DIRECTION('',(1.,0.,-0.));
#550 = CONICAL_SURFACE('',#551,2.54,0.785398163397);
#551 = AXIS2_PLACEMENT_3D('',#552,#553,#554);
#552 = CARTESIAN_POINT('',(25.024054,-0.381754,-1.));
#553 = DIRECTION('',(0.,0.,1.));
#554 = DIRECTION('',(1.,0.,0.));
#555 = ADVANCED_FACE('',(#556),#575,.F.);
#556 = FACE_BOUND('',#557,.T.);
#557 = EDGE_LOOP('',(#558,#566,#567,#568));
#558 = ORIENTED_EDGE('',*,*,#559,.F.);
#559 = EDGE_CURVE('',#66,#560,#562,.T.);
#560 = VERTEX_POINT('',#561);
#561 = CARTESIAN_POINT('',(2.54,25.,-1.));
#562 = LINE('',#563,#564);
#563 = CARTESIAN_POINT('',(2.54,25.,-1.));
#564 = VECTOR('',#565,1.);
#565 = DIRECTION('',(-0.707106781187,-0.,-0.707106781187));
#566 = ORIENTED_EDGE('',*,*,#65,.T.);
#567 = ORIENTED_EDGE('',*,*,#559,.T.);
#568 = ORIENTED_EDGE('',*,*,#569,.F.);
#569 = EDGE_CURVE('',#560,#560,#570,.T.);
#570 = CIRCLE('',#571,2.54);
#571 = AXIS2_PLACEMENT_3D('',#572,#573,#574);
#572 = CARTESIAN_POINT('',(0.,25.,-1.));
#573 = DIRECTION('',(0.,0.,1.));
#574 = DIRECTION('',(1.,0.,-0.));
#575 = CONICAL_SURFACE('',#576,2.54,0.785398163397);
#576 = AXIS2_PLACEMENT_3D('',#577,#578,#579);
#577 = CARTESIAN_POINT('',(0.,25.,-1.));
#578 = DIRECTION('',(0.,0.,1.));
#579 = DIRECTION('',(1.,0.,0.));
#580 = ADVANCED_FACE('',(#581),#600,.F.);
#581 = FACE_BOUND('',#582,.T.);
#582 = EDGE_LOOP('',(#583,#591,#592,#593));
#583 = ORIENTED_EDGE('',*,*,#584,.F.);
#584 = EDGE_CURVE('',#83,#585,#587,.T.);
#585 = VERTEX_POINT('',#586);
#586 = CARTESIAN_POINT('',(-22.46,0.,-3.));
#587 = LINE('',#588,#589);
#588 = CARTESIAN_POINT('',(-22.46,0.,0.));
#589 = VECTOR('',#590,1.);
#590 = DIRECTION('',(-6.E-17,0.,-1.));
#591 = ORIENTED_EDGE('',*,*,#92,.T.);
#592 = ORIENTED_EDGE('',*,*,#584,.T.);
#593 = ORIENTED_EDGE('',*,*,#594,.T.);
#594 = EDGE_CURVE('',#585,#585,#595,.T.);
#595 = CIRCLE('',#596,2.54);
#596 = AXIS2_PLACEMENT_3D('',#597,#598,#599);
#597 = CARTESIAN_POINT('',(-25.,0.,-3.));
#598 = DIRECTION('',(0.,0.,-1.));
#599 = DIRECTION('',(1.,0.,0.));
#600 = CYLINDRICAL_SURFACE('',#601,2.54);
#601 = AXIS2_PLACEMENT_3D('',#602,#603,#604);
#602 = CARTESIAN_POINT('',(-25.,0.,0.));
#603 = DIRECTION('',(-0.,-0.,-1.));
#604 = DIRECTION('',(1.,0.,0.));
#605 = ADVANCED_FACE('',(#606),#708,.F.);
#606 = FACE_BOUND('',#607,.F.);
#607 = EDGE_LOOP('',(#608,#609,#616,#659,#701,#707));
#608 = ORIENTED_EDGE('',*,*,#117,.F.);
#609 = ORIENTED_EDGE('',*,*,#610,.F.);
#610 = EDGE_CURVE('',#611,#118,#613,.T.);
#611 = VERTEX_POINT('',#612);
#612 = CARTESIAN_POINT('',(24.784067462787,24.,-30.));
#613 = B_SPLINE_CURVE_WITH_KNOTS('',1,(#614,#615),.UNSPECIFIED.,.F.,.F.,
  (2,2),(-240.4224332295,240.42243322951),.PIECEWISE_BEZIER_KNOTS.);
#614 = CARTESIAN_POINT('',(-240.4224332295,24.,-30.));
#615 = CARTESIAN_POINT('',(240.42243322951,24.,-30.));
#616 = ORIENTED_EDGE('',*,*,#617,.T.);
#617 = EDGE_CURVE('',#611,#618,#620,.T.);
#618 = VERTEX_POINT('',#619);
#619 = CARTESIAN_POINT('',(34.5,0.,-6.));
#620 = B_SPLINE_CURVE_WITH_KNOTS('',7,(#621,#622,#623,#624,#625,#626,
    #627,#628,#629,#630,#631,#632,#633,#634,#635,#636,#637,#638,#639,
    #640,#641,#642,#643,#644,#645,#646,#647,#648,#649,#650,#651,#652,
    #653,#654,#655,#656,#657,#658),.UNSPECIFIED.,.F.,.F.,(8,6,6,6,6,6,8)
  ,(0.,0.200908666466,0.424515498064,0.696194764623,0.795816562056,
    0.874277622816,1.),.UNSPECIFIED.);
#621 = CARTESIAN_POINT('',(24.784067462787,24.,-30.));
#622 = CARTESIAN_POINT('',(24.784067462787,24.,-29.01708909808));
#623 = CARTESIAN_POINT('',(24.829545580224,23.953035945127,
    -28.0357855907));
#624 = CARTESIAN_POINT('',(24.920233935208,23.859385451837,
    -27.05869051603));
#625 = CARTESIAN_POINT('',(25.054618783704,23.719487859923,
    -26.08846698104));
#626 = CARTESIAN_POINT('',(25.229927714445,23.534000268567,
    -25.12806724063));
#627 = CARTESIAN_POINT('',(25.442225452247,23.304016497998,
    -24.18087333694));
#628 = CARTESIAN_POINT('',(25.958621980115,22.728087449872,
    -22.21554636897));
#629 = CARTESIAN_POINT('',(26.270655310492,22.371672159768,
    -21.2004509334));
#630 = CARTESIAN_POINT('',(26.617415256895,21.963195976562,
    -20.20591012939));
#631 = CARTESIAN_POINT('',(26.993492364849,21.503095552525,
    -19.23269637505));
#632 = CARTESIAN_POINT('',(27.393510264143,20.9914181373,-18.28194015431
    ));
#633 = CARTESIAN_POINT('',(27.812177652042,20.427894842299,
    -17.35515157431));
#634 = CARTESIAN_POINT('',(28.76921807176,19.063519708683,
    -15.35962848047));
#635 = CARTESIAN_POINT('',(29.313829185263,18.237900561443,
    -14.30351975934));
#636 = CARTESIAN_POINT('',(29.870340420785,17.331664973575,
    -13.28579423258));
#637 = CARTESIAN_POINT('',(30.431167476532,16.339717126695,
    -12.30867790677));
#638 = CARTESIAN_POINT('',(30.98772727221,15.255874369341,
    -11.37725302278));
#639 = CARTESIAN_POINT('',(31.529431765167,14.073552773229,
    -10.50005675251));
#640 = CARTESIAN_POINT('',(32.231293468258,12.314701786839,
    -9.392741958589));
#641 = CARTESIAN_POINT('',(32.415910137087,11.828501717479,
    -9.104508576308));
#642 = CARTESIAN_POINT('',(32.596140273548,11.327752052357,
    -8.825828917736));
#643 = CARTESIAN_POINT('',(32.771241472405,10.812224782381,
    -8.557467036487));
#644 = CARTESIAN_POINT('',(32.940420042191,10.281721480047,
    -8.30026208207));
#645 = CARTESIAN_POINT('',(33.102831672945,9.736073487136,
    -8.055128753613));
#646 = CARTESIAN_POINT('',(33.3794618861,8.733358551089,-7.640281119335)
  );
#647 = CARTESIAN_POINT('',(33.496607697795,8.282028449231,
    -7.465579786408));
#648 = CARTESIAN_POINT('',(33.608503566653,7.821355331579,
    -7.299557207187));
#649 = CARTESIAN_POINT('',(33.714638965129,7.351562181725,
    -7.142806019973));
#650 = CARTESIAN_POINT('',(33.814510802187,6.872891459813,
    -6.995909313584));
#651 = CARTESIAN_POINT('',(33.907625414979,6.385605130248,
    -6.859441891962));
#652 = CARTESIAN_POINT('',(34.131102924492,5.095825403224,
    -6.532923644229));
#653 = CARTESIAN_POINT('',(34.250343993151,4.278962259735,
    -6.359780471991));
#654 = CARTESIAN_POINT('',(34.348603216569,3.443460280433,
    -6.217814068456));
#655 = CARTESIAN_POINT('',(34.42382202425,2.593507710413,-6.109505899858
    ));
#656 = CARTESIAN_POINT('',(34.474555343529,1.733384413492,
    -6.036576668573));
#657 = CARTESIAN_POINT('',(34.5,0.867428330391,-6.));
#658 = CARTESIAN_POINT('',(34.5,7.9E-15,-6.));
#659 = ORIENTED_EDGE('',*,*,#660,.T.);
#660 = EDGE_CURVE('',#618,#661,#663,.T.);
#661 = VERTEX_POINT('',#662);
#662 = CARTESIAN_POINT('',(24.784067462787,-24.,-30.));
#663 = B_SPLINE_CURVE_WITH_KNOTS('',6,(#664,#665,#666,#667,#668,#669,
    #670,#671,#672,#673,#674,#675,#676,#677,#678,#679,#680,#681,#682,
    #683,#684,#685,#686,#687,#688,#689,#690,#691,#692,#693,#694,#695,
    #696,#697,#698,#699,#700),.UNSPECIFIED.,.F.,.F.,(7,5,5,5,5,5,5,7),(
    0.,0.125392001318,0.205279766816,0.304195956667,0.378710367377,
    0.574703979067,0.798698955834,1.),.UNSPECIFIED.);
#664 = CARTESIAN_POINT('',(34.5,3.55E-15,-6.));
#665 = CARTESIAN_POINT('',(34.5,-1.009789795964,-6.));
#666 = CARTESIAN_POINT('',(34.46453289238,-2.017547828569,
    -6.050983932966));
#667 = CARTESIAN_POINT('',(34.393867184809,-3.015681223773,
    -6.152566049658));
#668 = CARTESIAN_POINT('',(34.28977114357,-3.996649097032,
    -6.302622912646));
#669 = CARTESIAN_POINT('',(34.155494605905,-4.953085529417,
    -6.497301879911));
#670 = CARTESIAN_POINT('',(33.893715178974,-6.467118153214,
    -6.879755566059));
#671 = CARTESIAN_POINT('',(33.781311953102,-7.044221310003,
    -7.044581291846));
#672 = CARTESIAN_POINT('',(33.659272417366,-7.608701835515,
    -7.224345354607));
#673 = CARTESIAN_POINT('',(33.528516129651,-8.160091953291,
    -7.417981378368));
#674 = CARTESIAN_POINT('',(33.389983157884,-8.697972803081,
    -7.624401462333));
#675 = CARTESIAN_POINT('',(33.064647360223,-9.870787504529,
    -8.112527959063));
#676 = CARTESIAN_POINT('',(32.874160574288,-10.49848881823,
    -8.40052462286));
#677 = CARTESIAN_POINT('',(32.674695468246,-11.10532377247,
    -8.704788983884));
#678 = CARTESIAN_POINT('',(32.467667219217,-11.69160529112,
    -9.023802094615));
#679 = CARTESIAN_POINT('',(32.254374722501,-12.25771310576,
    -9.356216978655));
#680 = CARTESIAN_POINT('',(31.871493798459,-13.21568588591,
    -9.960477602673));
#681 = CARTESIAN_POINT('',(31.704076031759,-13.61615404753,
    -10.22708015365));
#682 = CARTESIAN_POINT('',(31.534220868687,-14.00574795672,
    -10.50021002122));
#683 = CARTESIAN_POINT('',(31.362366086039,-14.38472075692,
    -10.77947053568));
#684 = CARTESIAN_POINT('',(31.188913565185,-14.75332873867,
    -11.06452414229));
#685 = CARTESIAN_POINT('',(30.554768405463,-16.05479404655,
    -12.1193711871));
#686 = CARTESIAN_POINT('',(30.086586195612,-16.92827960852,
    -12.92215986569));
#687 = CARTESIAN_POINT('',(29.616691518173,-17.73622536174,
    -13.75794413434));
#688 = CARTESIAN_POINT('',(29.15089373758,-18.48232600345,
    -14.62332500734));
#689 = CARTESIAN_POINT('',(28.694392470705,-19.16963064177,
    -15.5165519055));
#690 = CARTESIAN_POINT('',(27.747423055014,-20.52084128906,
    -17.48915517246));
#691 = CARTESIAN_POINT('',(27.26110298319,-21.16782720387,
    -18.57755264494));
#692 = CARTESIAN_POINT('',(26.802720566694,-21.74223191193,
    -19.69894479535));
#693 = CARTESIAN_POINT('',(26.381596347736,-22.24434199948,
    -20.85091086381));
#694 = CARTESIAN_POINT('',(26.007296130344,-22.67372338844,
    -22.03190674661));
#695 = CARTESIAN_POINT('',(25.403220525087,-23.34758807898,
    -24.32788821367));
#696 = CARTESIAN_POINT('',(25.162331797073,-23.60674607952,
    -25.43862779267));
#697 = CARTESIAN_POINT('',(24.975087519679,-23.80274147359,
    -26.56657528115));
#698 = CARTESIAN_POINT('',(24.847852473382,-23.93413089541,
    -27.70606893026));
#699 = CARTESIAN_POINT('',(24.784022032498,-24.00004691447,
    -28.85239379359));
#700 = CARTESIAN_POINT('',(24.784067482191,-23.99999997996,
    -30.0009807079));
#701 = ORIENTED_EDGE('',*,*,#702,.T.);
#702 = EDGE_CURVE('',#661,#453,#703,.T.);
#703 = LINE('',#704,#705);
#704 = CARTESIAN_POINT('',(0.,-24.,-30.));
#705 = VECTOR('',#706,1.);
#706 = DIRECTION('',(1.,0.,0.));
#707 = ORIENTED_EDGE('',*,*,#461,.F.);
#708 = CYLINDRICAL_SURFACE('',#709,24.);
#709 = AXIS2_PLACEMENT_3D('',#710,#711,#712);
#710 = CARTESIAN_POINT('',(0.,0.,-30.));
#711 = DIRECTION('',(1.,0.,0.));
#712 = DIRECTION('',(0.,1.,0.));
#713 = ADVANCED_FACE('',(#714),#732,.F.);
#714 = FACE_BOUND('',#715,.F.);
#715 = EDGE_LOOP('',(#716,#723,#724,#725));
#716 = ORIENTED_EDGE('',*,*,#717,.T.);
#717 = EDGE_CURVE('',#718,#366,#720,.T.);
#718 = VERTEX_POINT('',#719);
#719 = CARTESIAN_POINT('',(24.,-24.78406746278,-30.));
#720 = B_SPLINE_CURVE_WITH_KNOTS('',1,(#721,#722),.UNSPECIFIED.,.F.,.F.,
  (2,2),(-240.4224332295,240.42243322951),.PIECEWISE_BEZIER_KNOTS.);
#721 = CARTESIAN_POINT('',(24.,240.42243322951,-30.));
#722 = CARTESIAN_POINT('',(24.,-240.4224332295,-30.));
#723 = ORIENTED_EDGE('',*,*,#452,.T.);
#724 = ORIENTED_EDGE('',*,*,#702,.F.);
#725 = ORIENTED_EDGE('',*,*,#726,.T.);
#726 = EDGE_CURVE('',#661,#718,#727,.T.);
#727 = CIRCLE('',#728,34.5);
#728 = AXIS2_PLACEMENT_3D('',#729,#730,#731);
#729 = CARTESIAN_POINT('',(0.,0.,-30.));
#730 = DIRECTION('',(0.,0.,-1.));
#731 = DIRECTION('',(1.,0.,0.));
#732 = PLANE('',#733);
#733 = AXIS2_PLACEMENT_3D('',#734,#735,#736);
#734 = CARTESIAN_POINT('',(-3.5E-15,8.E-16,-30.));
#735 = DIRECTION('',(0.,0.,1.));
#736 = DIRECTION('',(1.,0.,0.));
#737 = ADVANCED_FACE('',(#738),#851,.F.);
#738 = FACE_BOUND('',#739,.F.);
#739 = EDGE_LOOP('',(#740,#741,#742,#845));
#740 = ORIENTED_EDGE('',*,*,#365,.F.);
#741 = ORIENTED_EDGE('',*,*,#717,.F.);
#742 = ORIENTED_EDGE('',*,*,#743,.T.);
#743 = EDGE_CURVE('',#718,#744,#746,.T.);
#744 = VERTEX_POINT('',#745);
#745 = CARTESIAN_POINT('',(-24.,-24.78406746278,-30.));
#746 = B_SPLINE_CURVE_WITH_KNOTS('',7,(#747,#748,#749,#750,#751,#752,
    #753,#754,#755,#756,#757,#758,#759,#760,#761,#762,#763,#764,#765,
    #766,#767,#768,#769,#770,#771,#772,#773,#774,#775,#776,#777,#778,
    #779,#780,#781,#782,#783,#784,#785,#786,#787,#788,#789,#790,#791,
    #792,#793,#794,#795,#796,#797,#798,#799,#800,#801,#802,#803,#804,
    #805,#806,#807,#808,#809,#810,#811,#812,#813,#814,#815,#816,#817,
    #818,#819,#820,#821,#822,#823,#824,#825,#826,#827,#828,#829,#830,
    #831,#832,#833,#834,#835,#836,#837,#838,#839,#840,#841,#842,#843,
    #844),.UNSPECIFIED.,.F.,.F.,(8,6,6,6,6,6,6,6,6,6,6,6,6,6,6,6,8),(0.,
    0.100415779232,0.212176285052,0.348552627043,0.397750142865,
    0.436966543049,0.457348816074,0.499897639693,0.542633944646,
    0.562646105866,0.601817712176,0.651445798053,0.688770261012,
    0.787311121529,0.899319368866,0.986724418194,1.),.UNSPECIFIED.);
#747 = CARTESIAN_POINT('',(24.,-24.78406746278,-30.));
#748 = CARTESIAN_POINT('',(24.,-24.78406746278,-29.01708911012));
#749 = CARTESIAN_POINT('',(23.953035946279,-24.8295455791,
    -28.03578561471));
#750 = CARTESIAN_POINT('',(23.859385455272,-24.92023393188,
    -27.05869055184));
#751 = CARTESIAN_POINT('',(23.719487866755,-25.05461877714,
    -26.08846702841));
#752 = CARTESIAN_POINT('',(23.534000279886,-25.22992770374,
    -25.12806729925));
#753 = CARTESIAN_POINT('',(23.304016514848,-25.44222543669,
    -24.18087340636));
#754 = CARTESIAN_POINT('',(22.728087481087,-25.95862195262,
    -22.21554646222));
#755 = CARTESIAN_POINT('',(22.371672200308,-26.27065527559,
    -21.20045103957));
#756 = CARTESIAN_POINT('',(21.963196027844,-26.617415214,-20.20591024777
    ));
#757 = CARTESIAN_POINT('',(21.503095615985,-26.99349231358,
    -19.23269650493));
#758 = CARTESIAN_POINT('',(20.991418214418,-27.39351020433,
    -18.28194029496));
#759 = CARTESIAN_POINT('',(20.427894934634,-27.81217758372,
    -17.35515172495));
#760 = CARTESIAN_POINT('',(19.060274392145,-28.77149450215,
    -15.35488188996));
#761 = CARTESIAN_POINT('',(18.230689184351,-29.31858756613,
    -14.29428869703));
#762 = CARTESIAN_POINT('',(17.319724806145,-29.87767520534,
    -13.27237885413));
#763 = CARTESIAN_POINT('',(16.322226919228,-30.44105508418,
    -12.29145483541));
#764 = CARTESIAN_POINT('',(15.231951567699,-31.00000104598,
    -11.35672127563));
#765 = CARTESIAN_POINT('',(14.042264073704,-31.54374388338,
    -10.47689118136));
#766 = CARTESIAN_POINT('',(12.279731542327,-32.24455067751,
    -9.372049950965));
#767 = CARTESIAN_POINT('',(11.798495775823,-32.42669484086,
    -9.08783622022));
#768 = CARTESIAN_POINT('',(11.303043605571,-32.60452316173,
    -8.812982983458));
#769 = CARTESIAN_POINT('',(10.79315729783,-32.77731721335,
    -8.548230742317));
#770 = CARTESIAN_POINT('',(10.268647483964,-32.94430980213,
    -8.294391355711));
#771 = CARTESIAN_POINT('',(9.72935333414,-33.10468562563,-8.052348480752
    ));
#772 = CARTESIAN_POINT('',(8.73336951474,-33.37945887042,-7.640285640599
    ));
#773 = CARTESIAN_POINT('',(8.282039311898,-33.49660506526,
    -7.465583689178));
#774 = CARTESIAN_POINT('',(7.821359841025,-33.60850276365,
    -7.299558369637));
#775 = CARTESIAN_POINT('',(7.351558292773,-33.71464005953,-7.14280438911
    ));
#776 = CARTESIAN_POINT('',(6.872881357756,-33.8145129028,-6.995906227943
    ));
#777 = CARTESIAN_POINT('',(6.385595254369,-33.90762711012,
    -6.859439415994));
#778 = CARTESIAN_POINT('',(5.632398419459,-34.03813201784,
    -6.668761463009));
#779 = CARTESIAN_POINT('',(5.372599959885,-34.0808012731,-6.606531783738
    ));
#780 = CARTESIAN_POINT('',(5.11068519092,-34.12143203053,-6.547374411435
    ));
#781 = CARTESIAN_POINT('',(4.846750222072,-34.15995223206,
    -6.491376018485));
#782 = CARTESIAN_POINT('',(4.580892459343,-34.1962938724,-6.438618309356
    ));
#783 = CARTESIAN_POINT('',(4.313210605229,-34.23039299905,
    -6.389178020604));
#784 = CARTESIAN_POINT('',(3.481408792159,-34.32856664397,
    -6.246993377876));
#785 = CARTESIAN_POINT('',(2.91125332049,-34.38493944458,-6.165587716083
    ));
#786 = CARTESIAN_POINT('',(2.334825320056,-34.43067876357,
    -6.099686255411));
#787 = CARTESIAN_POINT('',(1.753622919284,-34.46530456824,
    -6.049874189946));
#788 = CARTESIAN_POINT('',(1.169155155048,-34.4884889765,-6.016547532471
    ));
#789 = CARTESIAN_POINT('',(0.582941829043,-34.50005908939,
    -5.999915058991));
#790 = CARTESIAN_POINT('',(-0.592499059127,-34.49994029709,
    -6.000085822923));
#791 = CARTESIAN_POINT('',(-1.181276333647,-34.48814872848,
    -6.017036649522));
#792 = CARTESIAN_POINT('',(-1.768270023123,-34.4646418409,
    -6.050827110639));
#793 = CARTESIAN_POINT('',(-2.351942574437,-34.42959669652,
    -6.101243424476));
#794 = CARTESIAN_POINT('',(-2.93076747044,-34.38334778311,
    -6.167881650746));
#795 = CARTESIAN_POINT('',(-3.503229382749,-34.32638410048,
    -6.250145691549));
#796 = CARTESIAN_POINT('',(-4.332207616748,-34.22795438146,
    -6.392714194308));
#797 = CARTESIAN_POINT('',(-4.594922081963,-34.19434673513,
    -6.441445761233));
#798 = CARTESIAN_POINT('',(-4.855873339236,-34.15858019691,
    -6.493371832864));
#799 = CARTESIAN_POINT('',(-5.114968196557,-34.12071541378,
    -6.548419642246));
#800 = CARTESIAN_POINT('',(-5.372114650872,-34.08081679071,
    -6.606511815639));
#801 = CARTESIAN_POINT('',(-5.627221888082,-34.03895249061,
    -6.667566372522));
#802 = CARTESIAN_POINT('',(-6.375377689621,-33.90954284818,
    -6.856633365964));
#803 = CARTESIAN_POINT('',(-6.862258082695,-33.81665971896,-6.9927525849
    ));
#804 = CARTESIAN_POINT('',(-7.340555010832,-33.71702560336,
    -7.139288509111));
#805 = CARTESIAN_POINT('',(-7.810001492877,-33.61113305169,
    -7.295667415309));
#806 = CARTESIAN_POINT('',(-8.270349993567,-33.49948460216,
    -7.461306458046));
#807 = CARTESIAN_POINT('',(-8.721372399135,-33.38259077504,
    -7.635612397542));
#808 = CARTESIAN_POINT('',(-9.722198408708,-33.10687935905,
    -8.049029603838));
#809 = CARTESIAN_POINT('',(-10.26635640295,-32.94516598276,
    -8.293070477025));
#810 = CARTESIAN_POINT('',(-10.79546946177,-32.77671405651,
    -8.549120930908));
#811 = CARTESIAN_POINT('',(-11.30970277255,-32.60236055228,
    -8.816273781515));
#812 = CARTESIAN_POINT('',(-11.8092510391,-32.42289261487,
    -9.093696217894));
#813 = CARTESIAN_POINT('',(-12.29433829691,-32.23904688125,
    -9.380629342921));
#814 = CARTESIAN_POINT('',(-13.11935836443,-31.91046450911,
    -9.898822695752));
#815 = CARTESIAN_POINT('',(-13.46551487846,-31.76731087479,
    -10.12628243505));
#816 = CARTESIAN_POINT('',(-13.80383080757,-31.622322189,-10.35850401774
    ));
#817 = CARTESIAN_POINT('',(-14.13445099154,-31.47575632594,
    -10.59524968087));
#818 = CARTESIAN_POINT('',(-14.45752166747,-31.32785531619,
    -10.83630708857));
#819 = CARTESIAN_POINT('',(-14.77319056448,-31.178845921,-11.08148960784
    ));
#820 = CARTESIAN_POINT('',(-15.89586173592,-30.63317193782,
    -11.98841316057));
#821 = CARTESIAN_POINT('',(-16.65988477326,-30.23100066651,
    -12.67408119345));
#822 = CARTESIAN_POINT('',(-17.37596481172,-29.82650769175,
    -13.38441658083));
#823 = CARTESIAN_POINT('',(-18.04628769798,-29.42324645808,
    -14.11712536237));
#824 = CARTESIAN_POINT('',(-18.67281725552,-29.0244147548,
    -14.87070642663));
#825 = CARTESIAN_POINT('',(-19.25718404254,-28.63304356829,
    -15.64432033306));
#826 = CARTESIAN_POINT('',(-20.41824517161,-27.81931281352,-17.339432927
    ));
#827 = CARTESIAN_POINT('',(-20.98329370107,-27.39980530282,
    -18.26715593894));
#828 = CARTESIAN_POINT('',(-21.4963454663,-26.99894001287,
    -19.21892317976));
#829 = CARTESIAN_POINT('',(-21.95767755409,-26.62202643356,
    -20.19321961538));
#830 = CARTESIAN_POINT('',(-22.36724760994,-26.27446059196,
    -21.18891235983));
#831 = CARTESIAN_POINT('',(-22.72462066435,-25.96167361641,
    -22.20522846001));
#832 = CARTESIAN_POINT('',(-23.26616737244,-25.47620607855,
    -24.0505467777));
#833 = CARTESIAN_POINT('',(-23.47122363111,-25.2877691373,
    -24.87193474187));
#834 = CARTESIAN_POINT('',(-23.64281860964,-25.12681395211,
    -25.70350731204));
#835 = CARTESIAN_POINT('',(-23.78021992992,-24.99595375211,
    -26.54317448008));
#836 = CARTESIAN_POINT('',(-23.8829315402,-24.89719215558,
    -27.38907898554));
#837 = CARTESIAN_POINT('',(-23.95057780038,-24.83187143644,
    -28.23953742288));
#838 = CARTESIAN_POINT('',(-23.98775697052,-24.79591825343,
    -29.22260538748));
#839 = CARTESIAN_POINT('',(-23.99184247301,-24.79196528176,
    -29.35227537947));
#840 = CARTESIAN_POINT('',(-23.99511045509,-24.78880199749,
    -29.48198086061));
#841 = CARTESIAN_POINT('',(-23.99756043726,-24.78642984984,-29.611713002
    ));
#842 = CARTESIAN_POINT('',(-23.99919209939,-24.7848498056,
    -29.74146292978));
#843 = CARTESIAN_POINT('',(-24.00000528075,-24.78406234909,
    -29.87122172521));
#844 = CARTESIAN_POINT('',(-23.99999997997,-24.78406748218,
    -30.00098042459));
#845 = ORIENTED_EDGE('',*,*,#846,.T.);
#846 = EDGE_CURVE('',#744,#357,#847,.T.);
#847 = LINE('',#848,#849);
#848 = CARTESIAN_POINT('',(-24.,-6.66E-15,-30.));
#849 = VECTOR('',#850,1.);
#850 = DIRECTION('',(0.,-1.,2.2E-16));
#851 = CYLINDRICAL_SURFACE('',#852,24.);
#852 = AXIS2_PLACEMENT_3D('',#853,#854,#855);
#853 = CARTESIAN_POINT('',(0.,-6.66E-15,-30.));
#854 = DIRECTION('',(0.,-1.,2.2E-16));
#855 = DIRECTION('',(1.,0.,0.));
#856 = ADVANCED_FACE('',(#857),#876,.F.);
#857 = FACE_BOUND('',#858,.F.);
#858 = EDGE_LOOP('',(#859,#867,#868,#869));
#859 = ORIENTED_EDGE('',*,*,#860,.F.);
#860 = EDGE_CURVE('',#265,#861,#863,.T.);
#861 = VERTEX_POINT('',#862);
#862 = CARTESIAN_POINT('',(-24.78406746278,-24.,-30.));
#863 = LINE('',#864,#865);
#864 = CARTESIAN_POINT('',(0.,-24.,-30.));
#865 = VECTOR('',#866,1.);
#866 = DIRECTION('',(1.,0.,0.));
#867 = ORIENTED_EDGE('',*,*,#356,.T.);
#868 = ORIENTED_EDGE('',*,*,#846,.F.);
#869 = ORIENTED_EDGE('',*,*,#870,.T.);
#870 = EDGE_CURVE('',#744,#861,#871,.T.);
#871 = CIRCLE('',#872,34.5);
#872 = AXIS2_PLACEMENT_3D('',#873,#874,#875);
#873 = CARTESIAN_POINT('',(0.,0.,-30.));
#874 = DIRECTION('',(0.,0.,-1.));
#875 = DIRECTION('',(1.,0.,0.));
#876 = PLANE('',#877);
#877 = AXIS2_PLACEMENT_3D('',#878,#879,#880);
#878 = CARTESIAN_POINT('',(-3.5E-15,8.E-16,-30.));
#879 = DIRECTION('',(0.,0.,1.));
#880 = DIRECTION('',(1.,0.,0.));
#881 = ADVANCED_FACE('',(#882),#994,.F.);
#882 = FACE_BOUND('',#883,.F.);
#883 = EDGE_LOOP('',(#884,#987,#992,#993));
#884 = ORIENTED_EDGE('',*,*,#885,.F.);
#885 = EDGE_CURVE('',#886,#861,#888,.T.);
#886 = VERTEX_POINT('',#887);
#887 = CARTESIAN_POINT('',(-24.78406746278,24.,-30.));
#888 = B_SPLINE_CURVE_WITH_KNOTS('',7,(#889,#890,#891,#892,#893,#894,
    #895,#896,#897,#898,#899,#900,#901,#902,#903,#904,#905,#906,#907,
    #908,#909,#910,#911,#912,#913,#914,#915,#916,#917,#918,#919,#920,
    #921,#922,#923,#924,#925,#926,#927,#928,#929,#930,#931,#932,#933,
    #934,#935,#936,#937,#938,#939,#940,#941,#942,#943,#944,#945,#946,
    #947,#948,#949,#950,#951,#952,#953,#954,#955,#956,#957,#958,#959,
    #960,#961,#962,#963,#964,#965,#966,#967,#968,#969,#970,#971,#972,
    #973,#974,#975,#976,#977,#978,#979,#980,#981,#982,#983,#984,#985,
    #986),.UNSPECIFIED.,.F.,.F.,(8,6,6,6,6,6,6,6,6,6,6,6,6,6,6,6,8),(0.,
    0.100417956418,0.212180885531,0.347971327999,0.39776418899,
    0.436980513053,0.457362302095,0.499873965879,0.542608274421,
    0.562631228214,0.60181107758,0.651441654628,0.68876652449,
    0.787306796707,0.899313318252,0.986716455935,1.),.UNSPECIFIED.);
#889 = CARTESIAN_POINT('',(-24.78406746278,24.,-30.));
#890 = CARTESIAN_POINT('',(-24.78406746278,24.,-29.0170890988));
#891 = CARTESIAN_POINT('',(-24.82954558035,23.953035944984,
    -28.03578558905));
#892 = CARTESIAN_POINT('',(-24.92023393501,23.859385452046,
    -27.05869051699));
#893 = CARTESIAN_POINT('',(-25.05461878364,23.719487859989,
    -26.08846698204));
#894 = CARTESIAN_POINT('',(-25.22992771473,23.534000268251,
    -25.12806723903));
#895 = CARTESIAN_POINT('',(-25.44222545207,23.304016498194,
    -24.18087333761));
#896 = CARTESIAN_POINT('',(-25.95862198004,22.728087449948,
    -22.21554636923));
#897 = CARTESIAN_POINT('',(-26.27065531046,22.371672159805,
    -21.20045093343));
#898 = CARTESIAN_POINT('',(-26.61741525695,21.963195976494,
    -20.20591012919));
#899 = CARTESIAN_POINT('',(-26.99349236494,21.503095552407,
    -19.23269637485));
#900 = CARTESIAN_POINT('',(-27.39351026414,20.991418137282,
    -18.28194015434));
#901 = CARTESIAN_POINT('',(-27.81217765192,20.427894842463,
    -17.35515157455));
#902 = CARTESIAN_POINT('',(-28.76921807175,19.063519708686,
    -15.35962848047));
#903 = CARTESIAN_POINT('',(-29.31382918526,18.237900561439,
    -14.30351975933));
#904 = CARTESIAN_POINT('',(-29.87034042078,17.331664973571,
    -13.28579423259));
#905 = CARTESIAN_POINT('',(-30.43116747652,16.3397171267,-12.30867790678
    ));
#906 = CARTESIAN_POINT('',(-30.98772727221,15.255874369341,
    -11.37725302278));
#907 = CARTESIAN_POINT('',(-31.52943176516,14.073552773227,
    -10.50005675251));
#908 = CARTESIAN_POINT('',(-32.23129346827,12.314701786811,
    -9.392741958571));
#909 = CARTESIAN_POINT('',(-32.41591013708,11.828501717475,
    -9.104508576308));
#910 = CARTESIAN_POINT('',(-32.59614027353,11.327752052382,
    -8.825828917751));
#911 = CARTESIAN_POINT('',(-32.77124147239,10.812224782408,-8.5574670365
    ));
#912 = CARTESIAN_POINT('',(-32.94042004219,10.281721480044,
    -8.300262082066));
#913 = CARTESIAN_POINT('',(-33.10283167295,9.736073487098,
    -8.055128753597));
#914 = CARTESIAN_POINT('',(-33.3794618861,8.733358551089,-7.640281119335
    ));
#915 = CARTESIAN_POINT('',(-33.49660769779,8.282028449231,
    -7.465579786408));
#916 = CARTESIAN_POINT('',(-33.60850356665,7.821355331579,
    -7.299557207187));
#917 = CARTESIAN_POINT('',(-33.71463896512,7.351562181725,
    -7.142806019973));
#918 = CARTESIAN_POINT('',(-33.81451080218,6.872891459813,
    -6.995909313584));
#919 = CARTESIAN_POINT('',(-33.90762541497,6.385605130249,
    -6.859441891962));
#920 = CARTESIAN_POINT('',(-34.03813220672,5.632397281298,
    -6.668761187447));
#921 = CARTESIAN_POINT('',(-34.08080146476,5.372598749913,
    -6.606531504504));
#922 = CARTESIAN_POINT('',(-34.12143222375,5.110683908362,
    -6.547374130308));
#923 = CARTESIAN_POINT('',(-34.15995242556,4.84674886626,-6.491375737303
    ));
#924 = CARTESIAN_POINT('',(-34.19629406487,4.580891029714,
    -6.438618030011));
#925 = CARTESIAN_POINT('',(-34.23039318914,4.313209101329,
    -6.389177745032));
#926 = CARTESIAN_POINT('',(-34.32851042718,3.481884881158,
    -6.247074797082));
#927 = CARTESIAN_POINT('',(-34.38484376091,2.9122206762,-6.165725888103)
  );
#928 = CARTESIAN_POINT('',(-34.43056220733,2.336293541217,-6.09985419076
    ));
#929 = CARTESIAN_POINT('',(-34.46518685839,1.755597573794,
    -6.050043527594));
#930 = CARTESIAN_POINT('',(-34.48839041308,1.171637751392,
    -6.016689214801));
#931 = CARTESIAN_POINT('',(-34.5,0.585929789538,-6.));
#932 = CARTESIAN_POINT('',(-34.5,-0.588998457865,-6.));
#933 = CARTESIAN_POINT('',(-34.48826849089,-1.177769508187,
    -6.016864490949));
#934 = CARTESIAN_POINT('',(-34.46482156847,-1.764764322807,
    -6.05056862095));
#935 = CARTESIAN_POINT('',(-34.42983571453,-2.348444937092,
    -6.100899309785));
#936 = CARTESIAN_POINT('',(-34.38364488761,-2.927284402693,
    -6.16745325274));
#937 = CARTESIAN_POINT('',(-34.32673761374,-3.499766940295,
    -6.249634924426));
#938 = CARTESIAN_POINT('',(-34.22836926487,-4.328938605176,
    -6.392112674689));
#939 = CARTESIAN_POINT('',(-34.19476562745,-4.591819492568,
    -6.440837770603));
#940 = CARTESIAN_POINT('',(-34.15900012806,-4.852936106799,
    -6.492761618871));
#941 = CARTESIAN_POINT('',(-34.12113349777,-5.11219500841,
    -6.547811349449));
#942 = CARTESIAN_POINT('',(-34.0812302357,-5.369503966243,
    -6.605909473726));
#943 = CARTESIAN_POINT('',(-34.03935860893,-5.624771957438,
    -6.666973884526));
#944 = CARTESIAN_POINT('',(-33.90994784715,-6.373234575398,
    -6.856040013408));
#945 = CARTESIAN_POINT('',(-33.81707026928,-6.860250109694,
    -6.992149210753));
#946 = CARTESIAN_POINT('',(-33.71743867283,-7.338673293207,
    -7.138679328568));
#947 = CARTESIAN_POINT('',(-33.61154536868,-7.80824111658,
    -7.295057037993));
#948 = CARTESIAN_POINT('',(-33.49989223627,-8.268710010916,
    -7.460700537881));
#949 = CARTESIAN_POINT('',(-33.38298873513,-8.719855820481,
    -7.635018291801));
#950 = CARTESIAN_POINT('',(-33.10726548622,-9.720887716321,
    -8.048447316008));
#951 = CARTESIAN_POINT('',(-32.94555353194,-10.26511903246,
    -8.292482374626));
#952 = CARTESIAN_POINT('',(-32.77710045755,-10.7943030602,
    -8.548530576844));
#953 = CARTESIAN_POINT('',(-32.60274352031,-11.30860485675,
    -8.815684396533));
#954 = CARTESIAN_POINT('',(-32.42327014791,-11.80821901517,
    -9.09311068498));
#955 = CARTESIAN_POINT('',(-32.23941725554,-12.29336947932,
    -9.380050210402));
#956 = CARTESIAN_POINT('',(-31.91082533841,-13.11848153981,
    -9.898249918507));
#957 = CARTESIAN_POINT('',(-31.76767009149,-13.46466872823,
    -10.12570829115));
#958 = CARTESIAN_POINT('',(-31.6226791729,-13.803014469,-10.35792933001)
  );
#959 = CARTESIAN_POINT('',(-31.47611051158,-14.13366361203,
    -10.59467520596));
#960 = CARTESIAN_POINT('',(-31.32820618908,-14.45676240695,
    -10.83573352189));
#961 = CARTESIAN_POINT('',(-31.17919301386,-14.77245859776,
    -11.08091758853));
#962 = CARTESIAN_POINT('',(-30.63351040511,-15.89521244158,
    -11.98783781556));
#963 = CARTESIAN_POINT('',(-30.23133282208,-16.65928600226,
    -12.67350212574));
#964 = CARTESIAN_POINT('',(-29.82683162499,-17.37541280281,
    -13.38383564493));
#965 = CARTESIAN_POINT('',(-29.42356017679,-18.04577973295,
    -14.1165446394));
#966 = CARTESIAN_POINT('',(-29.02471634315,-18.67235105014,
    -14.87012810181));
#967 = CARTESIAN_POINT('',(-28.63333145379,-19.25675731642,
    -15.64374625776));
#968 = CARTESIAN_POINT('',(-27.81957344822,-20.41789141771,
    -17.33886087678));
#969 = CARTESIAN_POINT('',(-27.40005157513,-20.98297408537,
    -18.26658193849));
#970 = CARTESIAN_POINT('',(-26.99917017367,-21.49605846574,
    -19.21834815966));
#971 = CARTESIAN_POINT('',(-26.6222387585,-21.95742194952,
    -20.19264453918));
#972 = CARTESIAN_POINT('',(-26.27465342851,-22.36702239629,
    -21.18833825887));
#973 = CARTESIAN_POINT('',(-25.96184546798,-22.72442498318,
    -22.20465644473));
#974 = CARTESIAN_POINT('',(-25.47633975004,-23.26602136205,
    -24.04997534329));
#975 = CARTESIAN_POINT('',(-25.28788573157,-23.47109853455,-24.871361346
    ));
#976 = CARTESIAN_POINT('',(-25.12691247456,-23.64271441889,-25.702932783
    ));
#977 = CARTESIAN_POINT('',(-24.99603339074,-23.78013660765,
    -26.54259974891));
#978 = CARTESIAN_POINT('',(-24.89725234115,-23.88286900515,
    -27.38850509399));
#979 = CARTESIAN_POINT('',(-24.83191189592,-23.95053590518,
    -28.23896554469));
#980 = CARTESIAN_POINT('',(-24.79593311716,-23.98774160845,
    -29.22211795456));
#981 = CARTESIAN_POINT('',(-24.79197519228,-23.99183223447,
    -29.3518691213));
#982 = CARTESIAN_POINT('',(-24.78880794153,-23.99510431601,
    -29.48165584387));
#983 = CARTESIAN_POINT('',(-24.78643281778,-23.99755737237,
    -29.61146927687));
#984 = CARTESIAN_POINT('',(-24.78485079022,-23.99919108261,
    -29.7413005298));
#985 = CARTESIAN_POINT('',(-24.7840623444,-24.00000528559,
    -29.87114066705));
#986 = CARTESIAN_POINT('',(-24.78406748219,-23.99999997996,
    -30.0009807079));
#987 = ORIENTED_EDGE('',*,*,#988,.F.);
#988 = EDGE_CURVE('',#256,#886,#989,.T.);
#989 = B_SPLINE_CURVE_WITH_KNOTS('',1,(#990,#991),.UNSPECIFIED.,.F.,.F.,
  (2,2),(-240.4224332295,240.42243322951),.PIECEWISE_BEZIER_KNOTS.);
#990 = CARTESIAN_POINT('',(-240.4224332295,24.,-30.));
#991 = CARTESIAN_POINT('',(240.42243322951,24.,-30.));
#992 = ORIENTED_EDGE('',*,*,#264,.T.);
#993 = ORIENTED_EDGE('',*,*,#860,.T.);
#994 = CYLINDRICAL_SURFACE('',#995,24.);
#995 = AXIS2_PLACEMENT_3D('',#996,#997,#998);
#996 = CARTESIAN_POINT('',(0.,0.,-30.));
#997 = DIRECTION('',(1.,0.,0.));
#998 = DIRECTION('',(0.,1.,0.));
#999 = ADVANCED_FACE('',(#1000),#1019,.F.);
#1000 = FACE_BOUND('',#1001,.F.);
#1001 = EDGE_LOOP('',(#1002,#1010,#1011,#1012));
#1002 = ORIENTED_EDGE('',*,*,#1003,.F.);
#1003 = EDGE_CURVE('',#169,#1004,#1006,.T.);
#1004 = VERTEX_POINT('',#1005);
#1005 = CARTESIAN_POINT('',(-24.,24.784067462787,-30.));
#1006 = LINE('',#1007,#1008);
#1007 = CARTESIAN_POINT('',(-24.,-6.66E-15,-30.));
#1008 = VECTOR('',#1009,1.);
#1009 = DIRECTION('',(0.,-1.,2.2E-16));
#1010 = ORIENTED_EDGE('',*,*,#255,.T.);
#1011 = ORIENTED_EDGE('',*,*,#988,.T.);
#1012 = ORIENTED_EDGE('',*,*,#1013,.T.);
#1013 = EDGE_CURVE('',#886,#1004,#1014,.T.);
#1014 = CIRCLE('',#1015,34.5);
#1015 = AXIS2_PLACEMENT_3D('',#1016,#1017,#1018);
#1016 = CARTESIAN_POINT('',(0.,0.,-30.));
#1017 = DIRECTION('',(0.,0.,-1.));
#1018 = DIRECTION('',(1.,0.,0.));
#1019 = PLANE('',#1020);
#1020 = AXIS2_PLACEMENT_3D('',#1021,#1022,#1023);
#1021 = CARTESIAN_POINT('',(-3.5E-15,8.E-16,-30.));
#1022 = DIRECTION('',(0.,0.,1.));
#1023 = DIRECTION('',(1.,0.,0.));
#1024 = ADVANCED_FACE('',(#1025),#1131,.F.);
#1025 = FACE_BOUND('',#1026,.F.);
#1026 = EDGE_LOOP('',(#1027,#1124,#1129,#1130));
#1027 = ORIENTED_EDGE('',*,*,#1028,.F.);
#1028 = EDGE_CURVE('',#1029,#1004,#1031,.T.);
#1029 = VERTEX_POINT('',#1030);
#1030 = CARTESIAN_POINT('',(24.,24.784067462787,-30.));
#1031 = B_SPLINE_CURVE_WITH_KNOTS('',7,(#1032,#1033,#1034,#1035,#1036,
    #1037,#1038,#1039,#1040,#1041,#1042,#1043,#1044,#1045,#1046,#1047,
    #1048,#1049,#1050,#1051,#1052,#1053,#1054,#1055,#1056,#1057,#1058,
    #1059,#1060,#1061,#1062,#1063,#1064,#1065,#1066,#1067,#1068,#1069,
    #1070,#1071,#1072,#1073,#1074,#1075,#1076,#1077,#1078,#1079,#1080,
    #1081,#1082,#1083,#1084,#1085,#1086,#1087,#1088,#1089,#1090,#1091,
    #1092,#1093,#1094,#1095,#1096,#1097,#1098,#1099,#1100,#1101,#1102,
    #1103,#1104,#1105,#1106,#1107,#1108,#1109,#1110,#1111,#1112,#1113,
    #1114,#1115,#1116,#1117,#1118,#1119,#1120,#1121,#1122,#1123),
  .UNSPECIFIED.,.F.,.F.,(8,6,6,6,6,6,6,6,6,6,6,6,6,6,6,8),(0.,
    0.100418607691,0.212182261129,0.348562443757,0.397761344998,
    0.436978849531,0.457361695073,0.499911710535,0.542649212582,
    0.562661932887,0.601834630891,0.651464099866,0.688789603031,
    0.787333209826,0.899344578783,1.),.UNSPECIFIED.);
#1032 = CARTESIAN_POINT('',(24.,24.784067462787,-30.));
#1033 = CARTESIAN_POINT('',(24.,24.784067462787,-29.01708911339));
#1034 = CARTESIAN_POINT('',(23.953035945627,24.829545579703,
    -28.03578560719));
#1035 = CARTESIAN_POINT('',(23.859385456228,24.920233931015,
    -27.05869055622));
#1036 = CARTESIAN_POINT('',(23.719487867059,25.054618776859,
    -26.08846703296));
#1037 = CARTESIAN_POINT('',(23.534000278444,25.22992770505,
    -25.12806729193));
#1038 = CARTESIAN_POINT('',(23.30401651574,25.442225435892,
    -24.18087340941));
#1039 = CARTESIAN_POINT('',(22.728087481163,25.958621952556,
    -22.21554646248));
#1040 = CARTESIAN_POINT('',(22.371672200344,26.270655275568,
    -21.2004510396));
#1041 = CARTESIAN_POINT('',(21.963196027777,26.617415214064,
    -20.20591024757));
#1042 = CARTESIAN_POINT('',(21.503095615868,26.993492313672,
    -19.23269650473));
#1043 = CARTESIAN_POINT('',(20.991418214401,27.393510204335,
    -18.28194029499));
#1044 = CARTESIAN_POINT('',(20.427894934796,27.812177583606,
    -17.35515172519));
#1045 = CARTESIAN_POINT('',(19.060274393379,28.771494501285,
    -15.35488189176));
#1046 = CARTESIAN_POINT('',(18.230689181781,29.318587568175,
    -14.29428869265));
#1047 = CARTESIAN_POINT('',(17.319724806459,29.877675204084,
    -13.27237885744));
#1048 = CARTESIAN_POINT('',(16.322226923578,30.441055083028,
    -12.29145483649));
#1049 = CARTESIAN_POINT('',(15.231951562468,31.00000104797,
    -11.35672127268));
#1050 = CARTESIAN_POINT('',(14.04226407584,31.543743882535,
    -10.4768911827));
#1051 = CARTESIAN_POINT('',(12.279731542355,32.244550677503,
    -9.372049950983));
#1052 = CARTESIAN_POINT('',(11.798495775826,32.426694840866,
    -9.08783622022));
#1053 = CARTESIAN_POINT('',(11.303043605547,32.604523161739,
    -8.812982983444));
#1054 = CARTESIAN_POINT('',(10.793157297805,32.77731721336,
    -8.548230742306));
#1055 = CARTESIAN_POINT('',(10.268647483968,32.944309802135,
    -8.294391355715));
#1056 = CARTESIAN_POINT('',(9.729353334175,33.104685625625,
    -8.052348480766));
#1057 = CARTESIAN_POINT('',(8.733369514699,33.379458870432,
    -7.640285640582));
#1058 = CARTESIAN_POINT('',(8.282039311891,33.496605065261,
    -7.465583689177));
#1059 = CARTESIAN_POINT('',(7.821359841055,33.60850276365,
    -7.299558369649));
#1060 = CARTESIAN_POINT('',(7.351558292807,33.714640059523,
    -7.14280438912));
#1061 = CARTESIAN_POINT('',(6.872881357753,33.814512902802,
    -6.99590622794));
#1062 = CARTESIAN_POINT('',(6.385595254328,33.907627110133,
    -6.859439415984));
#1063 = CARTESIAN_POINT('',(5.632398437873,34.038132014654,
    -6.668761467671));
#1064 = CARTESIAN_POINT('',(5.372599960838,34.080801272443,
    -6.606531784716));
#1065 = CARTESIAN_POINT('',(5.110685174729,34.121432032678,
    -6.547374408318));
#1066 = CARTESIAN_POINT('',(4.846750206898,34.159952234493,
    -6.491376014935));
#1067 = CARTESIAN_POINT('',(4.580892462837,34.19629387246,
    -6.438618309254));
#1068 = CARTESIAN_POINT('',(4.313210626185,34.230392996584,
    -6.389178024186));
#1069 = CARTESIAN_POINT('',(3.481408792159,34.328566643972,
    -6.246993377876));
#1070 = CARTESIAN_POINT('',(2.911253320489,34.384939444589,
    -6.165587716083));
#1071 = CARTESIAN_POINT('',(2.334825320056,34.43067876357,
    -6.099686255411));
#1072 = CARTESIAN_POINT('',(1.753622919284,34.465304568248,
    -6.049874189946));
#1073 = CARTESIAN_POINT('',(1.169155155048,34.488488976501,
    -6.016547532471));
#1074 = CARTESIAN_POINT('',(0.582941829043,34.500059089397,
    -5.999915058991));
#1075 = CARTESIAN_POINT('',(-0.592499059128,34.499940297097,
    -6.000085822923));
#1076 = CARTESIAN_POINT('',(-1.181276333647,34.488148728481,
    -6.017036649522));
#1077 = CARTESIAN_POINT('',(-1.768270023122,34.464641840904,
    -6.050827110639));
#1078 = CARTESIAN_POINT('',(-2.351942574438,34.429596696521,
    -6.101243424477));
#1079 = CARTESIAN_POINT('',(-2.93076747044,34.383347783111,
    -6.167881650746));
#1080 = CARTESIAN_POINT('',(-3.503229382749,34.326384100484,
    -6.250145691549));
#1081 = CARTESIAN_POINT('',(-4.3322075972,34.227954383788,
    -6.392714190946));
#1082 = CARTESIAN_POINT('',(-4.594922078649,34.194346735099,
    -6.441445761302));
#1083 = CARTESIAN_POINT('',(-4.855873353315,34.158580194654,
    -6.493371836159));
#1084 = CARTESIAN_POINT('',(-5.114968211624,34.120715411781,
    -6.548419645159));
#1085 = CARTESIAN_POINT('',(-5.372114650029,34.080816791309,
    -6.606511814754));
#1086 = CARTESIAN_POINT('',(-5.627221871005,34.038952493565,
    -6.667566368207));
#1087 = CARTESIAN_POINT('',(-6.375377689512,33.909542848204,
    -6.856633365936));
#1088 = CARTESIAN_POINT('',(-6.86225808269,33.816659718966,
    -6.992752584894));
#1089 = CARTESIAN_POINT('',(-7.340555010919,33.717025603344,
    -7.139288509135));
#1090 = CARTESIAN_POINT('',(-7.810001492954,33.611133051676,
    -7.295667415339));
#1091 = CARTESIAN_POINT('',(-8.270349993544,33.499484602164,
    -7.461306458043));
#1092 = CARTESIAN_POINT('',(-8.721372399028,33.382590775076,
    -7.635612397498));
#1093 = CARTESIAN_POINT('',(-9.722198408708,33.106879359055,
    -8.049029603838));
#1094 = CARTESIAN_POINT('',(-10.26635640295,32.945165982763,
    -8.293070477025));
#1095 = CARTESIAN_POINT('',(-10.79546946177,32.776714056515,
    -8.549120930908));
#1096 = CARTESIAN_POINT('',(-11.30970277255,32.602360552282,
    -8.816273781515));
#1097 = CARTESIAN_POINT('',(-11.8092510391,32.422892614875,
    -9.093696217894));
#1098 = CARTESIAN_POINT('',(-12.29433829691,32.239046881257,
    -9.380629342921));
#1099 = CARTESIAN_POINT('',(-13.11935836443,31.910464509118,
    -9.898822695752));
#1100 = CARTESIAN_POINT('',(-13.46551487846,31.767310874791,
    -10.12628243505));
#1101 = CARTESIAN_POINT('',(-13.80383080757,31.622322189003,
    -10.35850401774));
#1102 = CARTESIAN_POINT('',(-14.13445099154,31.475756325949,
    -10.59524968087));
#1103 = CARTESIAN_POINT('',(-14.45752166747,31.327855316194,
    -10.83630708857));
#1104 = CARTESIAN_POINT('',(-14.77319056448,31.178845921,-11.08148960784
    ));
#1105 = CARTESIAN_POINT('',(-15.89586173605,30.633171937766,
    -11.98841316067));
#1106 = CARTESIAN_POINT('',(-16.65988477313,30.231000666575,
    -12.67408119336));
#1107 = CARTESIAN_POINT('',(-17.37596481165,29.826507691803,
    -13.38441658073));
#1108 = CARTESIAN_POINT('',(-18.04628769807,29.423246458035,
    -14.11712536245));
#1109 = CARTESIAN_POINT('',(-18.67281725559,29.02441475475,
    -14.87070642675));
#1110 = CARTESIAN_POINT('',(-19.25718404246,28.633043568351,
    -15.64432033294));
#1111 = CARTESIAN_POINT('',(-20.41824517178,27.819312813411,
    -17.33943292725));
#1112 = CARTESIAN_POINT('',(-20.98329370105,27.399805302823,
    -18.26715593897));
#1113 = CARTESIAN_POINT('',(-21.49634546618,26.998940012969,
    -19.21892317956));
#1114 = CARTESIAN_POINT('',(-21.95767755402,26.622026433632,
    -20.19321961518));
#1115 = CARTESIAN_POINT('',(-22.36724760998,26.274460591933,
    -21.18891235986));
#1116 = CARTESIAN_POINT('',(-22.72462066442,25.96167361635,
    -22.20522846028));
#1117 = CARTESIAN_POINT('',(-23.3021437906,25.443955151931,
    -24.17313628373));
#1118 = CARTESIAN_POINT('',(-23.5327818671,25.231080663378,
    -25.12169217717));
#1119 = CARTESIAN_POINT('',(-23.71879228811,25.055288152886,
    -26.08350745666));
#1120 = CARTESIAN_POINT('',(-23.85907576782,24.920534447957,
    -27.05518529734));
#1121 = CARTESIAN_POINT('',(-23.95297225321,24.829607254863,
    -28.03376158472));
#1122 = CARTESIAN_POINT('',(-24.00004019441,24.784028539959,
    -29.0165634511));
#1123 = CARTESIAN_POINT('',(-23.99999997997,24.78406748218,
    -30.00098042459));
#1124 = ORIENTED_EDGE('',*,*,#1125,.F.);
#1125 = EDGE_CURVE('',#160,#1029,#1126,.T.);
#1126 = B_SPLINE_CURVE_WITH_KNOTS('',1,(#1127,#1128),.UNSPECIFIED.,.F.,
  .F.,(2,2),(-240.4224332295,240.42243322951),.PIECEWISE_BEZIER_KNOTS.);
#1127 = CARTESIAN_POINT('',(24.,240.42243322951,-30.));
#1128 = CARTESIAN_POINT('',(24.,-240.4224332295,-30.));
#1129 = ORIENTED_EDGE('',*,*,#168,.T.);
#1130 = ORIENTED_EDGE('',*,*,#1003,.T.);
#1131 = CYLINDRICAL_SURFACE('',#1132,24.);
#1132 = AXIS2_PLACEMENT_3D('',#1133,#1134,#1135);
#1133 = CARTESIAN_POINT('',(0.,-6.66E-15,-30.));
#1134 = DIRECTION('',(0.,-1.,2.2E-16));
#1135 = DIRECTION('',(1.,0.,0.));
#1136 = ADVANCED_FACE('',(#1137),#1149,.F.);
#1137 = FACE_BOUND('',#1138,.F.);
#1138 = EDGE_LOOP('',(#1139,#1140,#1141,#1142));
#1139 = ORIENTED_EDGE('',*,*,#610,.T.);
#1140 = ORIENTED_EDGE('',*,*,#159,.T.);
#1141 = ORIENTED_EDGE('',*,*,#1125,.T.);
#1142 = ORIENTED_EDGE('',*,*,#1143,.T.);
#1143 = EDGE_CURVE('',#1029,#611,#1144,.T.);
#1144 = CIRCLE('',#1145,34.5);
#1145 = AXIS2_PLACEMENT_3D('',#1146,#1147,#1148);
#1146 = CARTESIAN_POINT('',(0.,0.,-30.));
#1147 = DIRECTION('',(0.,0.,-1.));
#1148 = DIRECTION('',(1.,0.,0.));
#1149 = PLANE('',#1150);
#1150 = AXIS2_PLACEMENT_3D('',#1151,#1152,#1153);
#1151 = CARTESIAN_POINT('',(-3.5E-15,8.E-16,-30.));
#1152 = DIRECTION('',(0.,0.,1.));
#1153 = DIRECTION('',(1.,0.,0.));
#1154 = ADVANCED_FACE('',(#1155),#1174,.F.);
#1155 = FACE_BOUND('',#1156,.T.);
#1156 = EDGE_LOOP('',(#1157,#1165,#1166,#1167));
#1157 = ORIENTED_EDGE('',*,*,#1158,.F.);
#1158 = EDGE_CURVE('',#510,#1159,#1161,.T.);
#1159 = VERTEX_POINT('',#1160);
#1160 = CARTESIAN_POINT('',(2.54,-25.,-3.));
#1161 = LINE('',#1162,#1163);
#1162 = CARTESIAN_POINT('',(2.54,-25.,0.));
#1163 = VECTOR('',#1164,1.);
#1164 = DIRECTION('',(-6.E-17,0.,-1.));
#1165 = ORIENTED_EDGE('',*,*,#519,.T.);
#1166 = ORIENTED_EDGE('',*,*,#1158,.T.);
#1167 = ORIENTED_EDGE('',*,*,#1168,.T.);
#1168 = EDGE_CURVE('',#1159,#1159,#1169,.T.);
#1169 = CIRCLE('',#1170,2.54);
#1170 = AXIS2_PLACEMENT_3D('',#1171,#1172,#1173);
#1171 = CARTESIAN_POINT('',(0.,-25.,-3.));
#1172 = DIRECTION('',(0.,0.,-1.));
#1173 = DIRECTION('',(1.,0.,0.));
#1174 = CYLINDRICAL_SURFACE('',#1175,2.54);
#1175 = AXIS2_PLACEMENT_3D('',#1176,#1177,#1178);
#1176 = CARTESIAN_POINT('',(0.,-25.,0.));
#1177 = DIRECTION('',(-0.,-0.,-1.));
#1178 = DIRECTION('',(1.,0.,0.));
#1179 = ADVANCED_FACE('',(#1180),#1199,.F.);
#1180 = FACE_BOUND('',#1181,.T.);
#1181 = EDGE_LOOP('',(#1182,#1190,#1191,#1192));
#1182 = ORIENTED_EDGE('',*,*,#1183,.F.);
#1183 = EDGE_CURVE('',#535,#1184,#1186,.T.);
#1184 = VERTEX_POINT('',#1185);
#1185 = CARTESIAN_POINT('',(27.564054,-0.381754,-3.));
#1186 = LINE('',#1187,#1188);
#1187 = CARTESIAN_POINT('',(27.564054,-0.381754,0.));
#1188 = VECTOR('',#1189,1.);
#1189 = DIRECTION('',(-6.E-17,0.,-1.));
#1190 = ORIENTED_EDGE('',*,*,#544,.T.);
#1191 = ORIENTED_EDGE('',*,*,#1183,.T.);
#1192 = ORIENTED_EDGE('',*,*,#1193,.T.);
#1193 = EDGE_CURVE('',#1184,#1184,#1194,.T.);
#1194 = CIRCLE('',#1195,2.54);
#1195 = AXIS2_PLACEMENT_3D('',#1196,#1197,#1198);
#1196 = CARTESIAN_POINT('',(25.024054,-0.381754,-3.));
#1197 = DIRECTION('',(0.,0.,-1.));
#1198 = DIRECTION('',(1.,0.,0.));
#1199 = CYLINDRICAL_SURFACE('',#1200,2.54);
#1200 = AXIS2_PLACEMENT_3D('',#1201,#1202,#1203);
#1201 = CARTESIAN_POINT('',(25.024054,-0.381754,0.));
#1202 = DIRECTION('',(-0.,-0.,-1.));
#1203 = DIRECTION('',(1.,0.,0.));
#1204 = ADVANCED_FACE('',(#1205),#1224,.F.);
#1205 = FACE_BOUND('',#1206,.T.);
#1206 = EDGE_LOOP('',(#1207,#1215,#1216,#1217));
#1207 = ORIENTED_EDGE('',*,*,#1208,.F.);
#1208 = EDGE_CURVE('',#560,#1209,#1211,.T.);
#1209 = VERTEX_POINT('',#1210);
#1210 = CARTESIAN_POINT('',(2.54,25.,-3.));
#1211 = LINE('',#1212,#1213);
#1212 = CARTESIAN_POINT('',(2.54,25.,0.));
#1213 = VECTOR('',#1214,1.);
#1214 = DIRECTION('',(-6.E-17,0.,-1.));
#1215 = ORIENTED_EDGE('',*,*,#569,.T.);
#1216 = ORIENTED_EDGE('',*,*,#1208,.T.);
#1217 = ORIENTED_EDGE('',*,*,#1218,.T.);
#1218 = EDGE_CURVE('',#1209,#1209,#1219,.T.);
#1219 = CIRCLE('',#1220,2.54);
#1220 = AXIS2_PLACEMENT_3D('',#1221,#1222,#1223);
#1221 = CARTESIAN_POINT('',(0.,25.,-3.));
#1222 = DIRECTION('',(0.,0.,-1.));
#1223 = DIRECTION('',(1.,0.,0.));
#1224 = CYLINDRICAL_SURFACE('',#1225,2.54);
#1225 = AXIS2_PLACEMENT_3D('',#1226,#1227,#1228);
#1226 = CARTESIAN_POINT('',(0.,25.,0.));
#1227 = DIRECTION('',(-0.,-0.,-1.));
#1228 = DIRECTION('',(1.,0.,0.));
#1229 = ADVANCED_FACE('',(#1230,#1241,#1244,#1247,#1250),#1253,.F.);
#1230 = FACE_BOUND('',#1231,.F.);
#1231 = EDGE_LOOP('',(#1232));
#1232 = ORIENTED_EDGE('',*,*,#1233,.F.);
#1233 = EDGE_CURVE('',#1234,#1234,#1236,.T.);
#1234 = VERTEX_POINT('',#1235);
#1235 = CARTESIAN_POINT('',(34.5,0.,-3.));
#1236 = CIRCLE('',#1237,34.5);
#1237 = AXIS2_PLACEMENT_3D('',#1238,#1239,#1240);
#1238 = CARTESIAN_POINT('',(0.,0.,-3.));
#1239 = DIRECTION('',(0.,0.,-1.));
#1240 = DIRECTION('',(1.,0.,0.));
#1241 = FACE_BOUND('',#1242,.F.);
#1242 = EDGE_LOOP('',(#1243));
#1243 = ORIENTED_EDGE('',*,*,#1168,.T.);
#1244 = FACE_BOUND('',#1245,.F.);
#1245 = EDGE_LOOP('',(#1246));
#1246 = ORIENTED_EDGE('',*,*,#1193,.T.);
#1247 = FACE_BOUND('',#1248,.F.);
#1248 = EDGE_LOOP('',(#1249));
#1249 = ORIENTED_EDGE('',*,*,#594,.T.);
#1250 = FACE_BOUND('',#1251,.F.);
#1251 = EDGE_LOOP('',(#1252));
#1252 = ORIENTED_EDGE('',*,*,#1218,.T.);
#1253 = PLANE('',#1254);
#1254 = AXIS2_PLACEMENT_3D('',#1255,#1256,#1257);
#1255 = CARTESIAN_POINT('',(-1.27E-15,-1.13E-15,-3.));
#1256 = DIRECTION('',(0.,0.,1.));
#1257 = DIRECTION('',(1.,0.,0.));
#1258 = ADVANCED_FACE('',(#1259),#1278,.F.);
#1259 = FACE_BOUND('',#1260,.F.);
#1260 = EDGE_LOOP('',(#1261,#1262,#1263,#1269,#1270,#1271,#1272,#1273,
    #1274,#1275,#1276,#1277));
#1261 = ORIENTED_EDGE('',*,*,#726,.F.);
#1262 = ORIENTED_EDGE('',*,*,#660,.F.);
#1263 = ORIENTED_EDGE('',*,*,#1264,.T.);
#1264 = EDGE_CURVE('',#618,#1234,#1265,.T.);
#1265 = LINE('',#1266,#1267);
#1266 = CARTESIAN_POINT('',(34.5,0.,-30.));
#1267 = VECTOR('',#1268,1.);
#1268 = DIRECTION('',(0.,0.,1.));
#1269 = ORIENTED_EDGE('',*,*,#1233,.T.);
#1270 = ORIENTED_EDGE('',*,*,#1264,.F.);
#1271 = ORIENTED_EDGE('',*,*,#617,.F.);
#1272 = ORIENTED_EDGE('',*,*,#1143,.F.);
#1273 = ORIENTED_EDGE('',*,*,#1028,.T.);
#1274 = ORIENTED_EDGE('',*,*,#1013,.F.);
#1275 = ORIENTED_EDGE('',*,*,#885,.T.);
#1276 = ORIENTED_EDGE('',*,*,#870,.F.);
#1277 = ORIENTED_EDGE('',*,*,#743,.F.);
#1278 = CYLINDRICAL_SURFACE('',#1279,34.5);
#1279 = AXIS2_PLACEMENT_3D('',#1280,#1281,#1282);
#1280 = CARTESIAN_POINT('',(0.,0.,-30.));
#1281 = DIRECTION('',(0.,0.,-1.));
#1282 = DIRECTION('',(1.,0.,0.));
#1283 = ( GEOMETRIC_REPRESENTATION_CONTEXT(3) 
GLOBAL_UNCERTAINTY_ASSIGNED_CONTEXT((#1287)) 
GLOBAL_UNIT_ASSIGNED_CONTEXT((#1284,#1285,#1286)) REPRESENTATION_CONTEXT
('Context #1','3D Context with UNIT and UNCERTAINTY') );
#1284 = ( LENGTH_UNIT() NAMED_UNIT(*) SI_UNIT(.MILLI.,.METRE.) );
#1285 = ( NAMED_UNIT(*) PLANE_ANGLE_UNIT() SI_UNIT($,.RADIAN.) );
#1286 = ( NAMED_UNIT(*) SI_UNIT($,.STERADIAN.) SOLID_ANGLE_UNIT() );
#1287 = UNCERTAINTY_MEASURE_WITH_UNIT(LENGTH_MEASURE(2.E-06),#1284,
  'distance_accuracy_value','confusion accuracy');
#1288 = PRODUCT_RELATED_PRODUCT_CATEGORY('part',$,(#7));
#1289 = MECHANICAL_DESIGN_GEOMETRIC_PRESENTATION_REPRESENTATION('',(
    #1290),#1283);
#1290 = STYLED_ITEM('color',(#1291),#15);
#1291 = PRESENTATION_STYLE_ASSIGNMENT((#1292,#1298));
#1292 = SURFACE_STYLE_USAGE(.BOTH.,#1293);
#1293 = SURFACE_SIDE_STYLE('',(#1294));
#1294 = SURFACE_STYLE_FILL_AREA(#1295);
#1295 = FILL_AREA_STYLE('',(#1296));
#1296 = FILL_AREA_STYLE_COLOUR('',#1297);
#1297 = COLOUR_RGB('',0.800000010877,0.800000010877,0.901960800373);
#1298 = CURVE_STYLE('',#1299,POSITIVE_LENGTH_MEASURE(0.1),#1300);
#1299 = DRAUGHTING_PRE_DEFINED_CURVE_FONT('continuous');
#1300 = COLOUR_RGB('',9.803921802644E-02,9.803921802644E-02,
  9.803921802644E-02);
ENDSEC;
END-ISO-10303-21;
