ISO-10303-21;
HEADER;
FILE_DESCRIPTION(('FreeCAD Model'),'2;1');
FILE_NAME('Open CASCADE Shape Model','2026-08-23T10:49:42',(''),(''),
  'Open CASCADE STEP processor 7.8','FreeCAD','Unknown');
FILE_SCHEMA(('AUTOMOTIVE_DESIGN { 1 0 10303 214 1 1 1 1 }'));
ENDSEC;
DATA;
#1 = APPLICATION_PROTOCOL_DEFINITION('international standard',
  'automotive_design',2000,#2);
#2 = APPLICATION_CONTEXT(
  'core data for automotive mechanical design processes');
#3 = SHAPE_DEFINITION_REPRESENTATION(#4,#10);
#4 = PRODUCT_DEFINITION_SHAPE('','',#5);
#5 = PRODUCT_DEFINITION('design','',#6,#9);
#6 = PRODUCT_DEFINITION_FORMATION('','',#7);
#7 = PRODUCT('Body','Body','',(#8));
#8 = PRODUCT_CONTEXT('',#2,'mechanical');
#9 = PRODUCT_DEFINITION_CONTEXT('part definition',#2,'design');
#10 = ADVANCED_BREP_SHAPE_REPRESENTATION('',(#11,#15),#990);
#11 = AXIS2_PLACEMENT_3D('',#12,#13,#14);
#12 = CARTESIAN_POINT('',(0.,0.,0.));
#13 = DIRECTION('',(0.,0.,1.));
#14 = DIRECTION('',(1.,0.,-0.));
#15 = MANIFOLD_SOLID_BREP('',#16);
#16 = CLOSED_SHELL('',(#17,#136,#167,#191,#215,#232,#618,#642,#789,#806,
    #823,#840,#871,#895,#919,#936,#948,#962,#975));
#17 = ADVANCED_FACE('',(#18,#52),#131,.T.);
#18 = FACE_BOUND('',#19,.T.);
#19 = EDGE_LOOP('',(#20,#30,#38,#46));
#20 = ORIENTED_EDGE('',*,*,#21,.T.);
#21 = EDGE_CURVE('',#22,#24,#26,.T.);
#22 = VERTEX_POINT('',#23);
#23 = CARTESIAN_POINT('',(-11.5,11.5,2.));
#24 = VERTEX_POINT('',#25);
#25 = CARTESIAN_POINT('',(-11.5,-11.5,2.));
#26 = LINE('',#27,#28);
#27 = CARTESIAN_POINT('',(-11.5,12.5,2.));
#28 = VECTOR('',#29,1.);
#29 = DIRECTION('',(0.,-1.,0.));
#30 = ORIENTED_EDGE('',*,*,#31,.T.);
#31 = EDGE_CURVE('',#24,#32,#34,.T.);
#32 = VERTEX_POINT('',#33);
#33 = CARTESIAN_POINT('',(11.5,-11.5,2.));
#34 = LINE('',#35,#36);
#35 = CARTESIAN_POINT('',(-12.5,-11.5,2.));
#36 = VECTOR('',#37,1.);
#37 = DIRECTION('',(1.,0.,0.));
#38 = ORIENTED_EDGE('',*,*,#39,.T.);
#39 = EDGE_CURVE('',#32,#40,#42,.T.);
#40 = VERTEX_POINT('',#41);
#41 = CARTESIAN_POINT('',(11.5,11.5,2.));
#42 = LINE('',#43,#44);
#43 = CARTESIAN_POINT('',(11.5,-12.5,2.));
#44 = VECTOR('',#45,1.);
#45 = DIRECTION('',(0.,1.,0.));
#46 = ORIENTED_EDGE('',*,*,#47,.T.);
#47 = EDGE_CURVE('',#40,#22,#48,.T.);
#48 = LINE('',#49,#50);
#49 = CARTESIAN_POINT('',(12.5,11.5,2.));
#50 = VECTOR('',#51,1.);
#51 = DIRECTION('',(-1.,0.,0.));
#52 = FACE_BOUND('',#53,.T.);
#53 = EDGE_LOOP('',(#54,#65,#73,#82,#90,#99,#107,#116,#125));
#54 = ORIENTED_EDGE('',*,*,#55,.F.);
#55 = EDGE_CURVE('',#56,#58,#60,.T.);
#56 = VERTEX_POINT('',#57);
#57 = CARTESIAN_POINT('',(-5.809475019311,-1.5,2.));
#58 = VERTEX_POINT('',#59);
#59 = CARTESIAN_POINT('',(5.809475019311,-1.5,2.));
#60 = CIRCLE('',#61,6.);
#61 = AXIS2_PLACEMENT_3D('',#62,#63,#64);
#62 = CARTESIAN_POINT('',(0.,0.,2.));
#63 = DIRECTION('',(0.,0.,1.));
#64 = DIRECTION('',(1.,0.,0.));
#65 = ORIENTED_EDGE('',*,*,#66,.T.);
#66 = EDGE_CURVE('',#56,#67,#69,.T.);
#67 = VERTEX_POINT('',#68);
#68 = CARTESIAN_POINT('',(-3.708099243548,-1.5,2.));
#69 = LINE('',#70,#71);
#70 = CARTESIAN_POINT('',(0.,-1.5,2.));
#71 = VECTOR('',#72,1.);
#72 = DIRECTION('',(1.,0.,0.));
#73 = ORIENTED_EDGE('',*,*,#74,.F.);
#74 = EDGE_CURVE('',#75,#67,#77,.T.);
#75 = VERTEX_POINT('',#76);
#76 = CARTESIAN_POINT('',(-3.708099243548,1.5,2.));
#77 = CIRCLE('',#78,4.);
#78 = AXIS2_PLACEMENT_3D('',#79,#80,#81);
#79 = CARTESIAN_POINT('',(0.,0.,2.));
#80 = DIRECTION('',(0.,0.,1.));
#81 = DIRECTION('',(1.,0.,0.));
#82 = ORIENTED_EDGE('',*,*,#83,.T.);
#83 = EDGE_CURVE('',#75,#84,#86,.T.);
#84 = VERTEX_POINT('',#85);
#85 = CARTESIAN_POINT('',(-5.809475019311,1.5,2.));
#86 = LINE('',#87,#88);
#87 = CARTESIAN_POINT('',(0.,1.5,2.));
#88 = VECTOR('',#89,1.);
#89 = DIRECTION('',(-1.,-0.,-0.));
#90 = ORIENTED_EDGE('',*,*,#91,.F.);
#91 = EDGE_CURVE('',#92,#84,#94,.T.);
#92 = VERTEX_POINT('',#93);
#93 = CARTESIAN_POINT('',(5.809475019311,1.5,2.));
#94 = CIRCLE('',#95,6.);
#95 = AXIS2_PLACEMENT_3D('',#96,#97,#98);
#96 = CARTESIAN_POINT('',(0.,0.,2.));
#97 = DIRECTION('',(0.,0.,1.));
#98 = DIRECTION('',(1.,0.,0.));
#99 = ORIENTED_EDGE('',*,*,#100,.T.);
#100 = EDGE_CURVE('',#92,#101,#103,.T.);
#101 = VERTEX_POINT('',#102);
#102 = CARTESIAN_POINT('',(3.708099243548,1.5,2.));
#103 = LINE('',#104,#105);
#104 = CARTESIAN_POINT('',(0.,1.5,2.));
#105 = VECTOR('',#106,1.);
#106 = DIRECTION('',(-1.,-0.,-0.));
#107 = ORIENTED_EDGE('',*,*,#108,.F.);
#108 = EDGE_CURVE('',#109,#101,#111,.T.);
#109 = VERTEX_POINT('',#110);
#110 = CARTESIAN_POINT('',(4.,0.,2.));
#111 = CIRCLE('',#112,4.);
#112 = AXIS2_PLACEMENT_3D('',#113,#114,#115);
#113 = CARTESIAN_POINT('',(0.,0.,2.));
#114 = DIRECTION('',(0.,0.,1.));
#115 = DIRECTION('',(1.,0.,0.));
#116 = ORIENTED_EDGE('',*,*,#117,.F.);
#117 = EDGE_CURVE('',#118,#109,#120,.T.);
#118 = VERTEX_POINT('',#119);
#119 = CARTESIAN_POINT('',(3.708099243548,-1.5,2.));
#120 = CIRCLE('',#121,4.);
#121 = AXIS2_PLACEMENT_3D('',#122,#123,#124);
#122 = CARTESIAN_POINT('',(0.,0.,2.));
#123 = DIRECTION('',(0.,0.,1.));
#124 = DIRECTION('',(1.,0.,0.));
#125 = ORIENTED_EDGE('',*,*,#126,.T.);
#126 = EDGE_CURVE('',#118,#58,#127,.T.);
#127 = LINE('',#128,#129);
#128 = CARTESIAN_POINT('',(0.,-1.5,2.));
#129 = VECTOR('',#130,1.);
#130 = DIRECTION('',(1.,0.,0.));
#131 = PLANE('',#132);
#132 = AXIS2_PLACEMENT_3D('',#133,#134,#135);
#133 = CARTESIAN_POINT('',(0.,0.,2.));
#134 = DIRECTION('',(0.,0.,1.));
#135 = DIRECTION('',(1.,0.,0.));
#136 = ADVANCED_FACE('',(#137),#162,.F.);
#137 = FACE_BOUND('',#138,.F.);
#138 = EDGE_LOOP('',(#139,#147,#148,#156));
#139 = ORIENTED_EDGE('',*,*,#140,.F.);
#140 = EDGE_CURVE('',#22,#141,#143,.T.);
#141 = VERTEX_POINT('',#142);
#142 = CARTESIAN_POINT('',(-12.5,12.5,1.));
#143 = LINE('',#144,#145);
#144 = CARTESIAN_POINT('',(-8.,8.,5.5));
#145 = VECTOR('',#146,1.);
#146 = DIRECTION('',(-0.57735026919,0.57735026919,-0.57735026919));
#147 = ORIENTED_EDGE('',*,*,#21,.T.);
#148 = ORIENTED_EDGE('',*,*,#149,.T.);
#149 = EDGE_CURVE('',#24,#150,#152,.T.);
#150 = VERTEX_POINT('',#151);
#151 = CARTESIAN_POINT('',(-12.5,-12.5,1.));
#152 = LINE('',#153,#154);
#153 = CARTESIAN_POINT('',(-8.,-8.,5.5));
#154 = VECTOR('',#155,1.);
#155 = DIRECTION('',(-0.57735026919,-0.57735026919,-0.57735026919));
#156 = ORIENTED_EDGE('',*,*,#157,.F.);
#157 = EDGE_CURVE('',#141,#150,#158,.T.);
#158 = LINE('',#159,#160);
#159 = CARTESIAN_POINT('',(-12.5,12.5,1.));
#160 = VECTOR('',#161,1.);
#161 = DIRECTION('',(0.,-1.,0.));
#162 = PLANE('',#163);
#163 = AXIS2_PLACEMENT_3D('',#164,#165,#166);
#164 = CARTESIAN_POINT('',(-12.,12.5,1.5));
#165 = DIRECTION('',(0.707106781187,-1.E-17,-0.707106781187));
#166 = DIRECTION('',(-7.071067811865E-18,-1.,7.071067811865E-18));
#167 = ADVANCED_FACE('',(#168),#186,.F.);
#168 = FACE_BOUND('',#169,.F.);
#169 = EDGE_LOOP('',(#170,#178,#179,#180));
#170 = ORIENTED_EDGE('',*,*,#171,.F.);
#171 = EDGE_CURVE('',#40,#172,#174,.T.);
#172 = VERTEX_POINT('',#173);
#173 = CARTESIAN_POINT('',(12.5,12.5,1.));
#174 = LINE('',#175,#176);
#175 = CARTESIAN_POINT('',(8.,8.,5.5));
#176 = VECTOR('',#177,1.);
#177 = DIRECTION('',(0.57735026919,0.57735026919,-0.57735026919));
#178 = ORIENTED_EDGE('',*,*,#47,.T.);
#179 = ORIENTED_EDGE('',*,*,#140,.T.);
#180 = ORIENTED_EDGE('',*,*,#181,.F.);
#181 = EDGE_CURVE('',#172,#141,#182,.T.);
#182 = LINE('',#183,#184);
#183 = CARTESIAN_POINT('',(12.5,12.5,1.));
#184 = VECTOR('',#185,1.);
#185 = DIRECTION('',(-1.,0.,0.));
#186 = PLANE('',#187);
#187 = AXIS2_PLACEMENT_3D('',#188,#189,#190);
#188 = CARTESIAN_POINT('',(12.5,12.,1.5));
#189 = DIRECTION('',(1.E-17,-0.707106781187,-0.707106781187));
#190 = DIRECTION('',(-1.,-7.071067811865E-18,-7.071067811865E-18));
#191 = ADVANCED_FACE('',(#192),#210,.F.);
#192 = FACE_BOUND('',#193,.F.);
#193 = EDGE_LOOP('',(#194,#195,#196,#204));
#194 = ORIENTED_EDGE('',*,*,#149,.F.);
#195 = ORIENTED_EDGE('',*,*,#31,.T.);
#196 = ORIENTED_EDGE('',*,*,#197,.T.);
#197 = EDGE_CURVE('',#32,#198,#200,.T.);
#198 = VERTEX_POINT('',#199);
#199 = CARTESIAN_POINT('',(12.5,-12.5,1.));
#200 = LINE('',#201,#202);
#201 = CARTESIAN_POINT('',(8.,-8.,5.5));
#202 = VECTOR('',#203,1.);
#203 = DIRECTION('',(0.57735026919,-0.57735026919,-0.57735026919));
#204 = ORIENTED_EDGE('',*,*,#205,.F.);
#205 = EDGE_CURVE('',#150,#198,#206,.T.);
#206 = LINE('',#207,#208);
#207 = CARTESIAN_POINT('',(-12.5,-12.5,1.));
#208 = VECTOR('',#209,1.);
#209 = DIRECTION('',(1.,0.,0.));
#210 = PLANE('',#211);
#211 = AXIS2_PLACEMENT_3D('',#212,#213,#214);
#212 = CARTESIAN_POINT('',(-12.5,-12.,1.5));
#213 = DIRECTION('',(-1.E-17,0.707106781187,-0.707106781187));
#214 = DIRECTION('',(1.,7.071067811865E-18,-7.071067811865E-18));
#215 = ADVANCED_FACE('',(#216),#227,.F.);
#216 = FACE_BOUND('',#217,.F.);
#217 = EDGE_LOOP('',(#218,#219,#220,#221));
#218 = ORIENTED_EDGE('',*,*,#197,.F.);
#219 = ORIENTED_EDGE('',*,*,#39,.T.);
#220 = ORIENTED_EDGE('',*,*,#171,.T.);
#221 = ORIENTED_EDGE('',*,*,#222,.F.);
#222 = EDGE_CURVE('',#198,#172,#223,.T.);
#223 = LINE('',#224,#225);
#224 = CARTESIAN_POINT('',(12.5,-12.5,1.));
#225 = VECTOR('',#226,1.);
#226 = DIRECTION('',(0.,1.,0.));
#227 = PLANE('',#228);
#228 = AXIS2_PLACEMENT_3D('',#229,#230,#231);
#229 = CARTESIAN_POINT('',(12.,-12.5,1.5));
#230 = DIRECTION('',(-0.707106781187,1.E-17,-0.707106781187));
#231 = DIRECTION('',(7.071067811865E-18,1.,7.071067811865E-18));
#232 = ADVANCED_FACE('',(#233),#613,.T.);
#233 = FACE_BOUND('',#234,.F.);
#234 = EDGE_LOOP('',(#235,#243,#252,#260,#417,#572,#573,#582,#588,#589,
    #597,#606,#612));
#235 = ORIENTED_EDGE('',*,*,#236,.F.);
#236 = EDGE_CURVE('',#237,#92,#239,.T.);
#237 = VERTEX_POINT('',#238);
#238 = CARTESIAN_POINT('',(5.809475019311,1.5,4.));
#239 = LINE('',#240,#241);
#240 = CARTESIAN_POINT('',(5.809475019311,1.5,2.));
#241 = VECTOR('',#242,1.);
#242 = DIRECTION('',(-0.,-0.,-1.));
#243 = ORIENTED_EDGE('',*,*,#244,.T.);
#244 = EDGE_CURVE('',#237,#245,#247,.T.);
#245 = VERTEX_POINT('',#246);
#246 = CARTESIAN_POINT('',(6.,0.,4.));
#247 = CIRCLE('',#248,6.);
#248 = AXIS2_PLACEMENT_3D('',#249,#250,#251);
#249 = CARTESIAN_POINT('',(0.,0.,4.));
#250 = DIRECTION('',(0.,0.,-1.));
#251 = DIRECTION('',(1.,0.,0.));
#252 = ORIENTED_EDGE('',*,*,#253,.T.);
#253 = EDGE_CURVE('',#245,#254,#256,.T.);
#254 = VERTEX_POINT('',#255);
#255 = CARTESIAN_POINT('',(6.,0.,6.));
#256 = LINE('',#257,#258);
#257 = CARTESIAN_POINT('',(6.,0.,2.));
#258 = VECTOR('',#259,1.);
#259 = DIRECTION('',(0.,0.,1.));
#260 = ORIENTED_EDGE('',*,*,#261,.T.);
#261 = EDGE_CURVE('',#254,#262,#264,.T.);
#262 = VERTEX_POINT('',#263);
#263 = CARTESIAN_POINT('',(-6.,1.E-15,6.));
#264 = B_SPLINE_CURVE_WITH_KNOTS('',7,(#265,#266,#267,#268,#269,#270,
    #271,#272,#273,#274,#275,#276,#277,#278,#279,#280,#281,#282,#283,
    #284,#285,#286,#287,#288,#289,#290,#291,#292,#293,#294,#295,#296,
    #297,#298,#299,#300,#301,#302,#303,#304,#305,#306,#307,#308,#309,
    #310,#311,#312,#313,#314,#315,#316,#317,#318,#319,#320,#321,#322,
    #323,#324,#325,#326,#327,#328,#329,#330,#331,#332,#333,#334,#335,
    #336,#337,#338,#339,#340,#341,#342,#343,#344,#345,#346,#347,#348,
    #349,#350,#351,#352,#353,#354,#355,#356,#357,#358,#359,#360,#361,
    #362,#363,#364,#365,#366,#367,#368,#369,#370,#371,#372,#373,#374,
    #375,#376,#377,#378,#379,#380,#381,#382,#383,#384,#385,#386,#387,
    #388,#389,#390,#391,#392,#393,#394,#395,#396,#397,#398,#399,#400,
    #401,#402,#403,#404,#405,#406,#407,#408,#409,#410,#411,#412,#413,
    #414,#415,#416),.UNSPECIFIED.,.T.,.F.,(8,6,6,6,6,6,6,6,6,6,6,6,6,6,6
    ,6,6,6,6,6,6,6,6,6,6,8),(0.,7.570121066291E-02,0.126540425348,
    0.143019451221,0.164349551479,0.191869128785,0.22691410862,
    0.274429712,0.30856026426,0.336203629908,0.35757818439,
    0.374078282822,0.423749947259,0.499954007774,0.539881459814,
    0.57562362171,0.664262413344,0.691792907336,0.726851789099,
    0.774386241365,0.808530332818,0.836184664265,0.857567697783,
    0.874074341612,0.923765710219,1.),.UNSPECIFIED.);
#265 = CARTESIAN_POINT('',(6.,-1.78E-15,6.));
#266 = CARTESIAN_POINT('',(6.,0.359700637206,6.));
#267 = CARTESIAN_POINT('',(5.974842100411,0.71905218589,5.986234807617)
  );
#268 = CARTESIAN_POINT('',(5.924613087606,1.076630141944,5.958751783337)
  );
#269 = CARTESIAN_POINT('',(5.849336445858,1.43098712684,5.918036465511)
  );
#270 = CARTESIAN_POINT('',(5.748989334027,1.780599145529,5.865012333122)
  );
#271 = CARTESIAN_POINT('',(5.6235468623,2.123813330602,5.801012146474));
#272 = CARTESIAN_POINT('',(5.371985856472,2.68376471707,5.678500105352)
  );
#273 = CARTESIAN_POINT('',(5.259577981639,2.905113515017,5.625068423604)
  );
#274 = CARTESIAN_POINT('',(5.135722979438,3.122514744452,5.567880080358)
  );
#275 = CARTESIAN_POINT('',(5.000258165829,3.33557973765,5.507435702686)
  );
#276 = CARTESIAN_POINT('',(4.8529756844,3.543841429384,5.444290994019));
#277 = CARTESIAN_POINT('',(4.693632953015,3.746735805023,5.379065443266)
  );
#278 = CARTESIAN_POINT('',(4.466318038153,4.007389522363,5.290858635585)
  );
#279 = CARTESIAN_POINT('',(4.409371853643,4.070567136779,5.269118047923)
  );
#280 = CARTESIAN_POINT('',(4.351113089714,4.133095034177,5.247252008162)
  );
#281 = CARTESIAN_POINT('',(4.291529791597,4.194950451649,5.225284151997)
  );
#282 = CARTESIAN_POINT('',(4.230609516959,4.256109021089,5.203239013597)
  );
#283 = CARTESIAN_POINT('',(4.168339335914,4.316544769189,5.181142025605)
  );
#284 = CARTESIAN_POINT('',(4.022339977011,4.453485561545,5.130384617748)
  );
#285 = CARTESIAN_POINT('',(3.937691089095,4.529482796624,5.101707401573)
  );
#286 = CARTESIAN_POINT('',(3.850728994987,4.604162599377,5.073044677598)
  );
#287 = CARTESIAN_POINT('',(3.761424519823,4.677458876176,5.044456919958)
  );
#288 = CARTESIAN_POINT('',(3.669749486165,4.74929866307,5.016008269939)
  );
#289 = CARTESIAN_POINT('',(3.575676713995,4.819602125779,4.987766535976)
  );
#290 = CARTESIAN_POINT('',(3.354682330668,4.976892387495,4.923725568543)
  );
#291 = CARTESIAN_POINT('',(3.226125006869,5.062818517281,4.888104153672)
  );
#292 = CARTESIAN_POINT('',(3.093476261735,5.145853331361,4.853100784722)
  );
#293 = CARTESIAN_POINT('',(2.956712702048,5.225774056052,4.818887396463)
  );
#294 = CARTESIAN_POINT('',(2.815819497227,5.302342474861,4.785645273558)
  );
#295 = CARTESIAN_POINT('',(2.670790547593,5.375304641654,4.753564301371)
  );
#296 = CARTESIAN_POINT('',(2.331677493775,5.532368536731,4.683718983775)
  );
#297 = CARTESIAN_POINT('',(2.134780718599,5.614172735871,4.646749291862)
  );
#298 = CARTESIAN_POINT('',(1.931338802448,5.689019916813,4.61243953456)
  );
#299 = CARTESIAN_POINT('',(1.721795100215,5.756191280111,4.581276825172)
  );
#300 = CARTESIAN_POINT('',(1.506635452708,5.815027907265,4.553717873166)
  );
#301 = CARTESIAN_POINT('',(1.286387793012,5.864926166683,4.530177860545)
  );
#302 = CARTESIAN_POINT('',(0.756873567286,5.960118733992,4.485043281078)
  );
#303 = CARTESIAN_POINT('',(0.444155827542,5.997396291628,4.467150565689)
  );
#304 = CARTESIAN_POINT('',(0.126681613733,6.015542756348,4.45836333528)
  );
#305 = CARTESIAN_POINT('',(-0.192226874878,6.013788107539,4.459212546276
    ));
#306 = CARTESIAN_POINT('',(-0.509214044898,5.992180194518,4.469665242013
    ));
#307 = CARTESIAN_POINT('',(-0.820966412746,5.951585170236,4.489127024168
    ));
#308 = CARTESIAN_POINT('',(-1.342164305152,5.852161354885,4.536195916734
    ));
#309 = CARTESIAN_POINT('',(-1.555598836529,5.801707652659,4.559955808491
    ));
#310 = CARTESIAN_POINT('',(-1.764089758489,5.742885169243,4.587454813382
    ));
#311 = CARTESIAN_POINT('',(-1.96717293835,5.676257912371,4.618304634326)
  );
#312 = CARTESIAN_POINT('',(-2.164422101289,5.602435061994,4.65208278992)
  );
#313 = CARTESIAN_POINT('',(-2.355449097724,5.522074906295,4.688342163393
    ));
#314 = CARTESIAN_POINT('',(-2.689299908232,5.366084027771,4.757623374842
    ));
#315 = CARTESIAN_POINT('',(-2.834521686664,5.292393651739,4.789979129249
    ));
#316 = CARTESIAN_POINT('',(-2.975569026229,5.215089768329,4.823488128101
    ));
#317 = CARTESIAN_POINT('',(-3.112450320328,5.134427983458,4.857958843242
    ));
#318 = CARTESIAN_POINT('',(-3.245182664236,5.050647670937,4.893208634901
    ));
#319 = CARTESIAN_POINT('',(-3.373791683804,4.963972253146,4.929064481568
    ));
#320 = CARTESIAN_POINT('',(-3.594593152938,4.805511910509,4.993431197833
    ));
#321 = CARTESIAN_POINT('',(-3.688444533701,4.734797098146,5.021767985292
    ));
#322 = CARTESIAN_POINT('',(-3.779892204692,4.662551342446,5.050302653673
    ));
#323 = CARTESIAN_POINT('',(-3.868963748864,4.588854096141,5.078967440664
    ));
#324 = CARTESIAN_POINT('',(-3.955687633891,4.513777966884,5.107698240209
    ));
#325 = CARTESIAN_POINT('',(-4.04009321217,4.437388717244,5.136434602507)
  );
#326 = CARTESIAN_POINT('',(-4.185601374263,4.299808361208,5.187263236175
    ));
#327 = CARTESIAN_POINT('',(-4.247627904143,4.239124654422,5.209375946781
    ));
#328 = CARTESIAN_POINT('',(-4.308303732327,4.177721521232,5.231431601454
    ));
#329 = CARTESIAN_POINT('',(-4.36764177457,4.115624752329,5.253404826536)
  );
#330 = CARTESIAN_POINT('',(-4.425654440518,4.052858552212,5.275271139087
    ));
#331 = CARTESIAN_POINT('',(-4.482353633706,3.989445539192,5.29700694689)
  );
#332 = CARTESIAN_POINT('',(-4.704517456615,3.732625260489,5.383561508849
    ));
#333 = CARTESIAN_POINT('',(-4.859535739846,3.534113587616,5.447164777229
    ));
#334 = CARTESIAN_POINT('',(-5.003052949421,3.330499647392,5.508757592432
    ));
#335 = CARTESIAN_POINT('',(-5.135293926517,3.122306941133,5.567763856993
    ));
#336 = CARTESIAN_POINT('',(-5.256451735609,2.909971034138,5.62366541572)
  );
#337 = CARTESIAN_POINT('',(-5.366678394763,2.693856038978,5.67599433427)
  );
#338 = CARTESIAN_POINT('',(-5.618566390779,2.137393640363,5.798472210282
    ));
#339 = CARTESIAN_POINT('',(-5.745670287905,1.792124019442,5.863258952978
    ));
#340 = CARTESIAN_POINT('',(-5.847343916128,1.440333456379,5.916958869473
    ));
#341 = CARTESIAN_POINT('',(-5.923614957076,1.083707489135,5.958205650063
    ));
#342 = CARTESIAN_POINT('',(-5.974508254746,0.723798439053,5.986052144711
    ));
#343 = CARTESIAN_POINT('',(-6.,0.362079435591,6.));
#344 = CARTESIAN_POINT('',(-6.,-0.189713109794,6.));
#345 = CARTESIAN_POINT('',(-5.993001774764,-0.379408798196,
    5.996171009759));
#346 = CARTESIAN_POINT('',(-5.979007492316,-0.568852419002,
    5.988513795794));
#347 = CARTESIAN_POINT('',(-5.958020163548,-0.757805247505,
    5.977067079646));
#348 = CARTESIAN_POINT('',(-5.930044666885,-0.946024379643,
    5.961906588868));
#349 = CARTESIAN_POINT('',(-5.895088772948,-1.133262631154,
    5.943144108018));
#350 = CARTESIAN_POINT('',(-5.81563420181,-1.485776672965,5.901037850489
    ));
#351 = CARTESIAN_POINT('',(-5.772521878686,-1.651288689128,
    5.878381419533));
#352 = CARTESIAN_POINT('',(-5.723826729626,-1.815666687311,
    5.853057556527));
#353 = CARTESIAN_POINT('',(-5.669543414283,-1.978764759837,
    5.825184965152));
#354 = CARTESIAN_POINT('',(-5.609662467603,-2.140428816527,
    5.794899935366));
#355 = CARTESIAN_POINT('',(-5.544171045239,-2.30049651196,5.762355545734
    ));
#356 = CARTESIAN_POINT('',(-5.29668609737,-2.851374972767,5.641828574511
    ));
#357 = CARTESIAN_POINT('',(-5.086042020417,-3.23236382274,5.543238426473
    ));
#358 = CARTESIAN_POINT('',(-4.840531395348,-3.600518476914,
    5.434329897209));
#359 = CARTESIAN_POINT('',(-4.558881499147,-3.953870992119,
    5.317836776077));
#360 = CARTESIAN_POINT('',(-4.239356594684,-4.289463065082,
    5.197015567341));
#361 = CARTESIAN_POINT('',(-3.880020078649,-4.602989165949,
    5.075960829474));
#362 = CARTESIAN_POINT('',(-3.354682330669,-4.976892387495,
    4.923725568543));
#363 = CARTESIAN_POINT('',(-3.22612500687,-5.062818517281,4.888104153672
    ));
#364 = CARTESIAN_POINT('',(-3.093476261736,-5.14585333136,4.853100784722
    ));
#365 = CARTESIAN_POINT('',(-2.956712702049,-5.225774056051,
    4.818887396463));
#366 = CARTESIAN_POINT('',(-2.815819497228,-5.30234247486,4.785645273558
    ));
#367 = CARTESIAN_POINT('',(-2.670790547594,-5.375304641653,
    4.753564301371));
#368 = CARTESIAN_POINT('',(-2.331677493748,-5.532368536744,
    4.683718983769));
#369 = CARTESIAN_POINT('',(-2.134780718597,-5.614172735868,
    4.646749291863));
#370 = CARTESIAN_POINT('',(-1.931338802476,-5.689019916801,
    4.612439534565));
#371 = CARTESIAN_POINT('',(-1.721795100244,-5.756191280105,
    4.581276825175));
#372 = CARTESIAN_POINT('',(-1.506635452705,-5.815027907269,
    4.553717873165));
#373 = CARTESIAN_POINT('',(-1.286387792974,-5.86492616669,4.530177860542
    ));
#374 = CARTESIAN_POINT('',(-0.756873567288,-5.960118733992,
    4.485043281078));
#375 = CARTESIAN_POINT('',(-0.444155827545,-5.997396291628,
    4.467150565689));
#376 = CARTESIAN_POINT('',(-0.126681613734,-6.015542756348,4.45836333528
    ));
#377 = CARTESIAN_POINT('',(0.192226874877,-6.013788107539,4.459212546276
    ));
#378 = CARTESIAN_POINT('',(0.509214044897,-5.992180194518,4.469665242013
    ));
#379 = CARTESIAN_POINT('',(0.820966412745,-5.951585170236,4.489127024168
    ));
#380 = CARTESIAN_POINT('',(1.34216430515,-5.852161354885,4.536195916734)
  );
#381 = CARTESIAN_POINT('',(1.555598836529,-5.80170765266,4.559955808491)
  );
#382 = CARTESIAN_POINT('',(1.76408975849,-5.742885169242,4.587454813382)
  );
#383 = CARTESIAN_POINT('',(1.967172938351,-5.67625791237,4.618304634326)
  );
#384 = CARTESIAN_POINT('',(2.164422101289,-5.602435061994,4.65208278992)
  );
#385 = CARTESIAN_POINT('',(2.355449097722,-5.522074906296,4.688342163392
    ));
#386 = CARTESIAN_POINT('',(2.689299908232,-5.366084027771,4.757623374842
    ));
#387 = CARTESIAN_POINT('',(2.834521686664,-5.292393651739,4.789979129249
    ));
#388 = CARTESIAN_POINT('',(2.975569026229,-5.215089768329,4.823488128101
    ));
#389 = CARTESIAN_POINT('',(3.112450320328,-5.134427983458,4.857958843242
    ));
#390 = CARTESIAN_POINT('',(3.245182664236,-5.050647670937,4.893208634901
    ));
#391 = CARTESIAN_POINT('',(3.373791683804,-4.963972253146,4.929064481568
    ));
#392 = CARTESIAN_POINT('',(3.594593152938,-4.80551191051,4.993431197833)
  );
#393 = CARTESIAN_POINT('',(3.688444533701,-4.734797098146,5.021767985292
    ));
#394 = CARTESIAN_POINT('',(3.779892204692,-4.662551342446,5.050302653673
    ));
#395 = CARTESIAN_POINT('',(3.868963748863,-4.588854096142,5.078967440663
    ));
#396 = CARTESIAN_POINT('',(3.955687633891,-4.513777966884,5.107698240209
    ));
#397 = CARTESIAN_POINT('',(4.04009321217,-4.437388717244,5.136434602507)
  );
#398 = CARTESIAN_POINT('',(4.185601374263,-4.299808361208,5.187263236175
    ));
#399 = CARTESIAN_POINT('',(4.247627904143,-4.239124654422,5.209375946781
    ));
#400 = CARTESIAN_POINT('',(4.308303732326,-4.177721521233,5.231431601454
    ));
#401 = CARTESIAN_POINT('',(4.36764177457,-4.115624752329,5.253404826536)
  );
#402 = CARTESIAN_POINT('',(4.425654440518,-4.052858552213,5.275271139087
    ));
#403 = CARTESIAN_POINT('',(4.482353633706,-3.989445539193,5.297006946889
    ));
#404 = CARTESIAN_POINT('',(4.70451745662,-3.732625260483,5.383561508851)
  );
#405 = CARTESIAN_POINT('',(4.859535739846,-3.534113587616,5.447164777229
    ));
#406 = CARTESIAN_POINT('',(5.003052949417,-3.330499647398,5.50875759243)
  );
#407 = CARTESIAN_POINT('',(5.135293926514,-3.122306941139,5.567763856991
    ));
#408 = CARTESIAN_POINT('',(5.25645173561,-2.909971034138,5.62366541572)
  );
#409 = CARTESIAN_POINT('',(5.366678394766,-2.693856038971,5.675994334272
    ));
#410 = CARTESIAN_POINT('',(5.618566390779,-2.137393640364,5.798472210282
    ));
#411 = CARTESIAN_POINT('',(5.745670287905,-1.792124019443,5.863258952978
    ));
#412 = CARTESIAN_POINT('',(5.847343916128,-1.440333456379,5.916958869473
    ));
#413 = CARTESIAN_POINT('',(5.923614957076,-1.083707489135,5.958205650063
    ));
#414 = CARTESIAN_POINT('',(5.974508254746,-0.723798439054,5.986052144711
    ));
#415 = CARTESIAN_POINT('',(6.,-0.362079435591,6.));
#416 = CARTESIAN_POINT('',(6.,-1.78E-15,6.));
#417 = ORIENTED_EDGE('',*,*,#418,.T.);
#418 = EDGE_CURVE('',#262,#254,#419,.T.);
#419 = B_SPLINE_CURVE_WITH_KNOTS('',7,(#420,#421,#422,#423,#424,#425,
    #426,#427,#428,#429,#430,#431,#432,#433,#434,#435,#436,#437,#438,
    #439,#440,#441,#442,#443,#444,#445,#446,#447,#448,#449,#450,#451,
    #452,#453,#454,#455,#456,#457,#458,#459,#460,#461,#462,#463,#464,
    #465,#466,#467,#468,#469,#470,#471,#472,#473,#474,#475,#476,#477,
    #478,#479,#480,#481,#482,#483,#484,#485,#486,#487,#488,#489,#490,
    #491,#492,#493,#494,#495,#496,#497,#498,#499,#500,#501,#502,#503,
    #504,#505,#506,#507,#508,#509,#510,#511,#512,#513,#514,#515,#516,
    #517,#518,#519,#520,#521,#522,#523,#524,#525,#526,#527,#528,#529,
    #530,#531,#532,#533,#534,#535,#536,#537,#538,#539,#540,#541,#542,
    #543,#544,#545,#546,#547,#548,#549,#550,#551,#552,#553,#554,#555,
    #556,#557,#558,#559,#560,#561,#562,#563,#564,#565,#566,#567,#568,
    #569,#570,#571),.UNSPECIFIED.,.T.,.F.,(8,6,6,6,6,6,6,6,6,6,6,6,6,6,6
    ,6,6,6,6,6,6,6,6,6,6,8),(0.,7.570121066291E-02,0.126540425348,
    0.143019451221,0.164349551479,0.191869128785,0.22691410862,
    0.274429712,0.30856026426,0.336203629908,0.35757818439,
    0.374078282822,0.423749947259,0.499954007774,0.539881459814,
    0.57562362171,0.664262413344,0.691792907336,0.726851789099,
    0.774386241365,0.808530332818,0.836184664265,0.857567697783,
    0.874074341612,0.923765710219,1.),.UNSPECIFIED.);
#420 = CARTESIAN_POINT('',(6.,-1.78E-15,6.));
#421 = CARTESIAN_POINT('',(6.,0.359700637206,6.));
#422 = CARTESIAN_POINT('',(5.974842100411,0.71905218589,5.986234807617)
  );
#423 = CARTESIAN_POINT('',(5.924613087606,1.076630141944,5.958751783337)
  );
#424 = CARTESIAN_POINT('',(5.849336445858,1.43098712684,5.918036465511)
  );
#425 = CARTESIAN_POINT('',(5.748989334027,1.780599145529,5.865012333122)
  );
#426 = CARTESIAN_POINT('',(5.6235468623,2.123813330602,5.801012146474));
#427 = CARTESIAN_POINT('',(5.371985856472,2.68376471707,5.678500105352)
  );
#428 = CARTESIAN_POINT('',(5.259577981639,2.905113515017,5.625068423604)
  );
#429 = CARTESIAN_POINT('',(5.135722979438,3.122514744452,5.567880080358)
  );
#430 = CARTESIAN_POINT('',(5.000258165829,3.33557973765,5.507435702686)
  );
#431 = CARTESIAN_POINT('',(4.8529756844,3.543841429384,5.444290994019));
#432 = CARTESIAN_POINT('',(4.693632953015,3.746735805023,5.379065443266)
  );
#433 = CARTESIAN_POINT('',(4.466318038153,4.007389522363,5.290858635585)
  );
#434 = CARTESIAN_POINT('',(4.409371853643,4.070567136779,5.269118047923)
  );
#435 = CARTESIAN_POINT('',(4.351113089714,4.133095034177,5.247252008162)
  );
#436 = CARTESIAN_POINT('',(4.291529791597,4.194950451649,5.225284151997)
  );
#437 = CARTESIAN_POINT('',(4.230609516959,4.256109021089,5.203239013597)
  );
#438 = CARTESIAN_POINT('',(4.168339335914,4.316544769189,5.181142025605)
  );
#439 = CARTESIAN_POINT('',(4.022339977011,4.453485561545,5.130384617748)
  );
#440 = CARTESIAN_POINT('',(3.937691089095,4.529482796624,5.101707401573)
  );
#441 = CARTESIAN_POINT('',(3.850728994987,4.604162599377,5.073044677598)
  );
#442 = CARTESIAN_POINT('',(3.761424519823,4.677458876176,5.044456919958)
  );
#443 = CARTESIAN_POINT('',(3.669749486165,4.74929866307,5.016008269939)
  );
#444 = CARTESIAN_POINT('',(3.575676713995,4.819602125779,4.987766535976)
  );
#445 = CARTESIAN_POINT('',(3.354682330668,4.976892387495,4.923725568543)
  );
#446 = CARTESIAN_POINT('',(3.226125006869,5.062818517281,4.888104153672)
  );
#447 = CARTESIAN_POINT('',(3.093476261735,5.145853331361,4.853100784722)
  );
#448 = CARTESIAN_POINT('',(2.956712702048,5.225774056052,4.818887396463)
  );
#449 = CARTESIAN_POINT('',(2.815819497227,5.302342474861,4.785645273558)
  );
#450 = CARTESIAN_POINT('',(2.670790547593,5.375304641654,4.753564301371)
  );
#451 = CARTESIAN_POINT('',(2.331677493775,5.532368536731,4.683718983775)
  );
#452 = CARTESIAN_POINT('',(2.134780718599,5.614172735871,4.646749291862)
  );
#453 = CARTESIAN_POINT('',(1.931338802448,5.689019916813,4.61243953456)
  );
#454 = CARTESIAN_POINT('',(1.721795100215,5.756191280111,4.581276825172)
  );
#455 = CARTESIAN_POINT('',(1.506635452708,5.815027907265,4.553717873166)
  );
#456 = CARTESIAN_POINT('',(1.286387793012,5.864926166683,4.530177860545)
  );
#457 = CARTESIAN_POINT('',(0.756873567286,5.960118733992,4.485043281078)
  );
#458 = CARTESIAN_POINT('',(0.444155827542,5.997396291628,4.467150565689)
  );
#459 = CARTESIAN_POINT('',(0.126681613733,6.015542756348,4.45836333528)
  );
#460 = CARTESIAN_POINT('',(-0.192226874878,6.013788107539,4.459212546276
    ));
#461 = CARTESIAN_POINT('',(-0.509214044898,5.992180194518,4.469665242013
    ));
#462 = CARTESIAN_POINT('',(-0.820966412746,5.951585170236,4.489127024168
    ));
#463 = CARTESIAN_POINT('',(-1.342164305152,5.852161354885,4.536195916734
    ));
#464 = CARTESIAN_POINT('',(-1.555598836529,5.801707652659,4.559955808491
    ));
#465 = CARTESIAN_POINT('',(-1.764089758489,5.742885169243,4.587454813382
    ));
#466 = CARTESIAN_POINT('',(-1.96717293835,5.676257912371,4.618304634326)
  );
#467 = CARTESIAN_POINT('',(-2.164422101289,5.602435061994,4.65208278992)
  );
#468 = CARTESIAN_POINT('',(-2.355449097724,5.522074906295,4.688342163393
    ));
#469 = CARTESIAN_POINT('',(-2.689299908232,5.366084027771,4.757623374842
    ));
#470 = CARTESIAN_POINT('',(-2.834521686664,5.292393651739,4.789979129249
    ));
#471 = CARTESIAN_POINT('',(-2.975569026229,5.215089768329,4.823488128101
    ));
#472 = CARTESIAN_POINT('',(-3.112450320328,5.134427983458,4.857958843242
    ));
#473 = CARTESIAN_POINT('',(-3.245182664236,5.050647670937,4.893208634901
    ));
#474 = CARTESIAN_POINT('',(-3.373791683804,4.963972253146,4.929064481568
    ));
#475 = CARTESIAN_POINT('',(-3.594593152938,4.805511910509,4.993431197833
    ));
#476 = CARTESIAN_POINT('',(-3.688444533701,4.734797098146,5.021767985292
    ));
#477 = CARTESIAN_POINT('',(-3.779892204692,4.662551342446,5.050302653673
    ));
#478 = CARTESIAN_POINT('',(-3.868963748864,4.588854096141,5.078967440664
    ));
#479 = CARTESIAN_POINT('',(-3.955687633891,4.513777966884,5.107698240209
    ));
#480 = CARTESIAN_POINT('',(-4.04009321217,4.437388717244,5.136434602507)
  );
#481 = CARTESIAN_POINT('',(-4.185601374263,4.299808361208,5.187263236175
    ));
#482 = CARTESIAN_POINT('',(-4.247627904143,4.239124654422,5.209375946781
    ));
#483 = CARTESIAN_POINT('',(-4.308303732327,4.177721521232,5.231431601454
    ));
#484 = CARTESIAN_POINT('',(-4.36764177457,4.115624752329,5.253404826536)
  );
#485 = CARTESIAN_POINT('',(-4.425654440518,4.052858552212,5.275271139087
    ));
#486 = CARTESIAN_POINT('',(-4.482353633706,3.989445539192,5.29700694689)
  );
#487 = CARTESIAN_POINT('',(-4.704517456615,3.732625260489,5.383561508849
    ));
#488 = CARTESIAN_POINT('',(-4.859535739846,3.534113587616,5.447164777229
    ));
#489 = CARTESIAN_POINT('',(-5.003052949421,3.330499647392,5.508757592432
    ));
#490 = CARTESIAN_POINT('',(-5.135293926517,3.122306941133,5.567763856993
    ));
#491 = CARTESIAN_POINT('',(-5.256451735609,2.909971034138,5.62366541572)
  );
#492 = CARTESIAN_POINT('',(-5.366678394763,2.693856038978,5.67599433427)
  );
#493 = CARTESIAN_POINT('',(-5.618566390779,2.137393640363,5.798472210282
    ));
#494 = CARTESIAN_POINT('',(-5.745670287905,1.792124019442,5.863258952978
    ));
#495 = CARTESIAN_POINT('',(-5.847343916128,1.440333456379,5.916958869473
    ));
#496 = CARTESIAN_POINT('',(-5.923614957076,1.083707489135,5.958205650063
    ));
#497 = CARTESIAN_POINT('',(-5.974508254746,0.723798439053,5.986052144711
    ));
#498 = CARTESIAN_POINT('',(-6.,0.362079435591,6.));
#499 = CARTESIAN_POINT('',(-6.,-0.189713109794,6.));
#500 = CARTESIAN_POINT('',(-5.993001774764,-0.379408798196,
    5.996171009759));
#501 = CARTESIAN_POINT('',(-5.979007492316,-0.568852419002,
    5.988513795794));
#502 = CARTESIAN_POINT('',(-5.958020163548,-0.757805247505,
    5.977067079646));
#503 = CARTESIAN_POINT('',(-5.930044666885,-0.946024379643,
    5.961906588868));
#504 = CARTESIAN_POINT('',(-5.895088772948,-1.133262631154,
    5.943144108018));
#505 = CARTESIAN_POINT('',(-5.81563420181,-1.485776672965,5.901037850489
    ));
#506 = CARTESIAN_POINT('',(-5.772521878686,-1.651288689128,
    5.878381419533));
#507 = CARTESIAN_POINT('',(-5.723826729626,-1.815666687311,
    5.853057556527));
#508 = CARTESIAN_POINT('',(-5.669543414283,-1.978764759837,
    5.825184965152));
#509 = CARTESIAN_POINT('',(-5.609662467603,-2.140428816527,
    5.794899935366));
#510 = CARTESIAN_POINT('',(-5.544171045239,-2.30049651196,5.762355545734
    ));
#511 = CARTESIAN_POINT('',(-5.29668609737,-2.851374972767,5.641828574511
    ));
#512 = CARTESIAN_POINT('',(-5.086042020417,-3.23236382274,5.543238426473
    ));
#513 = CARTESIAN_POINT('',(-4.840531395348,-3.600518476914,
    5.434329897209));
#514 = CARTESIAN_POINT('',(-4.558881499147,-3.953870992119,
    5.317836776077));
#515 = CARTESIAN_POINT('',(-4.239356594684,-4.289463065082,
    5.197015567341));
#516 = CARTESIAN_POINT('',(-3.880020078649,-4.602989165949,
    5.075960829474));
#517 = CARTESIAN_POINT('',(-3.354682330669,-4.976892387495,
    4.923725568543));
#518 = CARTESIAN_POINT('',(-3.22612500687,-5.062818517281,4.888104153672
    ));
#519 = CARTESIAN_POINT('',(-3.093476261736,-5.14585333136,4.853100784722
    ));
#520 = CARTESIAN_POINT('',(-2.956712702049,-5.225774056051,
    4.818887396463));
#521 = CARTESIAN_POINT('',(-2.815819497228,-5.30234247486,4.785645273558
    ));
#522 = CARTESIAN_POINT('',(-2.670790547594,-5.375304641653,
    4.753564301371));
#523 = CARTESIAN_POINT('',(-2.331677493748,-5.532368536744,
    4.683718983769));
#524 = CARTESIAN_POINT('',(-2.134780718597,-5.614172735868,
    4.646749291863));
#525 = CARTESIAN_POINT('',(-1.931338802476,-5.689019916801,
    4.612439534565));
#526 = CARTESIAN_POINT('',(-1.721795100244,-5.756191280105,
    4.581276825175));
#527 = CARTESIAN_POINT('',(-1.506635452705,-5.815027907269,
    4.553717873165));
#528 = CARTESIAN_POINT('',(-1.286387792974,-5.86492616669,4.530177860542
    ));
#529 = CARTESIAN_POINT('',(-0.756873567288,-5.960118733992,
    4.485043281078));
#530 = CARTESIAN_POINT('',(-0.444155827545,-5.997396291628,
    4.467150565689));
#531 = CARTESIAN_POINT('',(-0.126681613734,-6.015542756348,4.45836333528
    ));
#532 = CARTESIAN_POINT('',(0.192226874877,-6.013788107539,4.459212546276
    ));
#533 = CARTESIAN_POINT('',(0.509214044897,-5.992180194518,4.469665242013
    ));
#534 = CARTESIAN_POINT('',(0.820966412745,-5.951585170236,4.489127024168
    ));
#535 = CARTESIAN_POINT('',(1.34216430515,-5.852161354885,4.536195916734)
  );
#536 = CARTESIAN_POINT('',(1.555598836529,-5.80170765266,4.559955808491)
  );
#537 = CARTESIAN_POINT('',(1.76408975849,-5.742885169242,4.587454813382)
  );
#538 = CARTESIAN_POINT('',(1.967172938351,-5.67625791237,4.618304634326)
  );
#539 = CARTESIAN_POINT('',(2.164422101289,-5.602435061994,4.65208278992)
  );
#540 = CARTESIAN_POINT('',(2.355449097722,-5.522074906296,4.688342163392
    ));
#541 = CARTESIAN_POINT('',(2.689299908232,-5.366084027771,4.757623374842
    ));
#542 = CARTESIAN_POINT('',(2.834521686664,-5.292393651739,4.789979129249
    ));
#543 = CARTESIAN_POINT('',(2.975569026229,-5.215089768329,4.823488128101
    ));
#544 = CARTESIAN_POINT('',(3.112450320328,-5.134427983458,4.857958843242
    ));
#545 = CARTESIAN_POINT('',(3.245182664236,-5.050647670937,4.893208634901
    ));
#546 = CARTESIAN_POINT('',(3.373791683804,-4.963972253146,4.929064481568
    ));
#547 = CARTESIAN_POINT('',(3.594593152938,-4.80551191051,4.993431197833)
  );
#548 = CARTESIAN_POINT('',(3.688444533701,-4.734797098146,5.021767985292
    ));
#549 = CARTESIAN_POINT('',(3.779892204692,-4.662551342446,5.050302653673
    ));
#550 = CARTESIAN_POINT('',(3.868963748863,-4.588854096142,5.078967440663
    ));
#551 = CARTESIAN_POINT('',(3.955687633891,-4.513777966884,5.107698240209
    ));
#552 = CARTESIAN_POINT('',(4.04009321217,-4.437388717244,5.136434602507)
  );
#553 = CARTESIAN_POINT('',(4.185601374263,-4.299808361208,5.187263236175
    ));
#554 = CARTESIAN_POINT('',(4.247627904143,-4.239124654422,5.209375946781
    ));
#555 = CARTESIAN_POINT('',(4.308303732326,-4.177721521233,5.231431601454
    ));
#556 = CARTESIAN_POINT('',(4.36764177457,-4.115624752329,5.253404826536)
  );
#557 = CARTESIAN_POINT('',(4.425654440518,-4.052858552213,5.275271139087
    ));
#558 = CARTESIAN_POINT('',(4.482353633706,-3.989445539193,5.297006946889
    ));
#559 = CARTESIAN_POINT('',(4.70451745662,-3.732625260483,5.383561508851)
  );
#560 = CARTESIAN_POINT('',(4.859535739846,-3.534113587616,5.447164777229
    ));
#561 = CARTESIAN_POINT('',(5.003052949417,-3.330499647398,5.50875759243)
  );
#562 = CARTESIAN_POINT('',(5.135293926514,-3.122306941139,5.567763856991
    ));
#563 = CARTESIAN_POINT('',(5.25645173561,-2.909971034138,5.62366541572)
  );
#564 = CARTESIAN_POINT('',(5.366678394766,-2.693856038971,5.675994334272
    ));
#565 = CARTESIAN_POINT('',(5.618566390779,-2.137393640364,5.798472210282
    ));
#566 = CARTESIAN_POINT('',(5.745670287905,-1.792124019443,5.863258952978
    ));
#567 = CARTESIAN_POINT('',(5.847343916128,-1.440333456379,5.916958869473
    ));
#568 = CARTESIAN_POINT('',(5.923614957076,-1.083707489135,5.958205650063
    ));
#569 = CARTESIAN_POINT('',(5.974508254746,-0.723798439054,5.986052144711
    ));
#570 = CARTESIAN_POINT('',(6.,-0.362079435591,6.));
#571 = CARTESIAN_POINT('',(6.,-1.78E-15,6.));
#572 = ORIENTED_EDGE('',*,*,#253,.F.);
#573 = ORIENTED_EDGE('',*,*,#574,.T.);
#574 = EDGE_CURVE('',#245,#575,#577,.T.);
#575 = VERTEX_POINT('',#576);
#576 = CARTESIAN_POINT('',(5.809475019311,-1.5,4.));
#577 = CIRCLE('',#578,6.);
#578 = AXIS2_PLACEMENT_3D('',#579,#580,#581);
#579 = CARTESIAN_POINT('',(0.,0.,4.));
#580 = DIRECTION('',(0.,0.,-1.));
#581 = DIRECTION('',(1.,0.,0.));
#582 = ORIENTED_EDGE('',*,*,#583,.T.);
#583 = EDGE_CURVE('',#575,#58,#584,.T.);
#584 = LINE('',#585,#586);
#585 = CARTESIAN_POINT('',(5.809475019311,-1.5,2.));
#586 = VECTOR('',#587,1.);
#587 = DIRECTION('',(-0.,-0.,-1.));
#588 = ORIENTED_EDGE('',*,*,#55,.F.);
#589 = ORIENTED_EDGE('',*,*,#590,.F.);
#590 = EDGE_CURVE('',#591,#56,#593,.T.);
#591 = VERTEX_POINT('',#592);
#592 = CARTESIAN_POINT('',(-5.809475019311,-1.5,4.));
#593 = LINE('',#594,#595);
#594 = CARTESIAN_POINT('',(-5.809475019311,-1.5,2.));
#595 = VECTOR('',#596,1.);
#596 = DIRECTION('',(-0.,-0.,-1.));
#597 = ORIENTED_EDGE('',*,*,#598,.T.);
#598 = EDGE_CURVE('',#591,#599,#601,.T.);
#599 = VERTEX_POINT('',#600);
#600 = CARTESIAN_POINT('',(-5.809475019311,1.5,4.));
#601 = CIRCLE('',#602,6.);
#602 = AXIS2_PLACEMENT_3D('',#603,#604,#605);
#603 = CARTESIAN_POINT('',(0.,0.,4.));
#604 = DIRECTION('',(0.,0.,-1.));
#605 = DIRECTION('',(1.,0.,0.));
#606 = ORIENTED_EDGE('',*,*,#607,.T.);
#607 = EDGE_CURVE('',#599,#84,#608,.T.);
#608 = LINE('',#609,#610);
#609 = CARTESIAN_POINT('',(-5.809475019311,1.5,2.));
#610 = VECTOR('',#611,1.);
#611 = DIRECTION('',(-0.,-0.,-1.));
#612 = ORIENTED_EDGE('',*,*,#91,.F.);
#613 = CYLINDRICAL_SURFACE('',#614,6.);
#614 = AXIS2_PLACEMENT_3D('',#615,#616,#617);
#615 = CARTESIAN_POINT('',(0.,0.,2.));
#616 = DIRECTION('',(-0.,-0.,-1.));
#617 = DIRECTION('',(1.,0.,0.));
#618 = ADVANCED_FACE('',(#619),#637,.F.);
#619 = FACE_BOUND('',#620,.F.);
#620 = EDGE_LOOP('',(#621,#629,#630,#631));
#621 = ORIENTED_EDGE('',*,*,#622,.F.);
#622 = EDGE_CURVE('',#591,#623,#625,.T.);
#623 = VERTEX_POINT('',#624);
#624 = CARTESIAN_POINT('',(-3.708099243548,-1.5,4.));
#625 = LINE('',#626,#627);
#626 = CARTESIAN_POINT('',(0.,-1.5,4.));
#627 = VECTOR('',#628,1.);
#628 = DIRECTION('',(1.,0.,0.));
#629 = ORIENTED_EDGE('',*,*,#590,.T.);
#630 = ORIENTED_EDGE('',*,*,#66,.T.);
#631 = ORIENTED_EDGE('',*,*,#632,.T.);
#632 = EDGE_CURVE('',#67,#623,#633,.T.);
#633 = LINE('',#634,#635);
#634 = CARTESIAN_POINT('',(-3.708099243548,-1.5,6.));
#635 = VECTOR('',#636,1.);
#636 = DIRECTION('',(0.,0.,1.));
#637 = PLANE('',#638);
#638 = AXIS2_PLACEMENT_3D('',#639,#640,#641);
#639 = CARTESIAN_POINT('',(0.,-1.5,3.));
#640 = DIRECTION('',(-0.,-1.,-0.));
#641 = DIRECTION('',(0.,0.,-1.));
#642 = ADVANCED_FACE('',(#643,#765),#784,.F.);
#643 = FACE_BOUND('',#644,.F.);
#644 = EDGE_LOOP('',(#645,#708,#716,#725,#731,#732,#740,#747,#748,#749,
    #757,#764));
#645 = ORIENTED_EDGE('',*,*,#646,.F.);
#646 = EDGE_CURVE('',#647,#647,#649,.T.);
#647 = VERTEX_POINT('',#648);
#648 = CARTESIAN_POINT('',(4.,0.,5.123136817404));
#649 = B_SPLINE_CURVE_WITH_KNOTS('',8,(#650,#651,#652,#653,#654,#655,
    #656,#657,#658,#659,#660,#661,#662,#663,#664,#665,#666,#667,#668,
    #669,#670,#671,#672,#673,#674,#675,#676,#677,#678,#679,#680,#681,
    #682,#683,#684,#685,#686,#687,#688,#689,#690,#691,#692,#693,#694,
    #695,#696,#697,#698,#699,#700,#701,#702,#703,#704,#705,#706,#707),
  .UNSPECIFIED.,.T.,.F.,(9,7,7,7,7,7,7,7,9),(0.,0.180333994113,
    0.249999999566,0.319666005018,0.5,0.680333994982,0.750000000435,
    0.819666005887,1.),.UNSPECIFIED.);
#650 = CARTESIAN_POINT('',(4.,-8.9E-16,5.123136817404));
#651 = CARTESIAN_POINT('',(4.,0.495862075209,5.123136817404));
#652 = CARTESIAN_POINT('',(3.929749878247,0.988460031961,5.099407826362)
  );
#653 = CARTESIAN_POINT('',(3.790858679035,1.473378539256,5.052503363323)
  );
#654 = CARTESIAN_POINT('',(3.581567104851,1.945555011833,4.98439106122)
  );
#655 = CARTESIAN_POINT('',(3.298002857253,2.397627688545,4.898760800949)
  );
#656 = CARTESIAN_POINT('',(2.93520795952,2.818354032435,4.801856514409)
  );
#657 = CARTESIAN_POINT('',(2.487904309953,3.19125484217,4.704045506079)
  );
#658 = CARTESIAN_POINT('',(1.748416248285,3.605388055199,4.586980176319)
  );
#659 = CARTESIAN_POINT('',(1.527749485007,3.710700855699,4.556077012572)
  );
#660 = CARTESIAN_POINT('',(1.293972806165,3.802973923895,4.52808280252)
  );
#661 = CARTESIAN_POINT('',(1.048901446772,3.879762838716,4.504163557188)
  );
#662 = CARTESIAN_POINT('',(0.794617173718,3.939108142964,4.485342045867)
  );
#663 = CARTESIAN_POINT('',(0.533406623925,3.979524767418,4.472407792542)
  );
#664 = CARTESIAN_POINT('',(0.267698553805,4.,4.465856099731));
#665 = CARTESIAN_POINT('',(-0.267698553805,4.,4.465856099731));
#666 = CARTESIAN_POINT('',(-0.533406623925,3.979524767418,4.472407792542
    ));
#667 = CARTESIAN_POINT('',(-0.794617173718,3.939108142964,4.485342045867
    ));
#668 = CARTESIAN_POINT('',(-1.048901446772,3.879762838716,4.504163557188
    ));
#669 = CARTESIAN_POINT('',(-1.293972806165,3.802973923895,4.52808280252)
  );
#670 = CARTESIAN_POINT('',(-1.527749485007,3.710700855699,4.556077012572
    ));
#671 = CARTESIAN_POINT('',(-1.748416248285,3.605388055199,4.586980176319
    ));
#672 = CARTESIAN_POINT('',(-2.487904312522,3.191254840731,4.704045506485
    ));
#673 = CARTESIAN_POINT('',(-2.935207949822,2.818354040427,4.80185651274)
  );
#674 = CARTESIAN_POINT('',(-3.298002874664,2.397627668859,4.898760804142
    ));
#675 = CARTESIAN_POINT('',(-3.581567087224,1.945555039206,4.984391057824
    ));
#676 = CARTESIAN_POINT('',(-3.790858689003,1.473378516497,5.052503365313
    ));
#677 = CARTESIAN_POINT('',(-3.929749875677,0.988460042893,5.099407825837
    ));
#678 = CARTESIAN_POINT('',(-4.,0.495862072715,5.123136817404));
#679 = CARTESIAN_POINT('',(-4.,-0.495862072715,5.123136817404));
#680 = CARTESIAN_POINT('',(-3.929749875677,-0.988460042894,
    5.099407825837));
#681 = CARTESIAN_POINT('',(-3.790858689003,-1.473378516495,
    5.052503365314));
#682 = CARTESIAN_POINT('',(-3.581567087224,-1.945555039208,
    4.984391057824));
#683 = CARTESIAN_POINT('',(-3.298002874664,-2.397627668858,
    4.898760804143));
#684 = CARTESIAN_POINT('',(-2.935207949822,-2.818354040428,4.80185651274
    ));
#685 = CARTESIAN_POINT('',(-2.487904312522,-3.191254840731,
    4.704045506485));
#686 = CARTESIAN_POINT('',(-1.748416248285,-3.605388055199,
    4.586980176319));
#687 = CARTESIAN_POINT('',(-1.527749485007,-3.710700855699,
    4.556077012572));
#688 = CARTESIAN_POINT('',(-1.293972806165,-3.802973923895,4.52808280252
    ));
#689 = CARTESIAN_POINT('',(-1.048901446772,-3.879762838716,
    4.504163557188));
#690 = CARTESIAN_POINT('',(-0.794617173718,-3.939108142964,
    4.485342045867));
#691 = CARTESIAN_POINT('',(-0.533406623925,-3.979524767418,
    4.472407792542));
#692 = CARTESIAN_POINT('',(-0.267698553805,-4.,4.465856099731));
#693 = CARTESIAN_POINT('',(0.267698553805,-4.,4.465856099731));
#694 = CARTESIAN_POINT('',(0.533406623925,-3.979524767418,4.472407792542
    ));
#695 = CARTESIAN_POINT('',(0.794617173718,-3.939108142964,4.485342045867
    ));
#696 = CARTESIAN_POINT('',(1.048901446772,-3.879762838716,4.504163557188
    ));
#697 = CARTESIAN_POINT('',(1.293972806165,-3.802973923895,4.52808280252)
  );
#698 = CARTESIAN_POINT('',(1.527749485007,-3.710700855699,4.556077012572
    ));
#699 = CARTESIAN_POINT('',(1.748416248285,-3.605388055199,4.586980176319
    ));
#700 = CARTESIAN_POINT('',(2.487904309952,-3.191254842171,4.704045506079
    ));
#701 = CARTESIAN_POINT('',(2.935207959521,-2.818354032433,4.801856514409
    ));
#702 = CARTESIAN_POINT('',(3.298002857255,-2.397627688546,4.898760800948
    ));
#703 = CARTESIAN_POINT('',(3.581567104847,-1.945555011834,4.984391061219
    ));
#704 = CARTESIAN_POINT('',(3.790858679039,-1.473378539252,5.052503363323
    ));
#705 = CARTESIAN_POINT('',(3.929749878245,-0.988460031965,5.099407826362
    ));
#706 = CARTESIAN_POINT('',(4.,-0.495862075207,5.123136817404));
#707 = CARTESIAN_POINT('',(4.,-8.9E-16,5.123136817404));
#708 = ORIENTED_EDGE('',*,*,#709,.T.);
#709 = EDGE_CURVE('',#647,#710,#712,.T.);
#710 = VERTEX_POINT('',#711);
#711 = CARTESIAN_POINT('',(4.,0.,4.));
#712 = LINE('',#713,#714);
#713 = CARTESIAN_POINT('',(4.,0.,6.));
#714 = VECTOR('',#715,1.);
#715 = DIRECTION('',(-0.,-0.,-1.));
#716 = ORIENTED_EDGE('',*,*,#717,.T.);
#717 = EDGE_CURVE('',#710,#718,#720,.T.);
#718 = VERTEX_POINT('',#719);
#719 = CARTESIAN_POINT('',(3.708099243548,1.5,4.));
#720 = CIRCLE('',#721,4.);
#721 = AXIS2_PLACEMENT_3D('',#722,#723,#724);
#722 = CARTESIAN_POINT('',(0.,0.,4.));
#723 = DIRECTION('',(0.,0.,1.));
#724 = DIRECTION('',(1.,0.,0.));
#725 = ORIENTED_EDGE('',*,*,#726,.F.);
#726 = EDGE_CURVE('',#101,#718,#727,.T.);
#727 = LINE('',#728,#729);
#728 = CARTESIAN_POINT('',(3.708099243548,1.5,6.));
#729 = VECTOR('',#730,1.);
#730 = DIRECTION('',(0.,0.,1.));
#731 = ORIENTED_EDGE('',*,*,#108,.F.);
#732 = ORIENTED_EDGE('',*,*,#733,.T.);
#733 = EDGE_CURVE('',#109,#734,#736,.T.);
#734 = VERTEX_POINT('',#735);
#735 = CARTESIAN_POINT('',(4.,0.,0.));
#736 = LINE('',#737,#738);
#737 = CARTESIAN_POINT('',(4.,0.,6.));
#738 = VECTOR('',#739,1.);
#739 = DIRECTION('',(-0.,-0.,-1.));
#740 = ORIENTED_EDGE('',*,*,#741,.T.);
#741 = EDGE_CURVE('',#734,#734,#742,.T.);
#742 = CIRCLE('',#743,4.);
#743 = AXIS2_PLACEMENT_3D('',#744,#745,#746);
#744 = CARTESIAN_POINT('',(0.,0.,0.));
#745 = DIRECTION('',(0.,0.,1.));
#746 = DIRECTION('',(1.,0.,0.));
#747 = ORIENTED_EDGE('',*,*,#733,.F.);
#748 = ORIENTED_EDGE('',*,*,#117,.F.);
#749 = ORIENTED_EDGE('',*,*,#750,.T.);
#750 = EDGE_CURVE('',#118,#751,#753,.T.);
#751 = VERTEX_POINT('',#752);
#752 = CARTESIAN_POINT('',(3.708099243548,-1.5,4.));
#753 = LINE('',#754,#755);
#754 = CARTESIAN_POINT('',(3.708099243548,-1.5,6.));
#755 = VECTOR('',#756,1.);
#756 = DIRECTION('',(0.,0.,1.));
#757 = ORIENTED_EDGE('',*,*,#758,.T.);
#758 = EDGE_CURVE('',#751,#710,#759,.T.);
#759 = CIRCLE('',#760,4.);
#760 = AXIS2_PLACEMENT_3D('',#761,#762,#763);
#761 = CARTESIAN_POINT('',(0.,0.,4.));
#762 = DIRECTION('',(0.,0.,1.));
#763 = DIRECTION('',(1.,0.,0.));
#764 = ORIENTED_EDGE('',*,*,#709,.F.);
#765 = FACE_BOUND('',#766,.F.);
#766 = EDGE_LOOP('',(#767,#768,#776,#783));
#767 = ORIENTED_EDGE('',*,*,#74,.F.);
#768 = ORIENTED_EDGE('',*,*,#769,.T.);
#769 = EDGE_CURVE('',#75,#770,#772,.T.);
#770 = VERTEX_POINT('',#771);
#771 = CARTESIAN_POINT('',(-3.708099243548,1.5,4.));
#772 = LINE('',#773,#774);
#773 = CARTESIAN_POINT('',(-3.708099243548,1.5,6.));
#774 = VECTOR('',#775,1.);
#775 = DIRECTION('',(0.,0.,1.));
#776 = ORIENTED_EDGE('',*,*,#777,.T.);
#777 = EDGE_CURVE('',#770,#623,#778,.T.);
#778 = CIRCLE('',#779,4.);
#779 = AXIS2_PLACEMENT_3D('',#780,#781,#782);
#780 = CARTESIAN_POINT('',(0.,0.,4.));
#781 = DIRECTION('',(0.,0.,1.));
#782 = DIRECTION('',(1.,0.,0.));
#783 = ORIENTED_EDGE('',*,*,#632,.F.);
#784 = CYLINDRICAL_SURFACE('',#785,4.);
#785 = AXIS2_PLACEMENT_3D('',#786,#787,#788);
#786 = CARTESIAN_POINT('',(0.,0.,6.));
#787 = DIRECTION('',(0.,0.,1.));
#788 = DIRECTION('',(1.,0.,0.));
#789 = ADVANCED_FACE('',(#790),#801,.F.);
#790 = FACE_BOUND('',#791,.F.);
#791 = EDGE_LOOP('',(#792,#793,#794,#795));
#792 = ORIENTED_EDGE('',*,*,#769,.F.);
#793 = ORIENTED_EDGE('',*,*,#83,.T.);
#794 = ORIENTED_EDGE('',*,*,#607,.F.);
#795 = ORIENTED_EDGE('',*,*,#796,.F.);
#796 = EDGE_CURVE('',#770,#599,#797,.T.);
#797 = LINE('',#798,#799);
#798 = CARTESIAN_POINT('',(0.,1.5,4.));
#799 = VECTOR('',#800,1.);
#800 = DIRECTION('',(-1.,-0.,-0.));
#801 = PLANE('',#802);
#802 = AXIS2_PLACEMENT_3D('',#803,#804,#805);
#803 = CARTESIAN_POINT('',(0.,1.5,3.));
#804 = DIRECTION('',(0.,1.,0.));
#805 = DIRECTION('',(0.,0.,1.));
#806 = ADVANCED_FACE('',(#807),#818,.F.);
#807 = FACE_BOUND('',#808,.F.);
#808 = EDGE_LOOP('',(#809,#810,#811,#812));
#809 = ORIENTED_EDGE('',*,*,#236,.T.);
#810 = ORIENTED_EDGE('',*,*,#100,.T.);
#811 = ORIENTED_EDGE('',*,*,#726,.T.);
#812 = ORIENTED_EDGE('',*,*,#813,.F.);
#813 = EDGE_CURVE('',#237,#718,#814,.T.);
#814 = LINE('',#815,#816);
#815 = CARTESIAN_POINT('',(0.,1.5,4.));
#816 = VECTOR('',#817,1.);
#817 = DIRECTION('',(-1.,-0.,-0.));
#818 = PLANE('',#819);
#819 = AXIS2_PLACEMENT_3D('',#820,#821,#822);
#820 = CARTESIAN_POINT('',(0.,1.5,3.));
#821 = DIRECTION('',(0.,1.,0.));
#822 = DIRECTION('',(0.,0.,1.));
#823 = ADVANCED_FACE('',(#824),#835,.F.);
#824 = FACE_BOUND('',#825,.F.);
#825 = EDGE_LOOP('',(#826,#832,#833,#834));
#826 = ORIENTED_EDGE('',*,*,#827,.F.);
#827 = EDGE_CURVE('',#751,#575,#828,.T.);
#828 = LINE('',#829,#830);
#829 = CARTESIAN_POINT('',(0.,-1.5,4.));
#830 = VECTOR('',#831,1.);
#831 = DIRECTION('',(1.,0.,0.));
#832 = ORIENTED_EDGE('',*,*,#750,.F.);
#833 = ORIENTED_EDGE('',*,*,#126,.T.);
#834 = ORIENTED_EDGE('',*,*,#583,.F.);
#835 = PLANE('',#836);
#836 = AXIS2_PLACEMENT_3D('',#837,#838,#839);
#837 = CARTESIAN_POINT('',(0.,-1.5,3.));
#838 = DIRECTION('',(-0.,-1.,-0.));
#839 = DIRECTION('',(0.,0.,-1.));
#840 = ADVANCED_FACE('',(#841),#866,.F.);
#841 = FACE_BOUND('',#842,.F.);
#842 = EDGE_LOOP('',(#843,#851,#852,#860));
#843 = ORIENTED_EDGE('',*,*,#844,.T.);
#844 = EDGE_CURVE('',#845,#141,#847,.T.);
#845 = VERTEX_POINT('',#846);
#846 = CARTESIAN_POINT('',(-12.5,12.5,0.));
#847 = LINE('',#848,#849);
#848 = CARTESIAN_POINT('',(-12.5,12.5,0.));
#849 = VECTOR('',#850,1.);
#850 = DIRECTION('',(0.,0.,1.));
#851 = ORIENTED_EDGE('',*,*,#157,.T.);
#852 = ORIENTED_EDGE('',*,*,#853,.F.);
#853 = EDGE_CURVE('',#854,#150,#856,.T.);
#854 = VERTEX_POINT('',#855);
#855 = CARTESIAN_POINT('',(-12.5,-12.5,0.));
#856 = LINE('',#857,#858);
#857 = CARTESIAN_POINT('',(-12.5,-12.5,0.));
#858 = VECTOR('',#859,1.);
#859 = DIRECTION('',(0.,0.,1.));
#860 = ORIENTED_EDGE('',*,*,#861,.F.);
#861 = EDGE_CURVE('',#845,#854,#862,.T.);
#862 = LINE('',#863,#864);
#863 = CARTESIAN_POINT('',(-12.5,12.5,0.));
#864 = VECTOR('',#865,1.);
#865 = DIRECTION('',(0.,-1.,0.));
#866 = PLANE('',#867);
#867 = AXIS2_PLACEMENT_3D('',#868,#869,#870);
#868 = CARTESIAN_POINT('',(-12.5,12.5,0.));
#869 = DIRECTION('',(1.,0.,0.));
#870 = DIRECTION('',(0.,-1.,0.));
#871 = ADVANCED_FACE('',(#872),#890,.F.);
#872 = FACE_BOUND('',#873,.F.);
#873 = EDGE_LOOP('',(#874,#882,#883,#884));
#874 = ORIENTED_EDGE('',*,*,#875,.T.);
#875 = EDGE_CURVE('',#876,#172,#878,.T.);
#876 = VERTEX_POINT('',#877);
#877 = CARTESIAN_POINT('',(12.5,12.5,0.));
#878 = LINE('',#879,#880);
#879 = CARTESIAN_POINT('',(12.5,12.5,0.));
#880 = VECTOR('',#881,1.);
#881 = DIRECTION('',(0.,0.,1.));
#882 = ORIENTED_EDGE('',*,*,#181,.T.);
#883 = ORIENTED_EDGE('',*,*,#844,.F.);
#884 = ORIENTED_EDGE('',*,*,#885,.F.);
#885 = EDGE_CURVE('',#876,#845,#886,.T.);
#886 = LINE('',#887,#888);
#887 = CARTESIAN_POINT('',(12.5,12.5,0.));
#888 = VECTOR('',#889,1.);
#889 = DIRECTION('',(-1.,0.,0.));
#890 = PLANE('',#891);
#891 = AXIS2_PLACEMENT_3D('',#892,#893,#894);
#892 = CARTESIAN_POINT('',(12.5,12.5,0.));
#893 = DIRECTION('',(0.,-1.,0.));
#894 = DIRECTION('',(-1.,0.,0.));
#895 = ADVANCED_FACE('',(#896),#914,.F.);
#896 = FACE_BOUND('',#897,.F.);
#897 = EDGE_LOOP('',(#898,#899,#900,#908));
#898 = ORIENTED_EDGE('',*,*,#853,.T.);
#899 = ORIENTED_EDGE('',*,*,#205,.T.);
#900 = ORIENTED_EDGE('',*,*,#901,.F.);
#901 = EDGE_CURVE('',#902,#198,#904,.T.);
#902 = VERTEX_POINT('',#903);
#903 = CARTESIAN_POINT('',(12.5,-12.5,0.));
#904 = LINE('',#905,#906);
#905 = CARTESIAN_POINT('',(12.5,-12.5,0.));
#906 = VECTOR('',#907,1.);
#907 = DIRECTION('',(0.,0.,1.));
#908 = ORIENTED_EDGE('',*,*,#909,.F.);
#909 = EDGE_CURVE('',#854,#902,#910,.T.);
#910 = LINE('',#911,#912);
#911 = CARTESIAN_POINT('',(-12.5,-12.5,0.));
#912 = VECTOR('',#913,1.);
#913 = DIRECTION('',(1.,0.,0.));
#914 = PLANE('',#915);
#915 = AXIS2_PLACEMENT_3D('',#916,#917,#918);
#916 = CARTESIAN_POINT('',(-12.5,-12.5,0.));
#917 = DIRECTION('',(0.,1.,0.));
#918 = DIRECTION('',(1.,0.,0.));
#919 = ADVANCED_FACE('',(#920),#931,.F.);
#920 = FACE_BOUND('',#921,.F.);
#921 = EDGE_LOOP('',(#922,#923,#924,#925));
#922 = ORIENTED_EDGE('',*,*,#901,.T.);
#923 = ORIENTED_EDGE('',*,*,#222,.T.);
#924 = ORIENTED_EDGE('',*,*,#875,.F.);
#925 = ORIENTED_EDGE('',*,*,#926,.F.);
#926 = EDGE_CURVE('',#902,#876,#927,.T.);
#927 = LINE('',#928,#929);
#928 = CARTESIAN_POINT('',(12.5,-12.5,0.));
#929 = VECTOR('',#930,1.);
#930 = DIRECTION('',(0.,1.,0.));
#931 = PLANE('',#932);
#932 = AXIS2_PLACEMENT_3D('',#933,#934,#935);
#933 = CARTESIAN_POINT('',(12.5,-12.5,0.));
#934 = DIRECTION('',(-1.,0.,0.));
#935 = DIRECTION('',(0.,1.,0.));
#936 = ADVANCED_FACE('',(#937),#943,.F.);
#937 = FACE_BOUND('',#938,.F.);
#938 = EDGE_LOOP('',(#939,#940,#941,#942));
#939 = ORIENTED_EDGE('',*,*,#777,.F.);
#940 = ORIENTED_EDGE('',*,*,#796,.T.);
#941 = ORIENTED_EDGE('',*,*,#598,.F.);
#942 = ORIENTED_EDGE('',*,*,#622,.T.);
#943 = PLANE('',#944);
#944 = AXIS2_PLACEMENT_3D('',#945,#946,#947);
#945 = CARTESIAN_POINT('',(0.,0.,4.));
#946 = DIRECTION('',(0.,0.,1.));
#947 = DIRECTION('',(1.,0.,0.));
#948 = ADVANCED_FACE('',(#949),#957,.F.);
#949 = FACE_BOUND('',#950,.F.);
#950 = EDGE_LOOP('',(#951,#952,#953,#954,#955,#956));
#951 = ORIENTED_EDGE('',*,*,#244,.F.);
#952 = ORIENTED_EDGE('',*,*,#813,.T.);
#953 = ORIENTED_EDGE('',*,*,#717,.F.);
#954 = ORIENTED_EDGE('',*,*,#758,.F.);
#955 = ORIENTED_EDGE('',*,*,#827,.T.);
#956 = ORIENTED_EDGE('',*,*,#574,.F.);
#957 = PLANE('',#958);
#958 = AXIS2_PLACEMENT_3D('',#959,#960,#961);
#959 = CARTESIAN_POINT('',(0.,0.,4.));
#960 = DIRECTION('',(0.,0.,1.));
#961 = DIRECTION('',(1.,0.,0.));
#962 = ADVANCED_FACE('',(#963,#967),#970,.F.);
#963 = FACE_BOUND('',#964,.F.);
#964 = EDGE_LOOP('',(#965,#966));
#965 = ORIENTED_EDGE('',*,*,#261,.F.);
#966 = ORIENTED_EDGE('',*,*,#418,.F.);
#967 = FACE_BOUND('',#968,.F.);
#968 = EDGE_LOOP('',(#969));
#969 = ORIENTED_EDGE('',*,*,#646,.T.);
#970 = CYLINDRICAL_SURFACE('',#971,12.5);
#971 = AXIS2_PLACEMENT_3D('',#972,#973,#974);
#972 = CARTESIAN_POINT('',(0.,3.77E-15,16.965856099731));
#973 = DIRECTION('',(0.,-1.,2.2E-16));
#974 = DIRECTION('',(1.,0.,0.));
#975 = ADVANCED_FACE('',(#976,#982),#985,.F.);
#976 = FACE_BOUND('',#977,.F.);
#977 = EDGE_LOOP('',(#978,#979,#980,#981));
#978 = ORIENTED_EDGE('',*,*,#909,.T.);
#979 = ORIENTED_EDGE('',*,*,#926,.T.);
#980 = ORIENTED_EDGE('',*,*,#885,.T.);
#981 = ORIENTED_EDGE('',*,*,#861,.T.);
#982 = FACE_BOUND('',#983,.F.);
#983 = EDGE_LOOP('',(#984));
#984 = ORIENTED_EDGE('',*,*,#741,.F.);
#985 = PLANE('',#986);
#986 = AXIS2_PLACEMENT_3D('',#987,#988,#989);
#987 = CARTESIAN_POINT('',(0.,0.,0.));
#988 = DIRECTION('',(0.,0.,1.));
#989 = DIRECTION('',(1.,0.,0.));
#990 = ( GEOMETRIC_REPRESENTATION_CONTEXT(3) 
GLOBAL_UNCERTAINTY_ASSIGNED_CONTEXT((#994)) GLOBAL_UNIT_ASSIGNED_CONTEXT
((#991,#992,#993)) REPRESENTATION_CONTEXT('Context #1',
  '3D Context with UNIT and UNCERTAINTY') );
#991 = ( LENGTH_UNIT() NAMED_UNIT(*) SI_UNIT(.MILLI.,.METRE.) );
#992 = ( NAMED_UNIT(*) PLANE_ANGLE_UNIT() SI_UNIT($,.RADIAN.) );
#993 = ( NAMED_UNIT(*) SI_UNIT($,.STERADIAN.) SOLID_ANGLE_UNIT() );
#994 = UNCERTAINTY_MEASURE_WITH_UNIT(LENGTH_MEASURE(1.E-07),#991,
  'distance_accuracy_value','confusion accuracy');
#995 = PRODUCT_RELATED_PRODUCT_CATEGORY('part',$,(#7));
#996 = MECHANICAL_DESIGN_GEOMETRIC_PRESENTATION_REPRESENTATION('',(#997)
  ,#990);
#997 = STYLED_ITEM('color',(#998),#15);
#998 = PRESENTATION_STYLE_ASSIGNMENT((#999,#1005));
#999 = SURFACE_STYLE_USAGE(.BOTH.,#1000);
#1000 = SURFACE_SIDE_STYLE('',(#1001));
#1001 = SURFACE_STYLE_FILL_AREA(#1002);
#1002 = FILL_AREA_STYLE('',(#1003));
#1003 = FILL_AREA_STYLE_COLOUR('',#1004);
#1004 = COLOUR_RGB('',0.800000010877,0.800000010877,0.901960800373);
#1005 = CURVE_STYLE('',#1006,POSITIVE_LENGTH_MEASURE(0.1),#1007);
#1006 = DRAUGHTING_PRE_DEFINED_CURVE_FONT('continuous');
#1007 = COLOUR_RGB('',9.803921802644E-02,9.803921802644E-02,
  9.803921802644E-02);
ENDSEC;
END-ISO-10303-21;
