ISO-10303-21;
HEADER;
FILE_DESCRIPTION(('FreeCAD Model'),'2;1');
FILE_NAME('Open CASCADE Shape Model','2026-08-23T10:49:31',(''),(''),
  'Open CASCADE STEP processor 7.8','FreeCAD','Unknown');
FILE_SCHEMA(('AUTOMOTIVE_DESIGN { 1 0 10303 214 1 1 1 1 }'));
ENDSEC;
DATA;
#1 = APPLICATION_PROTOCOL_DEFINITION('international standard',
  'automotive_design',2000,#2);
#2 = APPLICATION_CONTEXT(
  'core data for automotive mechanical design processes');
#3 = SHAPE_DEFINITION_REPRESENTATION(#4,#10);
#4 = PRODUCT_DEFINITION_SHAPE('','',#5);
#5 = PRODUCT_DEFINITION('design','',#6,#9);
#6 = PRODUCT_DEFINITION_FORMATION('','',#7);
#7 = PRODUCT('Body','Body','',(#8));
#8 = PRODUCT_CONTEXT('',#2,'mechanical');
#9 = PRODUCT_DEFINITION_CONTEXT('part definition',#2,'design');
#10 = ADVANCED_BREP_SHAPE_REPRESENTATION('',(#11,#15),#829);
#11 = AXIS2_PLACEMENT_3D('',#12,#13,#14);
#12 = CARTESIAN_POINT('',(0.,0.,0.));
#13 = DIRECTION('',(0.,0.,1.));
#14 = DIRECTION('',(1.,0.,-0.));
#15 = MANIFOLD_SOLID_BREP('',#16);
#16 = CLOSED_SHELL('',(#17,#56,#219,#242,#398,#431,#477,#508,#524,#540,
    #556,#572,#588,#604,#620,#636,#652,#668,#684,#700,#716,#732,#744,
    #783,#795,#812));
#17 = ADVANCED_FACE('',(#18),#51,.F.);
#18 = FACE_BOUND('',#19,.F.);
#19 = EDGE_LOOP('',(#20,#30,#38,#46));
#20 = ORIENTED_EDGE('',*,*,#21,.F.);
#21 = EDGE_CURVE('',#22,#24,#26,.T.);
#22 = VERTEX_POINT('',#23);
#23 = CARTESIAN_POINT('',(-47.5,-7.5,0.));
#24 = VERTEX_POINT('',#25);
#25 = CARTESIAN_POINT('',(-39.5,-7.5,0.));
#26 = LINE('',#27,#28);
#27 = CARTESIAN_POINT('',(-47.5,-7.5,0.));
#28 = VECTOR('',#29,1.);
#29 = DIRECTION('',(1.,0.,0.));
#30 = ORIENTED_EDGE('',*,*,#31,.T.);
#31 = EDGE_CURVE('',#22,#32,#34,.T.);
#32 = VERTEX_POINT('',#33);
#33 = CARTESIAN_POINT('',(-47.5,-7.5,3.));
#34 = LINE('',#35,#36);
#35 = CARTESIAN_POINT('',(-47.5,-7.5,0.));
#36 = VECTOR('',#37,1.);
#37 = DIRECTION('',(0.,0.,1.));
#38 = ORIENTED_EDGE('',*,*,#39,.T.);
#39 = EDGE_CURVE('',#32,#40,#42,.T.);
#40 = VERTEX_POINT('',#41);
#41 = CARTESIAN_POINT('',(-40.,-7.5,3.));
#42 = LINE('',#43,#44);
#43 = CARTESIAN_POINT('',(-47.5,-7.5,3.));
#44 = VECTOR('',#45,1.);
#45 = DIRECTION('',(1.,0.,0.));
#46 = ORIENTED_EDGE('',*,*,#47,.T.);
#47 = EDGE_CURVE('',#40,#24,#48,.T.);
#48 = B_SPLINE_CURVE_WITH_KNOTS('',1,(#49,#50),.UNSPECIFIED.,.F.,.F.,(2,
    2),(0.,1.),.PIECEWISE_BEZIER_KNOTS.);
#49 = CARTESIAN_POINT('',(-40.,-7.5,3.));
#50 = CARTESIAN_POINT('',(-39.5,-7.5,0.));
#51 = PLANE('',#52);
#52 = AXIS2_PLACEMENT_3D('',#53,#54,#55);
#53 = CARTESIAN_POINT('',(-47.5,-7.5,0.));
#54 = DIRECTION('',(0.,1.,0.));
#55 = DIRECTION('',(1.,0.,0.));
#56 = ADVANCED_FACE('',(#57),#214,.F.);
#57 = FACE_BOUND('',#58,.F.);
#58 = EDGE_LOOP('',(#59,#69,#75,#76,#84,#93,#101,#109,#117,#126,#134,
    #142,#150,#159,#167,#175,#183,#192,#200,#208));
#59 = ORIENTED_EDGE('',*,*,#60,.T.);
#60 = EDGE_CURVE('',#61,#63,#65,.T.);
#61 = VERTEX_POINT('',#62);
#62 = CARTESIAN_POINT('',(47.5,7.5,0.));
#63 = VERTEX_POINT('',#64);
#64 = CARTESIAN_POINT('',(-47.5,7.5,0.));
#65 = LINE('',#66,#67);
#66 = CARTESIAN_POINT('',(47.5,7.5,0.));
#67 = VECTOR('',#68,1.);
#68 = DIRECTION('',(-1.,0.,0.));
#69 = ORIENTED_EDGE('',*,*,#70,.T.);
#70 = EDGE_CURVE('',#63,#22,#71,.T.);
#71 = LINE('',#72,#73);
#72 = CARTESIAN_POINT('',(-47.5,7.5,0.));
#73 = VECTOR('',#74,1.);
#74 = DIRECTION('',(0.,-1.,0.));
#75 = ORIENTED_EDGE('',*,*,#21,.T.);
#76 = ORIENTED_EDGE('',*,*,#77,.F.);
#77 = EDGE_CURVE('',#78,#24,#80,.T.);
#78 = VERTEX_POINT('',#79);
#79 = CARTESIAN_POINT('',(-39.5,-3.464101615138,0.));
#80 = LINE('',#81,#82);
#81 = CARTESIAN_POINT('',(-39.5,-3.464101615138,0.));
#82 = VECTOR('',#83,1.);
#83 = DIRECTION('',(0.,-1.,0.));
#84 = ORIENTED_EDGE('',*,*,#85,.T.);
#85 = EDGE_CURVE('',#78,#86,#88,.T.);
#86 = VERTEX_POINT('',#87);
#87 = CARTESIAN_POINT('',(-35.5,-3.464101615138,0.));
#88 = CIRCLE('',#89,4.);
#89 = AXIS2_PLACEMENT_3D('',#90,#91,#92);
#90 = CARTESIAN_POINT('',(-37.5,0.,0.));
#91 = DIRECTION('',(0.,0.,-1.));
#92 = DIRECTION('',(1.,0.,0.));
#93 = ORIENTED_EDGE('',*,*,#94,.T.);
#94 = EDGE_CURVE('',#86,#95,#97,.T.);
#95 = VERTEX_POINT('',#96);
#96 = CARTESIAN_POINT('',(-35.5,-7.5,0.));
#97 = LINE('',#98,#99);
#98 = CARTESIAN_POINT('',(-35.5,-3.464101615138,0.));
#99 = VECTOR('',#100,1.);
#100 = DIRECTION('',(0.,-1.,0.));
#101 = ORIENTED_EDGE('',*,*,#102,.T.);
#102 = EDGE_CURVE('',#95,#103,#105,.T.);
#103 = VERTEX_POINT('',#104);
#104 = CARTESIAN_POINT('',(-14.5,-7.5,0.));
#105 = LINE('',#106,#107);
#106 = CARTESIAN_POINT('',(-47.5,-7.5,0.));
#107 = VECTOR('',#108,1.);
#108 = DIRECTION('',(1.,0.,0.));
#109 = ORIENTED_EDGE('',*,*,#110,.F.);
#110 = EDGE_CURVE('',#111,#103,#113,.T.);
#111 = VERTEX_POINT('',#112);
#112 = CARTESIAN_POINT('',(-14.5,-3.464101615138,0.));
#113 = LINE('',#114,#115);
#114 = CARTESIAN_POINT('',(-14.5,-3.464101615138,0.));
#115 = VECTOR('',#116,1.);
#116 = DIRECTION('',(0.,-1.,0.));
#117 = ORIENTED_EDGE('',*,*,#118,.T.);
#118 = EDGE_CURVE('',#111,#119,#121,.T.);
#119 = VERTEX_POINT('',#120);
#120 = CARTESIAN_POINT('',(-10.5,-3.464101615138,0.));
#121 = CIRCLE('',#122,4.);
#122 = AXIS2_PLACEMENT_3D('',#123,#124,#125);
#123 = CARTESIAN_POINT('',(-12.5,0.,0.));
#124 = DIRECTION('',(0.,0.,-1.));
#125 = DIRECTION('',(1.,0.,0.));
#126 = ORIENTED_EDGE('',*,*,#127,.T.);
#127 = EDGE_CURVE('',#119,#128,#130,.T.);
#128 = VERTEX_POINT('',#129);
#129 = CARTESIAN_POINT('',(-10.5,-7.5,0.));
#130 = LINE('',#131,#132);
#131 = CARTESIAN_POINT('',(-10.5,-3.464101615138,0.));
#132 = VECTOR('',#133,1.);
#133 = DIRECTION('',(0.,-1.,0.));
#134 = ORIENTED_EDGE('',*,*,#135,.T.);
#135 = EDGE_CURVE('',#128,#136,#138,.T.);
#136 = VERTEX_POINT('',#137);
#137 = CARTESIAN_POINT('',(10.5,-7.5,0.));
#138 = LINE('',#139,#140);
#139 = CARTESIAN_POINT('',(-47.5,-7.5,0.));
#140 = VECTOR('',#141,1.);
#141 = DIRECTION('',(1.,0.,0.));
#142 = ORIENTED_EDGE('',*,*,#143,.F.);
#143 = EDGE_CURVE('',#144,#136,#146,.T.);
#144 = VERTEX_POINT('',#145);
#145 = CARTESIAN_POINT('',(10.5,-3.464101615138,0.));
#146 = LINE('',#147,#148);
#147 = CARTESIAN_POINT('',(10.5,-3.464101615138,0.));
#148 = VECTOR('',#149,1.);
#149 = DIRECTION('',(0.,-1.,0.));
#150 = ORIENTED_EDGE('',*,*,#151,.T.);
#151 = EDGE_CURVE('',#144,#152,#154,.T.);
#152 = VERTEX_POINT('',#153);
#153 = CARTESIAN_POINT('',(14.5,-3.464101615138,0.));
#154 = CIRCLE('',#155,4.);
#155 = AXIS2_PLACEMENT_3D('',#156,#157,#158);
#156 = CARTESIAN_POINT('',(12.5,0.,0.));
#157 = DIRECTION('',(0.,0.,-1.));
#158 = DIRECTION('',(1.,0.,0.));
#159 = ORIENTED_EDGE('',*,*,#160,.T.);
#160 = EDGE_CURVE('',#152,#161,#163,.T.);
#161 = VERTEX_POINT('',#162);
#162 = CARTESIAN_POINT('',(14.5,-7.5,0.));
#163 = LINE('',#164,#165);
#164 = CARTESIAN_POINT('',(14.5,-3.464101615138,0.));
#165 = VECTOR('',#166,1.);
#166 = DIRECTION('',(0.,-1.,0.));
#167 = ORIENTED_EDGE('',*,*,#168,.T.);
#168 = EDGE_CURVE('',#161,#169,#171,.T.);
#169 = VERTEX_POINT('',#170);
#170 = CARTESIAN_POINT('',(35.5,-7.5,0.));
#171 = LINE('',#172,#173);
#172 = CARTESIAN_POINT('',(-47.5,-7.5,0.));
#173 = VECTOR('',#174,1.);
#174 = DIRECTION('',(1.,0.,0.));
#175 = ORIENTED_EDGE('',*,*,#176,.F.);
#176 = EDGE_CURVE('',#177,#169,#179,.T.);
#177 = VERTEX_POINT('',#178);
#178 = CARTESIAN_POINT('',(35.5,-3.464101615138,0.));
#179 = LINE('',#180,#181);
#180 = CARTESIAN_POINT('',(35.5,-3.464101615138,0.));
#181 = VECTOR('',#182,1.);
#182 = DIRECTION('',(0.,-1.,0.));
#183 = ORIENTED_EDGE('',*,*,#184,.T.);
#184 = EDGE_CURVE('',#177,#185,#187,.T.);
#185 = VERTEX_POINT('',#186);
#186 = CARTESIAN_POINT('',(39.5,-3.464101615138,0.));
#187 = CIRCLE('',#188,4.);
#188 = AXIS2_PLACEMENT_3D('',#189,#190,#191);
#189 = CARTESIAN_POINT('',(37.5,0.,0.));
#190 = DIRECTION('',(0.,0.,-1.));
#191 = DIRECTION('',(1.,0.,0.));
#192 = ORIENTED_EDGE('',*,*,#193,.T.);
#193 = EDGE_CURVE('',#185,#194,#196,.T.);
#194 = VERTEX_POINT('',#195);
#195 = CARTESIAN_POINT('',(39.5,-7.5,0.));
#196 = LINE('',#197,#198);
#197 = CARTESIAN_POINT('',(39.5,-3.464101615138,0.));
#198 = VECTOR('',#199,1.);
#199 = DIRECTION('',(0.,-1.,0.));
#200 = ORIENTED_EDGE('',*,*,#201,.T.);
#201 = EDGE_CURVE('',#194,#202,#204,.T.);
#202 = VERTEX_POINT('',#203);
#203 = CARTESIAN_POINT('',(47.5,-7.5,0.));
#204 = LINE('',#205,#206);
#205 = CARTESIAN_POINT('',(-47.5,-7.5,0.));
#206 = VECTOR('',#207,1.);
#207 = DIRECTION('',(1.,0.,0.));
#208 = ORIENTED_EDGE('',*,*,#209,.T.);
#209 = EDGE_CURVE('',#202,#61,#210,.T.);
#210 = LINE('',#211,#212);
#211 = CARTESIAN_POINT('',(47.5,-7.5,0.));
#212 = VECTOR('',#213,1.);
#213 = DIRECTION('',(0.,1.,0.));
#214 = PLANE('',#215);
#215 = AXIS2_PLACEMENT_3D('',#216,#217,#218);
#216 = CARTESIAN_POINT('',(0.,0.,0.));
#217 = DIRECTION('',(0.,0.,1.));
#218 = DIRECTION('',(1.,0.,0.));
#219 = ADVANCED_FACE('',(#220),#237,.T.);
#220 = FACE_BOUND('',#221,.T.);
#221 = EDGE_LOOP('',(#222,#230,#231,#232));
#222 = ORIENTED_EDGE('',*,*,#223,.T.);
#223 = EDGE_CURVE('',#224,#40,#226,.T.);
#224 = VERTEX_POINT('',#225);
#225 = CARTESIAN_POINT('',(-40.,-4.330127018922,3.));
#226 = LINE('',#227,#228);
#227 = CARTESIAN_POINT('',(-40.,-4.330127018922,3.));
#228 = VECTOR('',#229,1.);
#229 = DIRECTION('',(0.,-1.,0.));
#230 = ORIENTED_EDGE('',*,*,#47,.T.);
#231 = ORIENTED_EDGE('',*,*,#77,.F.);
#232 = ORIENTED_EDGE('',*,*,#233,.F.);
#233 = EDGE_CURVE('',#224,#78,#234,.T.);
#234 = B_SPLINE_CURVE_WITH_KNOTS('',1,(#235,#236),.UNSPECIFIED.,.F.,.F.,
  (2,2),(0.,1.),.PIECEWISE_BEZIER_KNOTS.);
#235 = CARTESIAN_POINT('',(-40.,-4.330127018922,3.));
#236 = CARTESIAN_POINT('',(-39.5,-3.464101615138,0.));
#237 = B_SPLINE_SURFACE_WITH_KNOTS('',1,1,(
    (#238,#239)
    ,(#240,#241
    )),.UNSPECIFIED.,.F.,.F.,.F.,(2,2),(2,2),(0.,4.035898384862),(0.,1.)
  ,.PIECEWISE_BEZIER_KNOTS.);
#238 = CARTESIAN_POINT('',(-40.,-4.330127018922,3.));
#239 = CARTESIAN_POINT('',(-39.5,-3.464101615138,0.));
#240 = CARTESIAN_POINT('',(-40.,-7.5,3.));
#241 = CARTESIAN_POINT('',(-39.5,-7.5,0.));
#242 = ADVANCED_FACE('',(#243),#393,.T.);
#243 = FACE_BOUND('',#244,.T.);
#244 = EDGE_LOOP('',(#245,#255,#261,#262,#263,#272,#280,#288,#296,#305,
    #313,#321,#329,#338,#346,#354,#362,#371,#379,#387));
#245 = ORIENTED_EDGE('',*,*,#246,.T.);
#246 = EDGE_CURVE('',#247,#249,#251,.T.);
#247 = VERTEX_POINT('',#248);
#248 = CARTESIAN_POINT('',(47.5,10.5,3.));
#249 = VERTEX_POINT('',#250);
#250 = CARTESIAN_POINT('',(-47.5,10.5,3.));
#251 = LINE('',#252,#253);
#252 = CARTESIAN_POINT('',(47.5,10.5,3.));
#253 = VECTOR('',#254,1.);
#254 = DIRECTION('',(-1.,0.,0.));
#255 = ORIENTED_EDGE('',*,*,#256,.T.);
#256 = EDGE_CURVE('',#249,#32,#257,.T.);
#257 = LINE('',#258,#259);
#258 = CARTESIAN_POINT('',(-47.5,7.5,3.));
#259 = VECTOR('',#260,1.);
#260 = DIRECTION('',(0.,-1.,0.));
#261 = ORIENTED_EDGE('',*,*,#39,.T.);
#262 = ORIENTED_EDGE('',*,*,#223,.F.);
#263 = ORIENTED_EDGE('',*,*,#264,.F.);
#264 = EDGE_CURVE('',#265,#224,#267,.T.);
#265 = VERTEX_POINT('',#266);
#266 = CARTESIAN_POINT('',(-35.,-4.330127018922,3.));
#267 = CIRCLE('',#268,5.);
#268 = AXIS2_PLACEMENT_3D('',#269,#270,#271);
#269 = CARTESIAN_POINT('',(-37.5,0.,3.));
#270 = DIRECTION('',(0.,0.,1.));
#271 = DIRECTION('',(1.,0.,0.));
#272 = ORIENTED_EDGE('',*,*,#273,.T.);
#273 = EDGE_CURVE('',#265,#274,#276,.T.);
#274 = VERTEX_POINT('',#275);
#275 = CARTESIAN_POINT('',(-35.,-7.5,3.));
#276 = LINE('',#277,#278);
#277 = CARTESIAN_POINT('',(-35.,-4.330127018922,3.));
#278 = VECTOR('',#279,1.);
#279 = DIRECTION('',(0.,-1.,0.));
#280 = ORIENTED_EDGE('',*,*,#281,.T.);
#281 = EDGE_CURVE('',#274,#282,#284,.T.);
#282 = VERTEX_POINT('',#283);
#283 = CARTESIAN_POINT('',(-15.,-7.5,3.));
#284 = LINE('',#285,#286);
#285 = CARTESIAN_POINT('',(-47.5,-7.5,3.));
#286 = VECTOR('',#287,1.);
#287 = DIRECTION('',(1.,0.,0.));
#288 = ORIENTED_EDGE('',*,*,#289,.F.);
#289 = EDGE_CURVE('',#290,#282,#292,.T.);
#290 = VERTEX_POINT('',#291);
#291 = CARTESIAN_POINT('',(-15.,-4.330127018922,3.));
#292 = LINE('',#293,#294);
#293 = CARTESIAN_POINT('',(-15.,-4.330127018922,3.));
#294 = VECTOR('',#295,1.);
#295 = DIRECTION('',(0.,-1.,0.));
#296 = ORIENTED_EDGE('',*,*,#297,.F.);
#297 = EDGE_CURVE('',#298,#290,#300,.T.);
#298 = VERTEX_POINT('',#299);
#299 = CARTESIAN_POINT('',(-10.,-4.330127018922,3.));
#300 = CIRCLE('',#301,5.);
#301 = AXIS2_PLACEMENT_3D('',#302,#303,#304);
#302 = CARTESIAN_POINT('',(-12.5,0.,3.));
#303 = DIRECTION('',(0.,0.,1.));
#304 = DIRECTION('',(1.,0.,0.));
#305 = ORIENTED_EDGE('',*,*,#306,.T.);
#306 = EDGE_CURVE('',#298,#307,#309,.T.);
#307 = VERTEX_POINT('',#308);
#308 = CARTESIAN_POINT('',(-10.,-7.5,3.));
#309 = LINE('',#310,#311);
#310 = CARTESIAN_POINT('',(-10.,-4.330127018922,3.));
#311 = VECTOR('',#312,1.);
#312 = DIRECTION('',(0.,-1.,0.));
#313 = ORIENTED_EDGE('',*,*,#314,.T.);
#314 = EDGE_CURVE('',#307,#315,#317,.T.);
#315 = VERTEX_POINT('',#316);
#316 = CARTESIAN_POINT('',(10.,-7.5,3.));
#317 = LINE('',#318,#319);
#318 = CARTESIAN_POINT('',(-47.5,-7.5,3.));
#319 = VECTOR('',#320,1.);
#320 = DIRECTION('',(1.,0.,0.));
#321 = ORIENTED_EDGE('',*,*,#322,.F.);
#322 = EDGE_CURVE('',#323,#315,#325,.T.);
#323 = VERTEX_POINT('',#324);
#324 = CARTESIAN_POINT('',(10.,-4.330127018922,3.));
#325 = LINE('',#326,#327);
#326 = CARTESIAN_POINT('',(10.,-4.330127018922,3.));
#327 = VECTOR('',#328,1.);
#328 = DIRECTION('',(0.,-1.,0.));
#329 = ORIENTED_EDGE('',*,*,#330,.F.);
#330 = EDGE_CURVE('',#331,#323,#333,.T.);
#331 = VERTEX_POINT('',#332);
#332 = CARTESIAN_POINT('',(15.,-4.330127018922,3.));
#333 = CIRCLE('',#334,5.);
#334 = AXIS2_PLACEMENT_3D('',#335,#336,#337);
#335 = CARTESIAN_POINT('',(12.5,0.,3.));
#336 = DIRECTION('',(0.,0.,1.));
#337 = DIRECTION('',(1.,0.,0.));
#338 = ORIENTED_EDGE('',*,*,#339,.T.);
#339 = EDGE_CURVE('',#331,#340,#342,.T.);
#340 = VERTEX_POINT('',#341);
#341 = CARTESIAN_POINT('',(15.,-7.5,3.));
#342 = LINE('',#343,#344);
#343 = CARTESIAN_POINT('',(15.,-4.330127018922,3.));
#344 = VECTOR('',#345,1.);
#345 = DIRECTION('',(0.,-1.,0.));
#346 = ORIENTED_EDGE('',*,*,#347,.T.);
#347 = EDGE_CURVE('',#340,#348,#350,.T.);
#348 = VERTEX_POINT('',#349);
#349 = CARTESIAN_POINT('',(35.,-7.5,3.));
#350 = LINE('',#351,#352);
#351 = CARTESIAN_POINT('',(-47.5,-7.5,3.));
#352 = VECTOR('',#353,1.);
#353 = DIRECTION('',(1.,0.,0.));
#354 = ORIENTED_EDGE('',*,*,#355,.F.);
#355 = EDGE_CURVE('',#356,#348,#358,.T.);
#356 = VERTEX_POINT('',#357);
#357 = CARTESIAN_POINT('',(35.,-4.330127018922,3.));
#358 = LINE('',#359,#360);
#359 = CARTESIAN_POINT('',(35.,-4.330127018922,3.));
#360 = VECTOR('',#361,1.);
#361 = DIRECTION('',(0.,-1.,0.));
#362 = ORIENTED_EDGE('',*,*,#363,.F.);
#363 = EDGE_CURVE('',#364,#356,#366,.T.);
#364 = VERTEX_POINT('',#365);
#365 = CARTESIAN_POINT('',(40.,-4.330127018922,3.));
#366 = CIRCLE('',#367,5.);
#367 = AXIS2_PLACEMENT_3D('',#368,#369,#370);
#368 = CARTESIAN_POINT('',(37.5,0.,3.));
#369 = DIRECTION('',(0.,0.,1.));
#370 = DIRECTION('',(1.,0.,0.));
#371 = ORIENTED_EDGE('',*,*,#372,.T.);
#372 = EDGE_CURVE('',#364,#373,#375,.T.);
#373 = VERTEX_POINT('',#374);
#374 = CARTESIAN_POINT('',(40.,-7.5,3.));
#375 = LINE('',#376,#377);
#376 = CARTESIAN_POINT('',(40.,-4.330127018922,3.));
#377 = VECTOR('',#378,1.);
#378 = DIRECTION('',(0.,-1.,0.));
#379 = ORIENTED_EDGE('',*,*,#380,.T.);
#380 = EDGE_CURVE('',#373,#381,#383,.T.);
#381 = VERTEX_POINT('',#382);
#382 = CARTESIAN_POINT('',(47.5,-7.5,3.));
#383 = LINE('',#384,#385);
#384 = CARTESIAN_POINT('',(-47.5,-7.5,3.));
#385 = VECTOR('',#386,1.);
#386 = DIRECTION('',(1.,0.,0.));
#387 = ORIENTED_EDGE('',*,*,#388,.T.);
#388 = EDGE_CURVE('',#381,#247,#389,.T.);
#389 = LINE('',#390,#391);
#390 = CARTESIAN_POINT('',(47.5,7.5,3.));
#391 = VECTOR('',#392,1.);
#392 = DIRECTION('',(0.,1.,0.));
#393 = PLANE('',#394);
#394 = AXIS2_PLACEMENT_3D('',#395,#396,#397);
#395 = CARTESIAN_POINT('',(0.,1.5,3.));
#396 = DIRECTION('',(0.,0.,1.));
#397 = DIRECTION('',(1.,0.,0.));
#398 = ADVANCED_FACE('',(#399),#426,.T.);
#399 = FACE_BOUND('',#400,.T.);
#400 = EDGE_LOOP('',(#401,#402,#403,#411,#419,#425));
#401 = ORIENTED_EDGE('',*,*,#31,.T.);
#402 = ORIENTED_EDGE('',*,*,#256,.F.);
#403 = ORIENTED_EDGE('',*,*,#404,.T.);
#404 = EDGE_CURVE('',#249,#405,#407,.T.);
#405 = VERTEX_POINT('',#406);
#406 = CARTESIAN_POINT('',(-47.5,10.5,-15.));
#407 = LINE('',#408,#409);
#408 = CARTESIAN_POINT('',(-47.5,10.5,3.));
#409 = VECTOR('',#410,1.);
#410 = DIRECTION('',(-0.,-0.,-1.));
#411 = ORIENTED_EDGE('',*,*,#412,.T.);
#412 = EDGE_CURVE('',#405,#413,#415,.T.);
#413 = VERTEX_POINT('',#414);
#414 = CARTESIAN_POINT('',(-47.5,7.5,-15.));
#415 = LINE('',#416,#417);
#416 = CARTESIAN_POINT('',(-47.5,10.5,-15.));
#417 = VECTOR('',#418,1.);
#418 = DIRECTION('',(0.,-1.,0.));
#419 = ORIENTED_EDGE('',*,*,#420,.F.);
#420 = EDGE_CURVE('',#63,#413,#421,.T.);
#421 = LINE('',#422,#423);
#422 = CARTESIAN_POINT('',(-47.5,7.5,3.));
#423 = VECTOR('',#424,1.);
#424 = DIRECTION('',(-0.,-0.,-1.));
#425 = ORIENTED_EDGE('',*,*,#70,.T.);
#426 = PLANE('',#427);
#427 = AXIS2_PLACEMENT_3D('',#428,#429,#430);
#428 = CARTESIAN_POINT('',(-47.5,4.625,-2.875));
#429 = DIRECTION('',(-1.,-0.,-0.));
#430 = DIRECTION('',(0.,0.,-1.));
#431 = ADVANCED_FACE('',(#432,#450,#461),#472,.T.);
#432 = FACE_BOUND('',#433,.T.);
#433 = EDGE_LOOP('',(#434,#435,#436,#444));
#434 = ORIENTED_EDGE('',*,*,#60,.T.);
#435 = ORIENTED_EDGE('',*,*,#420,.T.);
#436 = ORIENTED_EDGE('',*,*,#437,.T.);
#437 = EDGE_CURVE('',#413,#438,#440,.T.);
#438 = VERTEX_POINT('',#439);
#439 = CARTESIAN_POINT('',(47.5,7.5,-15.));
#440 = LINE('',#441,#442);
#441 = CARTESIAN_POINT('',(-47.5,7.5,-15.));
#442 = VECTOR('',#443,1.);
#443 = DIRECTION('',(1.,1.E-17,0.));
#444 = ORIENTED_EDGE('',*,*,#445,.F.);
#445 = EDGE_CURVE('',#61,#438,#446,.T.);
#446 = LINE('',#447,#448);
#447 = CARTESIAN_POINT('',(47.5,7.5,3.));
#448 = VECTOR('',#449,1.);
#449 = DIRECTION('',(-0.,-0.,-1.));
#450 = FACE_BOUND('',#451,.T.);
#451 = EDGE_LOOP('',(#452));
#452 = ORIENTED_EDGE('',*,*,#453,.F.);
#453 = EDGE_CURVE('',#454,#454,#456,.T.);
#454 = VERTEX_POINT('',#455);
#455 = CARTESIAN_POINT('',(-39.,7.5,-7.5));
#456 = CIRCLE('',#457,1.5);
#457 = AXIS2_PLACEMENT_3D('',#458,#459,#460);
#458 = CARTESIAN_POINT('',(-37.5,7.5,-7.5));
#459 = DIRECTION('',(0.,-1.,2.2E-16));
#460 = DIRECTION('',(-1.,0.,0.));
#461 = FACE_BOUND('',#462,.T.);
#462 = EDGE_LOOP('',(#463));
#463 = ORIENTED_EDGE('',*,*,#464,.F.);
#464 = EDGE_CURVE('',#465,#465,#467,.T.);
#465 = VERTEX_POINT('',#466);
#466 = CARTESIAN_POINT('',(36.,7.5,-7.5));
#467 = CIRCLE('',#468,1.5);
#468 = AXIS2_PLACEMENT_3D('',#469,#470,#471);
#469 = CARTESIAN_POINT('',(37.5,7.5,-7.5));
#470 = DIRECTION('',(0.,-1.,2.2E-16));
#471 = DIRECTION('',(-1.,0.,0.));
#472 = PLANE('',#473);
#473 = AXIS2_PLACEMENT_3D('',#474,#475,#476);
#474 = CARTESIAN_POINT('',(-47.5,7.5,3.));
#475 = DIRECTION('',(1.E-17,-1.,0.));
#476 = DIRECTION('',(1.,1.E-17,0.));
#477 = ADVANCED_FACE('',(#478),#503,.T.);
#478 = FACE_BOUND('',#479,.T.);
#479 = EDGE_LOOP('',(#480,#486,#487,#488,#496,#502));
#480 = ORIENTED_EDGE('',*,*,#481,.F.);
#481 = EDGE_CURVE('',#202,#381,#482,.T.);
#482 = LINE('',#483,#484);
#483 = CARTESIAN_POINT('',(47.5,-7.5,0.));
#484 = VECTOR('',#485,1.);
#485 = DIRECTION('',(0.,0.,1.));
#486 = ORIENTED_EDGE('',*,*,#209,.T.);
#487 = ORIENTED_EDGE('',*,*,#445,.T.);
#488 = ORIENTED_EDGE('',*,*,#489,.T.);
#489 = EDGE_CURVE('',#438,#490,#492,.T.);
#490 = VERTEX_POINT('',#491);
#491 = CARTESIAN_POINT('',(47.5,10.5,-15.));
#492 = LINE('',#493,#494);
#493 = CARTESIAN_POINT('',(47.5,7.5,-15.));
#494 = VECTOR('',#495,1.);
#495 = DIRECTION('',(0.,1.,0.));
#496 = ORIENTED_EDGE('',*,*,#497,.F.);
#497 = EDGE_CURVE('',#247,#490,#498,.T.);
#498 = LINE('',#499,#500);
#499 = CARTESIAN_POINT('',(47.5,10.5,3.));
#500 = VECTOR('',#501,1.);
#501 = DIRECTION('',(-0.,-0.,-1.));
#502 = ORIENTED_EDGE('',*,*,#388,.F.);
#503 = PLANE('',#504);
#504 = AXIS2_PLACEMENT_3D('',#505,#506,#507);
#505 = CARTESIAN_POINT('',(47.5,4.625,-2.875));
#506 = DIRECTION('',(1.,0.,0.));
#507 = DIRECTION('',(0.,0.,1.));
#508 = ADVANCED_FACE('',(#509),#519,.F.);
#509 = FACE_BOUND('',#510,.F.);
#510 = EDGE_LOOP('',(#511,#512,#517,#518));
#511 = ORIENTED_EDGE('',*,*,#201,.F.);
#512 = ORIENTED_EDGE('',*,*,#513,.F.);
#513 = EDGE_CURVE('',#373,#194,#514,.T.);
#514 = B_SPLINE_CURVE_WITH_KNOTS('',1,(#515,#516),.UNSPECIFIED.,.F.,.F.,
  (2,2),(0.,1.),.PIECEWISE_BEZIER_KNOTS.);
#515 = CARTESIAN_POINT('',(40.,-7.5,3.));
#516 = CARTESIAN_POINT('',(39.5,-7.5,0.));
#517 = ORIENTED_EDGE('',*,*,#380,.T.);
#518 = ORIENTED_EDGE('',*,*,#481,.F.);
#519 = PLANE('',#520);
#520 = AXIS2_PLACEMENT_3D('',#521,#522,#523);
#521 = CARTESIAN_POINT('',(-47.5,-7.5,0.));
#522 = DIRECTION('',(0.,1.,0.));
#523 = DIRECTION('',(1.,0.,0.));
#524 = ADVANCED_FACE('',(#525),#535,.T.);
#525 = FACE_BOUND('',#526,.T.);
#526 = EDGE_LOOP('',(#527,#528,#533,#534));
#527 = ORIENTED_EDGE('',*,*,#372,.F.);
#528 = ORIENTED_EDGE('',*,*,#529,.T.);
#529 = EDGE_CURVE('',#364,#185,#530,.T.);
#530 = B_SPLINE_CURVE_WITH_KNOTS('',1,(#531,#532),.UNSPECIFIED.,.F.,.F.,
  (2,2),(0.,1.),.PIECEWISE_BEZIER_KNOTS.);
#531 = CARTESIAN_POINT('',(40.,-4.330127018922,3.));
#532 = CARTESIAN_POINT('',(39.5,-3.464101615138,0.));
#533 = ORIENTED_EDGE('',*,*,#193,.T.);
#534 = ORIENTED_EDGE('',*,*,#513,.F.);
#535 = B_SPLINE_SURFACE_WITH_KNOTS('',1,1,(
    (#536,#537)
    ,(#538,#539
    )),.UNSPECIFIED.,.F.,.F.,.F.,(2,2),(2,2),(-4.035898384862,0.),(0.,1.
    ),.PIECEWISE_BEZIER_KNOTS.);
#536 = CARTESIAN_POINT('',(40.,-7.5,3.));
#537 = CARTESIAN_POINT('',(39.5,-7.5,0.));
#538 = CARTESIAN_POINT('',(40.,-4.330127018922,3.));
#539 = CARTESIAN_POINT('',(39.5,-3.464101615138,0.));
#540 = ADVANCED_FACE('',(#541),#551,.F.);
#541 = FACE_BOUND('',#542,.T.);
#542 = EDGE_LOOP('',(#543,#544,#549,#550));
#543 = ORIENTED_EDGE('',*,*,#363,.T.);
#544 = ORIENTED_EDGE('',*,*,#545,.T.);
#545 = EDGE_CURVE('',#356,#177,#546,.T.);
#546 = B_SPLINE_CURVE_WITH_KNOTS('',1,(#547,#548),.UNSPECIFIED.,.F.,.F.,
  (2,2),(0.,1.),.PIECEWISE_BEZIER_KNOTS.);
#547 = CARTESIAN_POINT('',(35.,-4.330127018922,3.));
#548 = CARTESIAN_POINT('',(35.5,-3.464101615138,0.));
#549 = ORIENTED_EDGE('',*,*,#184,.T.);
#550 = ORIENTED_EDGE('',*,*,#529,.F.);
#551 = CONICAL_SURFACE('',#552,5.,0.321750554397);
#552 = AXIS2_PLACEMENT_3D('',#553,#554,#555);
#553 = CARTESIAN_POINT('',(37.5,0.,3.));
#554 = DIRECTION('',(0.,0.,1.));
#555 = DIRECTION('',(1.,0.,0.));
#556 = ADVANCED_FACE('',(#557),#567,.T.);
#557 = FACE_BOUND('',#558,.T.);
#558 = EDGE_LOOP('',(#559,#560,#565,#566));
#559 = ORIENTED_EDGE('',*,*,#355,.T.);
#560 = ORIENTED_EDGE('',*,*,#561,.T.);
#561 = EDGE_CURVE('',#348,#169,#562,.T.);
#562 = B_SPLINE_CURVE_WITH_KNOTS('',1,(#563,#564),.UNSPECIFIED.,.F.,.F.,
  (2,2),(0.,1.),.PIECEWISE_BEZIER_KNOTS.);
#563 = CARTESIAN_POINT('',(35.,-7.5,3.));
#564 = CARTESIAN_POINT('',(35.5,-7.5,0.));
#565 = ORIENTED_EDGE('',*,*,#176,.F.);
#566 = ORIENTED_EDGE('',*,*,#545,.F.);
#567 = B_SPLINE_SURFACE_WITH_KNOTS('',1,1,(
    (#568,#569)
    ,(#570,#571
    )),.UNSPECIFIED.,.F.,.F.,.F.,(2,2),(2,2),(0.,4.035898384862),(0.,1.)
  ,.PIECEWISE_BEZIER_KNOTS.);
#568 = CARTESIAN_POINT('',(35.,-4.330127018922,3.));
#569 = CARTESIAN_POINT('',(35.5,-3.464101615138,0.));
#570 = CARTESIAN_POINT('',(35.,-7.5,3.));
#571 = CARTESIAN_POINT('',(35.5,-7.5,0.));
#572 = ADVANCED_FACE('',(#573),#583,.F.);
#573 = FACE_BOUND('',#574,.F.);
#574 = EDGE_LOOP('',(#575,#576,#581,#582));
#575 = ORIENTED_EDGE('',*,*,#168,.F.);
#576 = ORIENTED_EDGE('',*,*,#577,.F.);
#577 = EDGE_CURVE('',#340,#161,#578,.T.);
#578 = B_SPLINE_CURVE_WITH_KNOTS('',1,(#579,#580),.UNSPECIFIED.,.F.,.F.,
  (2,2),(0.,1.),.PIECEWISE_BEZIER_KNOTS.);
#579 = CARTESIAN_POINT('',(15.,-7.5,3.));
#580 = CARTESIAN_POINT('',(14.5,-7.5,0.));
#581 = ORIENTED_EDGE('',*,*,#347,.T.);
#582 = ORIENTED_EDGE('',*,*,#561,.T.);
#583 = PLANE('',#584);
#584 = AXIS2_PLACEMENT_3D('',#585,#586,#587);
#585 = CARTESIAN_POINT('',(-47.5,-7.5,0.));
#586 = DIRECTION('',(0.,1.,0.));
#587 = DIRECTION('',(1.,0.,0.));
#588 = ADVANCED_FACE('',(#589),#599,.T.);
#589 = FACE_BOUND('',#590,.T.);
#590 = EDGE_LOOP('',(#591,#592,#597,#598));
#591 = ORIENTED_EDGE('',*,*,#339,.F.);
#592 = ORIENTED_EDGE('',*,*,#593,.T.);
#593 = EDGE_CURVE('',#331,#152,#594,.T.);
#594 = B_SPLINE_CURVE_WITH_KNOTS('',1,(#595,#596),.UNSPECIFIED.,.F.,.F.,
  (2,2),(0.,1.),.PIECEWISE_BEZIER_KNOTS.);
#595 = CARTESIAN_POINT('',(15.,-4.330127018922,3.));
#596 = CARTESIAN_POINT('',(14.5,-3.464101615138,0.));
#597 = ORIENTED_EDGE('',*,*,#160,.T.);
#598 = ORIENTED_EDGE('',*,*,#577,.F.);
#599 = B_SPLINE_SURFACE_WITH_KNOTS('',1,1,(
    (#600,#601)
    ,(#602,#603
    )),.UNSPECIFIED.,.F.,.F.,.F.,(2,2),(2,2),(-4.035898384862,0.),(0.,1.
    ),.PIECEWISE_BEZIER_KNOTS.);
#600 = CARTESIAN_POINT('',(15.,-7.5,3.));
#601 = CARTESIAN_POINT('',(14.5,-7.5,0.));
#602 = CARTESIAN_POINT('',(15.,-4.330127018922,3.));
#603 = CARTESIAN_POINT('',(14.5,-3.464101615138,0.));
#604 = ADVANCED_FACE('',(#605),#615,.F.);
#605 = FACE_BOUND('',#606,.T.);
#606 = EDGE_LOOP('',(#607,#608,#613,#614));
#607 = ORIENTED_EDGE('',*,*,#330,.T.);
#608 = ORIENTED_EDGE('',*,*,#609,.T.);
#609 = EDGE_CURVE('',#323,#144,#610,.T.);
#610 = B_SPLINE_CURVE_WITH_KNOTS('',1,(#611,#612),.UNSPECIFIED.,.F.,.F.,
  (2,2),(0.,1.),.PIECEWISE_BEZIER_KNOTS.);
#611 = CARTESIAN_POINT('',(10.,-4.330127018922,3.));
#612 = CARTESIAN_POINT('',(10.5,-3.464101615138,0.));
#613 = ORIENTED_EDGE('',*,*,#151,.T.);
#614 = ORIENTED_EDGE('',*,*,#593,.F.);
#615 = CONICAL_SURFACE('',#616,5.,0.321750554397);
#616 = AXIS2_PLACEMENT_3D('',#617,#618,#619);
#617 = CARTESIAN_POINT('',(12.5,0.,3.));
#618 = DIRECTION('',(0.,0.,1.));
#619 = DIRECTION('',(1.,0.,0.));
#620 = ADVANCED_FACE('',(#621),#631,.T.);
#621 = FACE_BOUND('',#622,.T.);
#622 = EDGE_LOOP('',(#623,#624,#629,#630));
#623 = ORIENTED_EDGE('',*,*,#322,.T.);
#624 = ORIENTED_EDGE('',*,*,#625,.T.);
#625 = EDGE_CURVE('',#315,#136,#626,.T.);
#626 = B_SPLINE_CURVE_WITH_KNOTS('',1,(#627,#628),.UNSPECIFIED.,.F.,.F.,
  (2,2),(0.,1.),.PIECEWISE_BEZIER_KNOTS.);
#627 = CARTESIAN_POINT('',(10.,-7.5,3.));
#628 = CARTESIAN_POINT('',(10.5,-7.5,0.));
#629 = ORIENTED_EDGE('',*,*,#143,.F.);
#630 = ORIENTED_EDGE('',*,*,#609,.F.);
#631 = B_SPLINE_SURFACE_WITH_KNOTS('',1,1,(
    (#632,#633)
    ,(#634,#635
    )),.UNSPECIFIED.,.F.,.F.,.F.,(2,2),(2,2),(0.,4.035898384862),(0.,1.)
  ,.PIECEWISE_BEZIER_KNOTS.);
#632 = CARTESIAN_POINT('',(10.,-4.330127018922,3.));
#633 = CARTESIAN_POINT('',(10.5,-3.464101615138,0.));
#634 = CARTESIAN_POINT('',(10.,-7.5,3.));
#635 = CARTESIAN_POINT('',(10.5,-7.5,0.));
#636 = ADVANCED_FACE('',(#637),#647,.F.);
#637 = FACE_BOUND('',#638,.F.);
#638 = EDGE_LOOP('',(#639,#640,#645,#646));
#639 = ORIENTED_EDGE('',*,*,#135,.F.);
#640 = ORIENTED_EDGE('',*,*,#641,.F.);
#641 = EDGE_CURVE('',#307,#128,#642,.T.);
#642 = B_SPLINE_CURVE_WITH_KNOTS('',1,(#643,#644),.UNSPECIFIED.,.F.,.F.,
  (2,2),(0.,1.),.PIECEWISE_BEZIER_KNOTS.);
#643 = CARTESIAN_POINT('',(-10.,-7.5,3.));
#644 = CARTESIAN_POINT('',(-10.5,-7.5,0.));
#645 = ORIENTED_EDGE('',*,*,#314,.T.);
#646 = ORIENTED_EDGE('',*,*,#625,.T.);
#647 = PLANE('',#648);
#648 = AXIS2_PLACEMENT_3D('',#649,#650,#651);
#649 = CARTESIAN_POINT('',(-47.5,-7.5,0.));
#650 = DIRECTION('',(0.,1.,0.));
#651 = DIRECTION('',(1.,0.,0.));
#652 = ADVANCED_FACE('',(#653),#663,.T.);
#653 = FACE_BOUND('',#654,.T.);
#654 = EDGE_LOOP('',(#655,#656,#661,#662));
#655 = ORIENTED_EDGE('',*,*,#306,.F.);
#656 = ORIENTED_EDGE('',*,*,#657,.T.);
#657 = EDGE_CURVE('',#298,#119,#658,.T.);
#658 = B_SPLINE_CURVE_WITH_KNOTS('',1,(#659,#660),.UNSPECIFIED.,.F.,.F.,
  (2,2),(0.,1.),.PIECEWISE_BEZIER_KNOTS.);
#659 = CARTESIAN_POINT('',(-10.,-4.330127018922,3.));
#660 = CARTESIAN_POINT('',(-10.5,-3.464101615138,0.));
#661 = ORIENTED_EDGE('',*,*,#127,.T.);
#662 = ORIENTED_EDGE('',*,*,#641,.F.);
#663 = B_SPLINE_SURFACE_WITH_KNOTS('',1,1,(
    (#664,#665)
    ,(#666,#667
    )),.UNSPECIFIED.,.F.,.F.,.F.,(2,2),(2,2),(-4.035898384862,0.),(0.,1.
    ),.PIECEWISE_BEZIER_KNOTS.);
#664 = CARTESIAN_POINT('',(-10.,-7.5,3.));
#665 = CARTESIAN_POINT('',(-10.5,-7.5,0.));
#666 = CARTESIAN_POINT('',(-10.,-4.330127018922,3.));
#667 = CARTESIAN_POINT('',(-10.5,-3.464101615138,0.));
#668 = ADVANCED_FACE('',(#669),#679,.F.);
#669 = FACE_BOUND('',#670,.T.);
#670 = EDGE_LOOP('',(#671,#672,#677,#678));
#671 = ORIENTED_EDGE('',*,*,#297,.T.);
#672 = ORIENTED_EDGE('',*,*,#673,.T.);
#673 = EDGE_CURVE('',#290,#111,#674,.T.);
#674 = B_SPLINE_CURVE_WITH_KNOTS('',1,(#675,#676),.UNSPECIFIED.,.F.,.F.,
  (2,2),(0.,1.),.PIECEWISE_BEZIER_KNOTS.);
#675 = CARTESIAN_POINT('',(-15.,-4.330127018922,3.));
#676 = CARTESIAN_POINT('',(-14.5,-3.464101615138,0.));
#677 = ORIENTED_EDGE('',*,*,#118,.T.);
#678 = ORIENTED_EDGE('',*,*,#657,.F.);
#679 = CONICAL_SURFACE('',#680,5.,0.321750554397);
#680 = AXIS2_PLACEMENT_3D('',#681,#682,#683);
#681 = CARTESIAN_POINT('',(-12.5,0.,3.));
#682 = DIRECTION('',(0.,0.,1.));
#683 = DIRECTION('',(1.,0.,0.));
#684 = ADVANCED_FACE('',(#685),#695,.T.);
#685 = FACE_BOUND('',#686,.T.);
#686 = EDGE_LOOP('',(#687,#688,#693,#694));
#687 = ORIENTED_EDGE('',*,*,#289,.T.);
#688 = ORIENTED_EDGE('',*,*,#689,.T.);
#689 = EDGE_CURVE('',#282,#103,#690,.T.);
#690 = B_SPLINE_CURVE_WITH_KNOTS('',1,(#691,#692),.UNSPECIFIED.,.F.,.F.,
  (2,2),(0.,1.),.PIECEWISE_BEZIER_KNOTS.);
#691 = CARTESIAN_POINT('',(-15.,-7.5,3.));
#692 = CARTESIAN_POINT('',(-14.5,-7.5,0.));
#693 = ORIENTED_EDGE('',*,*,#110,.F.);
#694 = ORIENTED_EDGE('',*,*,#673,.F.);
#695 = B_SPLINE_SURFACE_WITH_KNOTS('',1,1,(
    (#696,#697)
    ,(#698,#699
    )),.UNSPECIFIED.,.F.,.F.,.F.,(2,2),(2,2),(0.,4.035898384862),(0.,1.)
  ,.PIECEWISE_BEZIER_KNOTS.);
#696 = CARTESIAN_POINT('',(-15.,-4.330127018922,3.));
#697 = CARTESIAN_POINT('',(-14.5,-3.464101615138,0.));
#698 = CARTESIAN_POINT('',(-15.,-7.5,3.));
#699 = CARTESIAN_POINT('',(-14.5,-7.5,0.));
#700 = ADVANCED_FACE('',(#701),#711,.F.);
#701 = FACE_BOUND('',#702,.F.);
#702 = EDGE_LOOP('',(#703,#704,#709,#710));
#703 = ORIENTED_EDGE('',*,*,#102,.F.);
#704 = ORIENTED_EDGE('',*,*,#705,.F.);
#705 = EDGE_CURVE('',#274,#95,#706,.T.);
#706 = B_SPLINE_CURVE_WITH_KNOTS('',1,(#707,#708),.UNSPECIFIED.,.F.,.F.,
  (2,2),(0.,1.),.PIECEWISE_BEZIER_KNOTS.);
#707 = CARTESIAN_POINT('',(-35.,-7.5,3.));
#708 = CARTESIAN_POINT('',(-35.5,-7.5,0.));
#709 = ORIENTED_EDGE('',*,*,#281,.T.);
#710 = ORIENTED_EDGE('',*,*,#689,.T.);
#711 = PLANE('',#712);
#712 = AXIS2_PLACEMENT_3D('',#713,#714,#715);
#713 = CARTESIAN_POINT('',(-47.5,-7.5,0.));
#714 = DIRECTION('',(0.,1.,0.));
#715 = DIRECTION('',(1.,0.,0.));
#716 = ADVANCED_FACE('',(#717),#727,.T.);
#717 = FACE_BOUND('',#718,.T.);
#718 = EDGE_LOOP('',(#719,#720,#725,#726));
#719 = ORIENTED_EDGE('',*,*,#273,.F.);
#720 = ORIENTED_EDGE('',*,*,#721,.T.);
#721 = EDGE_CURVE('',#265,#86,#722,.T.);
#722 = B_SPLINE_CURVE_WITH_KNOTS('',1,(#723,#724),.UNSPECIFIED.,.F.,.F.,
  (2,2),(0.,1.),.PIECEWISE_BEZIER_KNOTS.);
#723 = CARTESIAN_POINT('',(-35.,-4.330127018922,3.));
#724 = CARTESIAN_POINT('',(-35.5,-3.464101615138,0.));
#725 = ORIENTED_EDGE('',*,*,#94,.T.);
#726 = ORIENTED_EDGE('',*,*,#705,.F.);
#727 = B_SPLINE_SURFACE_WITH_KNOTS('',1,1,(
    (#728,#729)
    ,(#730,#731
    )),.UNSPECIFIED.,.F.,.F.,.F.,(2,2),(2,2),(-4.035898384862,0.),(0.,1.
    ),.PIECEWISE_BEZIER_KNOTS.);
#728 = CARTESIAN_POINT('',(-35.,-7.5,3.));
#729 = CARTESIAN_POINT('',(-35.5,-7.5,0.));
#730 = CARTESIAN_POINT('',(-35.,-4.330127018922,3.));
#731 = CARTESIAN_POINT('',(-35.5,-3.464101615138,0.));
#732 = ADVANCED_FACE('',(#733),#739,.F.);
#733 = FACE_BOUND('',#734,.T.);
#734 = EDGE_LOOP('',(#735,#736,#737,#738));
#735 = ORIENTED_EDGE('',*,*,#264,.T.);
#736 = ORIENTED_EDGE('',*,*,#233,.T.);
#737 = ORIENTED_EDGE('',*,*,#85,.T.);
#738 = ORIENTED_EDGE('',*,*,#721,.F.);
#739 = CONICAL_SURFACE('',#740,5.,0.321750554397);
#740 = AXIS2_PLACEMENT_3D('',#741,#742,#743);
#741 = CARTESIAN_POINT('',(-37.5,0.,3.));
#742 = DIRECTION('',(0.,0.,1.));
#743 = DIRECTION('',(1.,0.,0.));
#744 = ADVANCED_FACE('',(#745,#756,#767),#778,.T.);
#745 = FACE_BOUND('',#746,.T.);
#746 = EDGE_LOOP('',(#747,#748,#754,#755));
#747 = ORIENTED_EDGE('',*,*,#497,.T.);
#748 = ORIENTED_EDGE('',*,*,#749,.T.);
#749 = EDGE_CURVE('',#490,#405,#750,.T.);
#750 = LINE('',#751,#752);
#751 = CARTESIAN_POINT('',(47.5,10.5,-15.));
#752 = VECTOR('',#753,1.);
#753 = DIRECTION('',(-1.,0.,0.));
#754 = ORIENTED_EDGE('',*,*,#404,.F.);
#755 = ORIENTED_EDGE('',*,*,#246,.F.);
#756 = FACE_BOUND('',#757,.T.);
#757 = EDGE_LOOP('',(#758));
#758 = ORIENTED_EDGE('',*,*,#759,.F.);
#759 = EDGE_CURVE('',#760,#760,#762,.T.);
#760 = VERTEX_POINT('',#761);
#761 = CARTESIAN_POINT('',(36.,10.5,-7.5));
#762 = CIRCLE('',#763,1.5);
#763 = AXIS2_PLACEMENT_3D('',#764,#765,#766);
#764 = CARTESIAN_POINT('',(37.5,10.5,-7.5));
#765 = DIRECTION('',(0.,1.,-2.2E-16));
#766 = DIRECTION('',(-1.,0.,0.));
#767 = FACE_BOUND('',#768,.T.);
#768 = EDGE_LOOP('',(#769));
#769 = ORIENTED_EDGE('',*,*,#770,.F.);
#770 = EDGE_CURVE('',#771,#771,#773,.T.);
#771 = VERTEX_POINT('',#772);
#772 = CARTESIAN_POINT('',(-39.,10.5,-7.5));
#773 = CIRCLE('',#774,1.5);
#774 = AXIS2_PLACEMENT_3D('',#775,#776,#777);
#775 = CARTESIAN_POINT('',(-37.5,10.5,-7.5));
#776 = DIRECTION('',(0.,1.,-2.2E-16));
#777 = DIRECTION('',(-1.,0.,0.));
#778 = PLANE('',#779);
#779 = AXIS2_PLACEMENT_3D('',#780,#781,#782);
#780 = CARTESIAN_POINT('',(47.5,10.5,3.));
#781 = DIRECTION('',(0.,1.,0.));
#782 = DIRECTION('',(-1.,0.,0.));
#783 = ADVANCED_FACE('',(#784),#790,.F.);
#784 = FACE_BOUND('',#785,.F.);
#785 = EDGE_LOOP('',(#786,#787,#788,#789));
#786 = ORIENTED_EDGE('',*,*,#437,.T.);
#787 = ORIENTED_EDGE('',*,*,#489,.T.);
#788 = ORIENTED_EDGE('',*,*,#749,.T.);
#789 = ORIENTED_EDGE('',*,*,#412,.T.);
#790 = PLANE('',#791);
#791 = AXIS2_PLACEMENT_3D('',#792,#793,#794);
#792 = CARTESIAN_POINT('',(0.,9.,-15.));
#793 = DIRECTION('',(0.,0.,1.));
#794 = DIRECTION('',(1.,0.,0.));
#795 = ADVANCED_FACE('',(#796),#807,.F.);
#796 = FACE_BOUND('',#797,.T.);
#797 = EDGE_LOOP('',(#798,#804,#805,#806));
#798 = ORIENTED_EDGE('',*,*,#799,.F.);
#799 = EDGE_CURVE('',#454,#771,#800,.T.);
#800 = LINE('',#801,#802);
#801 = CARTESIAN_POINT('',(-39.,7.5,-7.5));
#802 = VECTOR('',#803,1.);
#803 = DIRECTION('',(6.E-17,1.,-2.2E-16));
#804 = ORIENTED_EDGE('',*,*,#453,.T.);
#805 = ORIENTED_EDGE('',*,*,#799,.T.);
#806 = ORIENTED_EDGE('',*,*,#770,.T.);
#807 = CYLINDRICAL_SURFACE('',#808,1.5);
#808 = AXIS2_PLACEMENT_3D('',#809,#810,#811);
#809 = CARTESIAN_POINT('',(-37.5,7.5,-7.5));
#810 = DIRECTION('',(0.,1.,-2.2E-16));
#811 = DIRECTION('',(-1.,0.,0.));
#812 = ADVANCED_FACE('',(#813),#824,.F.);
#813 = FACE_BOUND('',#814,.T.);
#814 = EDGE_LOOP('',(#815,#821,#822,#823));
#815 = ORIENTED_EDGE('',*,*,#816,.F.);
#816 = EDGE_CURVE('',#465,#760,#817,.T.);
#817 = LINE('',#818,#819);
#818 = CARTESIAN_POINT('',(36.,7.5,-7.5));
#819 = VECTOR('',#820,1.);
#820 = DIRECTION('',(6.E-17,1.,-2.2E-16));
#821 = ORIENTED_EDGE('',*,*,#464,.T.);
#822 = ORIENTED_EDGE('',*,*,#816,.T.);
#823 = ORIENTED_EDGE('',*,*,#759,.T.);
#824 = CYLINDRICAL_SURFACE('',#825,1.5);
#825 = AXIS2_PLACEMENT_3D('',#826,#827,#828);
#826 = CARTESIAN_POINT('',(37.5,7.5,-7.5));
#827 = DIRECTION('',(0.,1.,-2.2E-16));
#828 = DIRECTION('',(-1.,0.,0.));
#829 = ( GEOMETRIC_REPRESENTATION_CONTEXT(3) 
GLOBAL_UNCERTAINTY_ASSIGNED_CONTEXT((#833)) GLOBAL_UNIT_ASSIGNED_CONTEXT
((#830,#831,#832)) REPRESENTATION_CONTEXT('Context #1',
  '3D Context with UNIT and UNCERTAINTY') );
#830 = ( LENGTH_UNIT() NAMED_UNIT(*) SI_UNIT(.MILLI.,.METRE.) );
#831 = ( NAMED_UNIT(*) PLANE_ANGLE_UNIT() SI_UNIT($,.RADIAN.) );
#832 = ( NAMED_UNIT(*) SI_UNIT($,.STERADIAN.) SOLID_ANGLE_UNIT() );
#833 = UNCERTAINTY_MEASURE_WITH_UNIT(LENGTH_MEASURE(1.E-07),#830,
  'distance_accuracy_value','confusion accuracy');
#834 = PRODUCT_RELATED_PRODUCT_CATEGORY('part',$,(#7));
#835 = MECHANICAL_DESIGN_GEOMETRIC_PRESENTATION_REPRESENTATION('',(#836)
  ,#829);
#836 = STYLED_ITEM('color',(#837),#15);
#837 = PRESENTATION_STYLE_ASSIGNMENT((#838,#844));
#838 = SURFACE_STYLE_USAGE(.BOTH.,#839);
#839 = SURFACE_SIDE_STYLE('',(#840));
#840 = SURFACE_STYLE_FILL_AREA(#841);
#841 = FILL_AREA_STYLE('',(#842));
#842 = FILL_AREA_STYLE_COLOUR('',#843);
#843 = COLOUR_RGB('',0.800000010877,0.800000010877,0.901960800373);
#844 = CURVE_STYLE('',#845,POSITIVE_LENGTH_MEASURE(0.1),#846);
#845 = DRAUGHTING_PRE_DEFINED_CURVE_FONT('continuous');
#846 = COLOUR_RGB('',9.803921802644E-02,9.803921802644E-02,
  9.803921802644E-02);
ENDSEC;
END-ISO-10303-21;
